<svg id="svg" version="1.1" width="500" height="500" xmlns="http://www.w3.org/2000/svg" xmlns:xlink="http://www.w3.org/1999/xlink" style="display: block;"><g id="svgg"><path id="path0" d="M169.600 48.000 C 169.600 48.445,167.458 48.800,164.775 48.800 C 161.224 48.800,159.828 49.117,159.489 50.000 C 159.236 50.660,158.167 51.200,157.114 51.200 C 155.738 51.200,155.200 51.646,155.200 52.788 C 155.200 53.725,152.250 57.300,148.000 61.514 C 143.748 65.729,140.800 69.303,140.800 70.241 C 140.800 71.114,140.260 72.036,139.600 72.289 C 138.940 72.543,138.400 73.481,138.400 74.375 C 138.400 75.269,138.040 76.000,137.600 76.000 C 137.160 76.000,136.800 76.540,136.800 77.200 C 136.800 77.860,136.412 78.400,135.938 78.400 C 134.819 78.400,130.400 82.819,130.400 83.938 C 130.400 84.412,129.860 84.800,129.200 84.800 C 128.453 84.800,128.000 85.556,128.000 86.800 C 128.000 87.900,127.640 88.800,127.200 88.800 C 126.760 88.800,126.400 89.700,126.400 90.800 C 126.400 92.044,125.947 92.800,125.200 92.800 C 124.540 92.800,124.000 93.340,124.000 94.000 C 124.000 94.660,123.614 95.200,123.143 95.200 C 121.731 95.200,120.000 97.372,120.000 99.143 C 120.000 100.723,119.573 100.800,110.775 100.800 C 103.313 100.800,101.462 101.029,101.089 102.000 C 100.836 102.660,99.767 103.200,98.714 103.200 C 97.546 103.200,96.800 103.668,96.800 104.400 C 96.800 105.243,95.949 105.600,93.943 105.600 C 91.147 105.600,88.800 107.035,88.800 108.743 C 88.800 109.214,87.900 109.600,86.800 109.600 C 85.700 109.600,84.800 109.960,84.800 110.400 C 84.800 110.840,84.260 111.200,83.600 111.200 C 82.940 111.200,82.400 111.740,82.400 112.400 C 82.400 113.147,81.644 113.600,80.400 113.600 C 79.156 113.600,78.400 114.053,78.400 114.800 C 78.400 115.460,77.991 116.000,77.492 116.000 C 76.992 116.000,75.749 116.900,74.730 118.000 C 73.710 119.100,72.293 120.000,71.581 120.000 C 70.113 120.000,68.000 121.854,68.000 123.143 C 68.000 123.614,67.460 124.000,66.800 124.000 C 66.140 124.000,65.600 124.501,65.600 125.114 C 65.600 125.727,65.060 126.436,64.400 126.689 C 63.455 127.052,63.195 128.729,63.175 134.575 C 63.149 141.891,62.278 144.800,60.112 144.800 C 58.599 144.800,58.877 160.726,60.400 161.311 C 61.060 161.564,61.600 162.480,61.600 163.347 C 61.600 165.007,65.668 169.600,67.138 169.600 C 67.612 169.600,68.000 169.986,68.000 170.457 C 68.000 172.692,70.410 173.600,76.343 173.600 C 81.194 173.600,82.400 173.839,82.400 174.800 C 82.400 175.778,83.733 176.000,89.600 176.000 C 95.467 176.000,96.800 175.778,96.800 174.800 C 96.800 174.053,97.556 173.600,98.800 173.600 C 99.900 173.600,100.800 173.240,100.800 172.800 C 100.800 172.360,101.700 172.000,102.800 172.000 C 104.044 172.000,104.800 171.547,104.800 170.800 C 104.800 170.044,105.562 169.600,106.857 169.600 C 108.967 169.600,111.200 167.984,111.200 166.457 C 111.200 165.986,111.740 165.600,112.400 165.600 C 113.147 165.600,113.600 164.844,113.600 163.600 C 113.600 161.672,113.787 161.600,118.800 161.600 C 121.964 161.600,124.000 161.264,124.000 160.743 C 124.000 159.344,126.165 157.600,127.903 157.600 C 128.793 157.600,129.844 157.023,130.238 156.317 C 131.263 154.486,134.246 156.453,134.563 159.169 C 134.727 160.574,135.355 161.279,136.600 161.456 C 141.742 162.186,137.279 163.200,128.922 163.200 C 119.291 163.200,116.000 164.192,116.000 167.094 C 116.000 167.592,115.460 168.000,114.800 168.000 C 113.810 168.000,113.600 169.467,113.600 176.400 C 113.600 183.428,113.399 184.800,112.369 184.800 C 111.337 184.800,111.175 185.932,111.369 191.800 L 111.600 198.800 119.000 199.030 C 123.070 199.157,126.400 199.607,126.400 200.030 C 126.400 200.479,130.239 200.800,135.600 200.800 L 144.800 200.800 144.800 202.800 C 144.800 204.044,145.253 204.800,146.000 204.800 C 146.660 204.800,147.200 205.340,147.200 206.000 C 147.200 206.660,147.521 207.200,147.914 207.200 C 148.307 207.200,148.836 207.740,149.089 208.400 C 149.456 209.356,148.824 209.600,145.975 209.600 C 143.331 209.600,142.400 209.288,142.400 208.400 C 142.400 206.594,104.182 206.594,103.489 208.400 C 103.189 209.182,101.945 209.600,99.914 209.600 C 98.201 209.600,96.800 209.960,96.800 210.400 C 96.800 210.840,96.069 211.200,95.175 211.200 C 94.281 211.200,93.343 211.740,93.089 212.400 C 92.836 213.060,92.127 213.600,91.514 213.600 C 90.901 213.600,90.400 213.986,90.400 214.457 C 90.400 215.565,88.365 217.600,87.257 217.600 C 86.711 217.600,86.400 220.213,86.400 224.800 C 86.400 230.667,86.622 232.000,87.600 232.000 C 88.443 232.000,88.800 232.851,88.800 234.862 C 88.800 237.706,92.248 242.400,94.338 242.400 C 94.812 242.400,95.200 242.940,95.200 243.600 C 95.200 244.597,96.756 244.800,104.400 244.800 L 113.600 244.800 113.600 242.800 C 113.600 241.000,113.920 240.800,116.800 240.800 C 118.560 240.800,120.000 241.160,120.000 241.600 C 120.000 242.041,122.242 242.428,125.000 242.463 C 127.750 242.498,129.550 242.708,129.000 242.930 C 128.412 243.167,128.000 244.789,128.000 246.867 C 128.000 249.922,127.567 250.833,124.800 253.600 C 123.040 255.360,121.600 257.340,121.600 258.000 C 121.600 258.660,121.240 259.200,120.800 259.200 C 120.360 259.200,120.000 259.740,120.000 260.400 C 120.000 261.147,119.244 261.600,118.000 261.600 C 116.900 261.600,116.000 261.960,116.000 262.400 C 116.000 262.863,113.458 263.200,109.975 263.200 C 105.357 263.200,103.842 263.480,103.489 264.400 C 103.236 265.060,102.167 265.600,101.114 265.600 C 99.946 265.600,99.200 266.068,99.200 266.800 C 99.200 267.460,98.814 268.000,98.343 268.000 C 97.235 268.000,95.200 270.035,95.200 271.143 C 95.200 271.614,94.660 272.000,94.000 272.000 C 93.253 272.000,92.800 272.756,92.800 274.000 C 92.800 275.244,92.347 276.000,91.600 276.000 C 90.940 276.000,90.400 276.540,90.400 277.200 C 90.400 277.860,90.040 278.400,89.600 278.400 C 89.160 278.400,88.800 279.300,88.800 280.400 C 88.800 281.644,88.347 282.400,87.600 282.400 C 86.940 282.400,86.400 282.910,86.400 283.533 C 86.400 284.157,85.950 284.817,85.400 285.001 C 84.652 285.250,84.400 288.764,84.400 298.925 C 84.400 316.478,83.586 315.502,98.542 315.877 C 104.624 316.029,109.600 316.479,109.600 316.877 C 109.600 317.275,113.740 317.600,118.800 317.600 C 126.444 317.600,128.000 317.397,128.000 316.400 C 128.000 315.740,128.540 315.200,129.200 315.200 C 129.860 315.200,130.400 314.840,130.400 314.400 C 130.400 313.960,131.300 313.600,132.400 313.600 C 133.576 313.600,134.400 313.141,134.400 312.486 C 134.400 311.873,134.940 311.164,135.600 310.911 C 136.260 310.657,136.800 309.719,136.800 308.825 C 136.800 307.931,137.160 307.200,137.600 307.200 C 138.040 307.200,138.400 305.400,138.400 303.200 C 138.400 299.467,138.533 299.200,140.400 299.200 C 141.644 299.200,142.400 298.747,142.400 298.000 C 142.400 297.133,143.289 296.800,145.600 296.800 C 147.911 296.800,148.800 296.467,148.800 295.600 C 148.800 294.656,149.911 294.400,154.000 294.400 C 156.933 294.400,159.200 294.051,159.200 293.600 C 159.200 293.160,160.982 292.800,163.160 292.800 C 165.900 292.800,167.334 292.419,167.812 291.564 C 168.364 290.578,169.780 290.375,174.799 290.564 C 180.695 290.785,181.009 290.885,179.747 292.143 C 178.986 292.901,178.400 294.729,178.400 296.343 C 178.400 297.914,178.012 299.200,177.538 299.200 C 176.494 299.200,172.000 303.584,172.000 304.603 C 172.000 305.003,171.100 305.811,170.000 306.400 C 168.900 306.989,168.000 307.950,168.000 308.535 C 168.000 309.121,167.460 309.600,166.800 309.600 C 165.778 309.600,165.600 311.733,165.600 324.000 C 165.600 336.267,165.778 338.400,166.800 338.400 C 167.460 338.400,168.000 338.940,168.000 339.600 C 168.000 340.615,169.911 340.800,180.400 340.800 C 190.889 340.800,192.800 340.615,192.800 339.600 C 192.800 338.603,194.356 338.400,202.000 338.400 C 207.600 338.400,211.200 338.087,211.200 337.600 C 211.200 337.160,211.931 336.800,212.825 336.800 C 213.719 336.800,214.657 336.260,214.911 335.600 C 215.211 334.818,216.455 334.400,218.486 334.400 C 220.721 334.400,221.600 334.061,221.600 333.200 C 221.600 332.540,222.140 332.000,222.800 332.000 C 223.547 332.000,224.000 331.244,224.000 330.000 C 224.000 328.400,224.400 328.000,226.000 328.000 C 227.791 328.000,228.000 327.674,228.000 324.886 C 228.000 322.855,228.418 321.611,229.200 321.311 C 229.860 321.057,230.400 320.119,230.400 319.225 C 230.400 317.330,231.620 317.056,232.289 318.800 C 232.642 319.720,234.157 320.000,238.775 320.000 C 242.258 320.000,244.800 320.337,244.800 320.800 C 244.800 321.283,248.133 321.600,253.200 321.600 C 260.133 321.600,261.600 321.810,261.600 322.800 C 261.600 323.844,265.244 324.000,289.600 324.000 C 313.956 324.000,317.600 323.844,317.600 322.800 C 317.600 321.893,318.578 321.600,321.600 321.600 C 323.800 321.600,325.600 321.240,325.600 320.800 C 325.600 320.360,327.411 320.000,329.625 320.000 C 332.465 320.000,333.786 319.647,334.111 318.800 C 334.390 318.072,335.600 317.600,337.188 317.600 C 338.627 317.600,340.252 317.060,340.800 316.400 C 341.348 315.740,342.472 315.200,343.298 315.200 C 344.124 315.200,344.800 314.840,344.800 314.400 C 344.800 313.960,345.700 313.600,346.800 313.600 C 348.044 313.600,348.800 313.147,348.800 312.400 C 348.800 311.533,349.689 311.200,352.000 311.200 C 353.760 311.200,355.200 310.840,355.200 310.400 C 355.200 309.960,356.471 309.600,358.025 309.600 C 359.798 309.600,361.022 309.153,361.311 308.400 C 361.564 307.740,362.633 307.200,363.686 307.200 C 364.854 307.200,365.600 306.732,365.600 306.000 C 365.600 305.253,366.356 304.800,367.600 304.800 C 368.700 304.800,369.600 304.440,369.600 304.000 C 369.600 303.560,370.500 303.200,371.600 303.200 C 372.844 303.200,373.600 302.747,373.600 302.000 C 373.600 301.133,374.489 300.800,376.800 300.800 C 378.560 300.800,380.000 300.465,380.000 300.056 C 380.000 299.646,380.810 299.196,381.800 299.056 C 383.535 298.809,383.608 298.460,383.825 289.400 L 384.051 280.000 378.825 280.000 C 375.875 280.000,373.600 279.652,373.600 279.200 C 373.600 278.749,371.333 278.400,368.400 278.400 C 364.311 278.400,363.200 278.144,363.200 277.200 C 363.200 276.256,362.089 276.000,358.000 276.000 C 355.140 276.000,352.800 275.679,352.800 275.287 C 352.800 274.894,351.900 274.348,350.800 274.071 C 349.700 273.795,348.800 273.216,348.800 272.785 C 348.800 272.353,347.399 272.000,345.686 272.000 C 343.655 272.000,342.411 271.582,342.111 270.800 C 341.857 270.140,340.919 269.600,340.025 269.600 C 339.131 269.600,338.400 269.240,338.400 268.800 C 338.400 268.360,337.500 268.000,336.400 268.000 C 335.156 268.000,334.400 267.547,334.400 266.800 C 334.400 266.140,333.899 265.600,333.286 265.600 C 332.673 265.600,331.964 265.060,331.711 264.400 C 331.395 263.578,330.109 263.200,327.625 263.200 C 324.292 263.200,324.000 263.039,324.000 261.200 C 324.000 259.400,323.680 259.200,320.800 259.200 L 317.600 259.200 317.600 245.686 C 317.600 234.411,317.401 232.095,316.400 231.711 C 315.740 231.457,315.200 230.519,315.200 229.625 C 315.200 228.301,314.681 228.000,312.400 228.000 C 310.860 228.000,309.600 227.640,309.600 227.200 C 309.600 226.760,308.160 226.400,306.400 226.400 C 303.438 226.400,301.746 224.655,303.943 223.867 C 304.763 223.573,304.958 218.897,304.863 201.800 L 304.800 190.400 302.800 190.400 C 301.700 190.400,300.800 190.040,300.800 189.600 C 300.800 189.160,299.360 188.800,297.600 188.800 C 294.578 188.800,294.400 188.667,294.400 186.400 C 294.400 184.800,294.800 184.000,295.600 184.000 C 296.260 184.000,296.800 183.640,296.800 183.200 C 296.800 182.760,297.340 182.400,298.000 182.400 C 298.660 182.400,299.200 181.945,299.200 181.390 C 299.200 180.834,300.100 179.704,301.200 178.878 C 303.165 177.402,303.200 177.181,303.200 166.288 L 303.200 155.200 298.886 155.200 C 295.789 155.200,294.441 154.861,294.111 154.000 C 293.857 153.340,292.930 152.800,292.049 152.800 C 290.543 152.800,290.435 152.195,290.224 142.600 L 290.000 132.400 286.200 132.156 C 284.110 132.022,282.400 131.572,282.400 131.156 C 282.400 130.740,280.960 130.400,279.200 130.400 L 276.000 130.400 276.000 127.200 C 276.000 124.889,275.667 124.000,274.800 124.000 C 273.893 124.000,273.600 123.022,273.600 120.000 C 273.600 117.800,273.240 116.000,272.800 116.000 C 272.360 116.000,272.000 114.189,272.000 111.975 C 272.000 109.135,271.647 107.814,270.800 107.489 C 269.960 107.167,269.600 105.856,269.600 103.114 C 269.600 100.961,269.240 99.200,268.800 99.200 C 268.360 99.200,268.000 97.929,268.000 96.375 C 268.000 94.602,267.553 93.378,266.800 93.089 C 266.140 92.836,265.600 91.767,265.600 90.714 C 265.600 89.546,265.132 88.800,264.400 88.800 C 263.533 88.800,263.200 87.911,263.200 85.600 C 263.200 83.840,262.840 82.400,262.400 82.400 C 261.960 82.400,261.600 81.500,261.600 80.400 C 261.600 79.156,261.147 78.400,260.400 78.400 C 259.656 78.400,259.200 77.646,259.200 76.415 C 259.200 74.965,258.661 74.295,257.200 73.929 C 256.100 73.652,255.200 73.106,255.200 72.713 C 255.200 72.321,252.320 72.000,248.800 72.000 C 244.782 72.000,242.400 71.681,242.400 71.143 C 242.400 70.060,240.375 68.000,239.310 68.000 C 238.868 68.000,238.392 67.010,238.253 65.800 C 238.022 63.790,237.676 63.579,234.250 63.358 C 231.087 63.154,230.461 62.841,230.250 61.358 C 230.073 60.114,229.357 59.526,227.800 59.347 C 226.590 59.208,225.600 58.758,225.600 58.347 C 225.600 57.936,223.800 57.600,221.600 57.600 C 218.578 57.600,217.600 57.307,217.600 56.400 C 217.600 55.653,216.844 55.200,215.600 55.200 C 214.500 55.200,213.600 54.879,213.600 54.487 C 213.600 54.094,212.700 53.548,211.600 53.271 C 210.500 52.995,209.600 52.416,209.600 51.985 C 209.600 51.553,208.160 51.200,206.400 51.200 C 204.089 51.200,203.200 50.867,203.200 50.000 C 203.200 49.079,202.178 48.800,198.800 48.800 C 196.380 48.800,194.400 48.440,194.400 48.000 C 194.400 47.501,189.733 47.200,182.000 47.200 C 174.267 47.200,169.600 47.501,169.600 48.000 M185.886 60.400 C 186.667 61.181,188.650 61.600,191.568 61.600 C 194.814 61.600,196.177 61.931,196.511 62.800 C 196.793 63.535,198.006 64.000,199.638 64.000 C 201.105 64.000,202.528 64.360,202.800 64.800 C 203.072 65.240,204.004 65.600,204.872 65.600 C 205.740 65.600,206.657 66.140,206.911 66.800 C 207.164 67.460,208.101 68.000,208.994 68.000 C 209.886 68.000,211.451 68.900,212.470 70.000 C 213.924 71.568,215.109 72.000,217.962 72.000 C 220.662 72.000,221.600 72.309,221.600 73.200 C 221.600 73.947,222.356 74.400,223.600 74.400 C 224.700 74.400,225.600 74.760,225.600 75.200 C 225.600 75.640,226.376 76.000,227.324 76.000 C 228.294 76.000,230.378 77.398,232.092 79.200 C 233.766 80.960,235.702 82.400,236.393 82.400 C 237.084 82.400,237.857 82.940,238.111 83.600 C 238.423 84.414,239.699 84.800,242.076 84.800 C 245.837 84.800,248.800 86.598,248.800 88.880 C 248.800 89.608,249.340 90.652,250.000 91.200 C 250.660 91.748,251.200 93.207,251.200 94.442 C 251.200 96.163,251.621 96.749,253.000 96.944 C 254.568 97.167,254.831 97.741,255.042 101.400 C 255.175 103.710,255.593 105.600,255.971 105.600 C 256.350 105.600,256.903 107.040,257.200 108.800 C 257.497 110.560,258.069 112.000,258.470 112.000 C 258.872 112.000,259.200 114.116,259.200 116.702 C 259.200 119.906,259.582 121.721,260.400 122.400 C 261.060 122.948,261.600 124.411,261.600 125.651 C 261.600 126.891,261.960 128.128,262.400 128.400 C 262.896 128.706,263.200 135.846,263.200 147.162 C 263.200 162.661,263.382 165.499,264.400 165.889 C 265.362 166.258,265.600 168.027,265.600 174.800 C 265.600 181.573,265.362 183.342,264.400 183.711 C 263.740 183.964,263.200 184.673,263.200 185.286 C 263.200 185.941,262.376 186.400,261.200 186.400 C 260.100 186.400,259.200 186.721,259.200 187.113 C 259.200 187.506,258.300 188.052,257.200 188.329 C 255.324 188.799,255.200 189.152,255.200 194.015 L 255.200 199.200 259.200 199.200 C 261.400 199.200,263.200 199.560,263.200 200.000 C 263.200 200.440,263.907 200.800,264.772 200.800 C 266.508 200.800,268.000 202.994,268.000 205.547 C 268.000 206.456,268.360 207.200,268.800 207.200 C 269.240 207.200,269.600 207.740,269.600 208.400 C 269.600 209.060,270.010 209.600,270.512 209.600 C 272.512 209.600,273.550 212.513,273.575 218.200 C 273.595 222.811,273.846 224.000,274.800 224.000 C 275.460 224.000,276.000 224.398,276.000 224.885 C 276.000 225.372,276.900 226.478,278.000 227.343 C 279.879 228.821,280.000 229.369,280.000 236.423 L 280.000 243.930 284.400 248.365 C 286.820 250.804,288.800 253.268,288.800 253.839 C 288.800 255.001,294.875 261.600,295.944 261.600 C 296.321 261.600,296.836 262.140,297.089 262.800 C 297.343 263.460,298.150 264.000,298.883 264.000 C 299.617 264.000,301.051 264.900,302.070 266.000 C 303.090 267.100,304.661 268.000,305.562 268.000 C 306.463 268.000,307.200 268.360,307.200 268.800 C 307.200 269.240,307.931 269.600,308.825 269.600 C 309.719 269.600,310.657 270.140,310.911 270.800 C 311.164 271.460,312.233 272.000,313.286 272.000 C 314.454 272.000,315.200 272.468,315.200 273.200 C 315.200 273.860,315.740 274.400,316.400 274.400 C 317.060 274.400,317.600 274.760,317.600 275.200 C 317.600 275.640,318.871 276.000,320.425 276.000 C 322.198 276.000,323.422 276.447,323.711 277.200 C 323.964 277.860,325.033 278.400,326.086 278.400 C 327.139 278.400,328.000 278.721,328.000 279.113 C 328.000 279.506,328.900 280.052,330.000 280.329 C 331.100 280.605,332.000 281.184,332.000 281.615 C 332.000 282.047,332.900 282.400,334.000 282.400 C 335.244 282.400,336.000 282.853,336.000 283.600 C 336.000 284.467,336.889 284.800,339.200 284.800 C 340.960 284.800,342.400 285.160,342.400 285.600 C 342.400 286.040,343.261 286.400,344.314 286.400 C 345.367 286.400,346.436 286.940,346.689 287.600 C 347.022 288.466,348.378 288.800,351.566 288.800 C 354.588 288.800,356.490 289.235,357.591 290.178 C 359.858 292.119,359.693 294.400,357.286 294.400 C 356.233 294.400,355.164 294.940,354.911 295.600 C 354.638 296.310,353.436 296.800,351.968 296.800 C 350.603 296.800,348.946 297.340,348.286 298.000 C 347.626 298.660,346.031 299.200,344.743 299.200 C 343.454 299.200,342.400 299.560,342.400 300.000 C 342.400 300.440,341.539 300.800,340.486 300.800 C 339.433 300.800,338.364 301.340,338.111 302.000 C 337.857 302.660,336.940 303.200,336.072 303.200 C 335.204 303.200,334.272 303.560,334.000 304.000 C 333.728 304.440,332.305 304.800,330.838 304.800 C 329.206 304.800,327.993 305.265,327.711 306.000 C 327.403 306.802,326.114 307.208,323.825 307.225 C 321.941 307.239,319.701 307.779,318.847 308.425 C 317.993 309.071,315.923 309.600,314.247 309.600 C 312.571 309.600,311.200 309.960,311.200 310.400 C 311.200 310.915,302.800 311.200,287.600 311.200 C 274.620 311.200,264.000 310.893,264.000 310.518 C 264.000 310.143,260.860 309.595,257.022 309.300 C 253.184 309.005,249.692 308.412,249.262 307.982 C 248.832 307.552,246.381 307.200,243.815 307.200 C 240.406 307.200,239.026 306.877,238.689 306.000 C 238.367 305.160,237.056 304.800,234.314 304.800 C 232.161 304.800,230.400 304.440,230.400 304.000 C 230.400 303.560,229.050 303.211,227.400 303.225 C 224.310 303.252,221.600 304.683,221.600 306.288 C 221.600 306.790,221.279 307.200,220.887 307.200 C 220.494 307.200,219.948 308.100,219.671 309.200 C 219.395 310.300,218.816 311.200,218.385 311.200 C 217.953 311.200,217.600 312.100,217.600 313.200 C 217.600 314.444,217.147 315.200,216.400 315.200 C 215.740 315.200,215.200 315.617,215.200 316.127 C 215.200 317.951,207.720 324.000,205.465 324.000 C 204.271 324.000,203.072 324.360,202.800 324.800 C 202.519 325.254,198.538 325.600,193.593 325.600 C 186.478 325.600,184.750 325.832,184.171 326.866 C 183.713 327.685,182.640 328.038,181.131 327.866 C 177.746 327.480,177.246 321.653,180.351 318.775 C 181.487 317.723,182.400 315.994,182.400 314.895 C 182.400 312.615,187.111 307.200,189.094 307.200 C 189.813 307.200,190.400 306.613,190.400 305.894 C 190.400 303.168,195.836 299.200,199.571 299.200 C 201.907 299.200,203.178 298.811,203.489 298.000 C 203.828 297.117,205.224 296.800,208.775 296.800 C 211.458 296.800,213.600 296.445,213.600 296.000 C 213.600 295.560,215.040 295.200,216.800 295.200 L 220.000 295.200 220.000 289.600 L 220.000 284.000 217.115 284.000 C 214.991 284.000,213.816 283.473,212.657 282.000 C 211.609 280.667,210.290 280.000,208.704 280.000 C 207.193 280.000,205.647 279.270,204.470 278.000 C 202.573 275.953,184.000 274.763,184.000 276.688 C 184.000 277.066,177.986 277.558,170.636 277.781 C 161.717 278.052,157.171 278.488,156.969 279.093 C 156.803 279.592,155.835 280.000,154.819 280.000 C 153.803 280.000,152.764 280.540,152.511 281.200 C 152.172 282.083,150.776 282.400,147.225 282.400 C 144.542 282.400,142.400 282.755,142.400 283.200 C 142.400 283.640,141.184 284.000,139.698 284.000 C 138.212 284.000,136.548 284.540,136.000 285.200 C 135.392 285.932,133.639 286.400,131.502 286.400 C 128.300 286.400,128.000 286.571,128.000 288.400 C 128.000 289.644,127.547 290.400,126.800 290.400 C 125.895 290.400,125.600 291.373,125.600 294.353 C 125.600 296.527,125.240 298.528,124.800 298.800 C 124.360 299.072,124.000 299.955,124.000 300.762 C 124.000 301.569,123.431 302.447,122.735 302.714 C 120.271 303.660,98.771 303.251,97.760 302.240 C 95.901 300.381,96.573 292.629,98.800 290.227 C 99.900 289.040,100.800 287.733,100.800 287.321 C 100.800 285.873,108.320 278.400,109.777 278.400 C 110.587 278.400,111.457 277.860,111.711 277.200 C 112.072 276.258,113.700 276.000,119.286 276.000 C 125.519 276.000,126.403 275.827,126.423 274.600 C 126.446 273.265,130.634 268.000,131.674 268.000 C 131.946 268.000,132.878 267.100,133.743 266.000 C 134.608 264.900,135.920 263.985,136.658 263.966 C 137.396 263.947,138.883 262.867,139.962 261.566 C 141.042 260.265,142.572 259.200,143.362 259.200 C 144.153 259.200,144.800 258.840,144.800 258.400 C 144.800 257.960,145.340 257.600,146.000 257.600 C 146.660 257.600,147.200 257.145,147.200 256.590 C 147.200 256.034,148.100 254.904,149.200 254.078 C 150.300 253.252,151.200 252.050,151.200 251.408 C 151.200 249.418,156.449 244.800,158.711 244.800 C 161.611 244.800,164.000 242.503,164.000 239.714 C 164.000 238.256,164.749 236.690,166.000 235.530 C 168.492 233.221,169.187 211.827,166.800 210.911 C 166.140 210.657,165.600 209.719,165.600 208.825 C 165.600 207.931,165.240 207.200,164.800 207.200 C 164.360 207.200,164.000 206.339,164.000 205.286 C 164.000 204.233,163.460 203.164,162.800 202.911 C 162.140 202.657,161.600 201.719,161.600 200.825 C 161.600 199.295,162.090 199.200,170.000 199.200 L 178.400 199.200 178.400 194.116 L 178.400 189.031 173.000 188.521 C 170.030 188.241,164.450 188.009,160.600 188.006 L 153.600 188.000 153.600 183.494 C 153.600 179.382,153.844 178.759,156.400 176.348 L 159.200 173.707 159.175 157.454 C 159.155 145.207,158.887 140.855,158.086 139.800 C 156.779 138.078,152.224 137.979,150.047 139.625 C 147.962 141.202,140.499 141.185,138.914 139.600 C 137.280 137.965,129.120 137.965,127.486 139.600 C 126.650 140.436,124.603 140.800,120.743 140.800 C 117.581 140.800,115.200 141.144,115.200 141.600 C 115.200 142.095,110.933 142.400,104.000 142.400 L 92.800 142.400 92.800 146.743 C 92.800 149.537,92.372 151.514,91.600 152.286 C 90.940 152.946,90.400 154.051,90.400 154.743 C 90.400 156.340,87.577 159.200,86.000 159.200 C 85.133 159.200,84.800 158.311,84.800 156.000 C 84.800 153.249,84.556 152.800,83.063 152.800 C 78.011 152.800,75.980 139.627,80.400 135.530 C 81.500 134.510,82.400 133.268,82.400 132.769 C 82.400 130.613,87.544 126.400,90.176 126.400 C 92.436 126.400,92.800 126.125,92.800 124.415 C 92.800 123.015,93.338 122.295,94.629 121.971 C 95.635 121.719,96.805 120.722,97.229 119.756 C 97.840 118.364,98.787 117.950,101.800 117.756 C 103.890 117.622,105.600 117.172,105.600 116.756 C 105.600 116.340,106.461 116.000,107.514 116.000 C 108.567 116.000,109.636 115.460,109.889 114.800 C 110.259 113.837,112.039 113.600,118.912 113.600 C 127.913 113.600,130.400 112.732,130.400 109.588 C 130.400 108.838,131.300 107.548,132.400 106.722 C 133.500 105.896,134.400 104.766,134.400 104.210 C 134.400 103.655,134.940 103.200,135.600 103.200 C 136.347 103.200,136.800 102.444,136.800 101.200 C 136.800 100.100,137.160 99.200,137.600 99.200 C 138.040 99.200,138.400 98.469,138.400 97.575 C 138.400 96.681,138.940 95.743,139.600 95.489 C 140.260 95.236,140.800 94.527,140.800 93.914 C 140.800 93.259,141.624 92.800,142.800 92.800 C 144.511 92.800,144.800 92.435,144.800 90.276 C 144.800 88.372,145.586 87.004,148.000 84.708 C 149.760 83.034,151.200 80.930,151.200 80.032 C 151.200 79.115,151.725 78.400,152.400 78.400 C 153.064 78.400,153.600 77.690,153.600 76.809 C 153.600 74.212,156.073 72.000,158.978 72.000 C 161.241 72.000,161.600 71.727,161.600 70.000 C 161.600 68.756,162.053 68.000,162.800 68.000 C 163.460 68.000,164.000 67.460,164.000 66.800 C 164.000 66.062,164.749 65.600,165.944 65.600 C 167.352 65.600,167.959 65.103,168.144 63.800 C 168.358 62.293,168.971 61.959,171.908 61.749 C 173.838 61.610,175.934 60.980,176.566 60.349 C 178.094 58.821,184.341 58.855,185.886 60.400 M147.200 164.400 C 147.200 165.060,146.660 165.600,146.000 165.600 C 145.340 165.600,144.800 166.140,144.800 166.800 C 144.800 169.053,142.584 168.019,142.229 165.600 C 141.898 163.344,142.036 163.200,144.539 163.200 C 146.371 163.200,147.200 163.574,147.200 164.400 M286.111 166.800 C 286.364 167.460,287.433 168.000,288.486 168.000 C 291.225 168.000,290.912 170.048,287.680 173.280 C 285.757 175.203,284.234 176.000,282.480 176.000 C 281.116 176.000,280.000 176.385,280.000 176.856 C 280.000 177.326,279.190 177.596,278.200 177.456 C 276.392 177.199,275.117 169.854,276.332 166.690 C 276.946 165.089,285.491 165.186,286.111 166.800 M291.253 201.628 C 293.293 202.720,293.571 215.114,291.600 217.086 C 290.940 217.746,290.400 219.056,290.400 219.998 C 290.400 222.443,286.899 221.900,286.544 219.400 C 286.404 218.410,285.954 217.600,285.544 217.600 C 285.135 217.600,284.800 215.299,284.800 212.486 C 284.800 208.677,284.494 207.254,283.600 206.911 C 282.141 206.351,281.981 201.902,283.400 201.330 C 285.186 200.609,289.666 200.779,291.253 201.628 M136.000 220.800 C 136.000 221.240,137.054 221.600,138.343 221.600 C 139.631 221.600,141.226 222.140,141.886 222.800 C 142.546 223.460,144.371 224.000,145.943 224.000 C 147.949 224.000,148.800 224.357,148.800 225.200 C 148.800 226.107,149.778 226.400,152.800 226.400 C 156.086 226.400,156.795 226.650,156.775 227.800 C 156.744 229.476,154.955 232.000,153.797 232.000 C 153.343 232.000,152.764 232.540,152.511 233.200 C 152.257 233.860,151.488 234.400,150.800 234.400 C 150.112 234.400,149.343 233.860,149.089 233.200 C 148.805 232.460,147.589 232.000,145.914 232.000 C 144.421 232.000,143.200 231.640,143.200 231.200 C 143.200 230.723,140.152 230.400,135.657 230.400 C 130.019 230.400,127.811 230.097,126.914 229.200 C 125.009 227.295,105.773 227.466,104.337 229.400 C 103.356 230.722,103.220 230.724,101.907 229.430 C 100.111 227.660,101.510 224.000,103.983 224.000 C 104.872 224.000,105.600 223.686,105.600 223.302 C 105.600 222.918,107.040 222.374,108.800 222.093 C 110.560 221.811,112.000 221.225,112.000 220.791 C 112.000 220.305,116.629 220.000,124.000 220.000 C 131.467 220.000,136.000 220.302,136.000 220.800 M192.600 222.487 C 191.390 223.795,190.400 225.429,190.400 226.117 C 190.400 226.806,189.500 228.078,188.400 228.943 C 186.962 230.074,186.400 231.286,186.400 233.258 C 186.400 235.162,186.033 236.000,185.200 236.000 C 184.540 236.000,184.000 236.356,184.000 236.791 C 184.000 238.158,181.304 240.800,179.909 240.800 C 179.152 240.800,178.356 241.666,178.071 242.800 C 177.795 243.900,177.216 244.800,176.785 244.800 C 175.391 244.800,175.840 252.567,177.265 253.114 C 179.576 254.001,184.472 253.617,186.047 252.425 C 188.997 250.194,201.845 250.759,203.678 253.200 C 204.691 254.550,205.963 255.204,207.590 255.214 C 209.104 255.223,210.700 255.966,211.884 257.214 C 214.094 259.543,220.852 260.063,222.857 258.057 C 225.518 255.397,223.374 248.800,219.849 248.800 C 219.175 248.800,217.948 247.900,217.122 246.800 C 216.052 245.375,214.862 244.800,212.985 244.800 C 211.381 244.800,210.170 244.331,209.889 243.600 C 209.636 242.940,208.927 242.400,208.314 242.400 C 207.701 242.400,207.200 242.040,207.200 241.600 C 207.200 241.160,205.429 240.800,203.265 240.800 C 197.226 240.800,193.886 236.958,197.911 234.640 C 198.522 234.288,199.155 233.280,199.317 232.400 C 199.857 229.478,209.665 230.647,211.067 233.800 C 211.659 235.134,221.787 234.448,222.886 233.000 C 225.717 229.271,223.577 224.000,219.232 224.000 C 217.764 224.000,216.562 223.510,216.289 222.800 C 215.989 222.018,214.745 221.600,212.714 221.600 C 211.001 221.600,209.600 221.240,209.600 220.800 C 209.600 218.561,194.881 220.022,192.600 222.487 M300.511 239.600 C 300.764 240.260,301.833 240.800,302.886 240.800 C 304.735 240.800,304.800 241.005,304.800 246.800 C 304.800 252.019,304.615 252.800,303.376 252.800 C 301.648 252.800,296.800 247.837,296.800 246.069 C 296.800 245.371,296.440 244.800,296.000 244.800 C 295.560 244.800,295.200 244.260,295.200 243.600 C 295.200 242.940,294.660 242.400,294.000 242.400 C 292.553 242.400,292.386 239.500,293.800 238.930 C 296.031 238.030,300.063 238.432,300.511 239.600 " stroke="none" fill="#000000" fill-rule="evenodd"></path><path id="path1" d="M179.411 59.774 C 180.627 59.958,182.427 59.953,183.411 59.763 C 184.395 59.573,183.400 59.423,181.200 59.429 C 179.000 59.435,178.195 59.590,179.411 59.774 M145.099 87.574 C 144.852 88.219,144.835 89.209,145.061 89.774 C 145.288 90.338,145.502 90.020,145.537 89.067 C 145.572 88.113,146.050 87.152,146.600 86.930 C 147.383 86.614,147.378 86.513,146.575 86.463 C 146.011 86.428,145.347 86.928,145.099 87.574 M252.952 97.295 C 253.695 97.517,254.459 98.581,254.649 99.659 C 254.952 101.374,254.983 101.344,254.897 99.417 C 254.828 97.839,254.346 97.168,253.200 97.053 C 252.045 96.937,251.976 97.004,252.952 97.295 M158.183 140.061 C 158.868 140.940,159.237 146.278,159.401 157.661 L 159.635 174.000 159.818 157.498 C 159.982 142.602,159.864 140.889,158.600 139.898 C 157.364 138.929,157.315 138.948,158.183 140.061 M119.000 140.579 C 120.430 140.756,122.770 140.756,124.200 140.579 C 125.630 140.401,124.460 140.256,121.600 140.256 C 118.740 140.256,117.570 140.401,119.000 140.579 M142.214 140.580 C 143.652 140.758,145.812 140.754,147.014 140.572 C 148.216 140.389,147.040 140.243,144.400 140.248 C 141.760 140.252,140.776 140.402,142.214 140.580 M92.240 147.200 C 92.240 149.620,92.390 150.610,92.573 149.400 C 92.756 148.190,92.756 146.210,92.573 145.000 C 92.390 143.790,92.240 144.780,92.240 147.200 M264.400 174.800 C 264.400 179.776,264.670 183.680,265.000 183.476 C 265.330 183.272,265.600 179.368,265.600 174.800 C 265.600 170.232,265.330 166.328,265.000 166.124 C 264.670 165.920,264.400 169.824,264.400 174.800 M276.533 166.133 C 275.798 166.868,275.858 176.617,276.600 177.079 C 276.930 177.284,277.079 174.932,276.931 171.852 L 276.663 166.251 281.457 166.525 C 284.094 166.676,286.084 166.530,285.879 166.200 C 285.417 165.458,277.267 165.399,276.533 166.133 M289.200 169.924 C 289.200 170.982,289.470 171.680,289.800 171.476 C 290.130 171.272,290.400 170.407,290.400 169.553 C 290.400 168.699,290.130 168.000,289.800 168.000 C 289.470 168.000,289.200 168.866,289.200 169.924 M173.011 188.574 C 174.227 188.758,176.027 188.753,177.011 188.563 C 177.995 188.373,177.000 188.223,174.800 188.229 C 172.600 188.235,171.795 188.390,173.011 188.574 M285.400 201.365 C 286.390 201.555,288.010 201.555,289.000 201.365 C 289.990 201.174,289.180 201.018,287.200 201.018 C 285.220 201.018,284.410 201.174,285.400 201.365 M291.994 209.036 L 292.388 216.400 292.628 209.674 C 292.761 205.975,292.583 202.662,292.234 202.311 C 291.885 201.960,291.777 204.986,291.994 209.036 M267.473 205.138 C 267.545 206.457,268.123 207.617,268.800 207.799 C 269.602 208.015,269.695 207.903,269.081 207.461 C 268.575 207.097,267.978 205.900,267.754 204.800 C 267.403 203.078,267.364 203.125,267.473 205.138 M198.600 219.788 C 200.690 219.953,204.110 219.953,206.200 219.788 C 208.290 219.623,206.580 219.488,202.400 219.488 C 198.220 219.488,196.510 219.623,198.600 219.788 M131.424 230.189 C 133.527 230.354,136.767 230.352,138.624 230.185 C 140.481 230.017,138.760 229.882,134.800 229.884 C 130.840 229.886,129.321 230.024,131.424 230.189 M197.112 235.542 C 196.871 236.170,196.808 237.520,196.972 238.542 C 197.191 239.909,197.376 239.607,197.674 237.400 C 198.093 234.294,197.871 233.562,197.112 235.542 M294.400 238.716 C 294.400 238.890,295.810 239.166,297.533 239.331 C 299.256 239.495,300.494 239.353,300.285 239.015 C 299.905 238.400,294.400 238.120,294.400 238.716 M200.200 240.573 C 201.410 240.756,203.390 240.756,204.600 240.573 C 205.810 240.390,204.820 240.240,202.400 240.240 C 199.980 240.240,198.990 240.390,200.200 240.573 M295.980 244.527 C 296.431 244.750,296.800 245.602,296.800 246.419 C 296.800 247.237,297.130 248.109,297.532 248.358 C 297.958 248.621,298.023 247.908,297.689 246.657 C 297.372 245.473,296.673 244.418,296.136 244.312 C 295.599 244.206,295.529 244.303,295.980 244.527 M216.211 259.774 C 217.427 259.958,219.227 259.953,220.211 259.763 C 221.195 259.573,220.200 259.423,218.000 259.429 C 215.800 259.435,214.995 259.590,216.211 259.774 M306.326 269.111 C 307.327 270.317,311.423 271.408,310.729 270.284 C 310.496 269.908,309.607 269.600,308.753 269.600 C 307.899 269.600,307.200 269.240,307.200 268.800 C 307.200 268.360,306.796 268.000,306.302 268.000 C 305.650 268.000,305.657 268.304,306.326 269.111 M192.609 275.766 C 193.604 275.957,195.044 275.950,195.809 275.750 C 196.574 275.549,195.760 275.393,194.000 275.402 C 192.240 275.411,191.614 275.574,192.609 275.766 M115.021 276.587 C 116.903 276.756,119.783 276.753,121.421 276.582 C 123.060 276.410,121.520 276.271,118.000 276.274 C 114.480 276.277,113.140 276.418,115.021 276.587 M319.200 276.309 C 319.200 276.479,320.261 276.774,321.558 276.964 C 322.855 277.155,323.733 277.016,323.511 276.655 C 323.114 276.014,319.200 275.700,319.200 276.309 M159.009 278.166 C 160.004 278.357,161.444 278.350,162.209 278.150 C 162.974 277.949,162.160 277.793,160.400 277.802 C 158.640 277.811,158.014 277.974,159.009 278.166 M148.400 281.600 L 144.400 282.149 148.153 282.274 C 150.217 282.343,152.128 282.040,152.400 281.600 C 152.672 281.160,152.783 280.857,152.647 280.926 C 152.511 280.995,150.600 281.298,148.400 281.600 M97.056 296.800 C 97.056 299.660,97.201 300.830,97.379 299.400 C 97.556 297.970,97.556 295.630,97.379 294.200 C 97.201 292.770,97.056 293.940,97.056 296.800 M101.824 302.989 C 103.927 303.154,107.167 303.152,109.024 302.985 C 110.881 302.817,109.160 302.682,105.200 302.684 C 101.240 302.686,99.721 302.824,101.824 302.989 M257.000 309.373 C 258.210 309.556,260.190 309.556,261.400 309.373 C 262.610 309.190,261.620 309.040,259.200 309.040 C 256.780 309.040,255.790 309.190,257.000 309.373 M312.600 309.365 C 313.590 309.555,315.210 309.555,316.200 309.365 C 317.190 309.174,316.380 309.018,314.400 309.018 C 312.420 309.018,311.610 309.174,312.600 309.365 " stroke="none" fill="#0f240f" fill-rule="evenodd"></path><path id="path2" d="M185.498 61.000 C 186.297 62.019,187.604 62.362,190.298 62.260 L 194.000 62.120 190.416 61.805 C 188.444 61.632,186.284 61.065,185.616 60.545 C 184.554 59.719,184.539 59.777,185.498 61.000 M171.000 62.165 C 171.990 62.355,173.610 62.355,174.600 62.165 C 175.590 61.974,174.780 61.818,172.800 61.818 C 170.820 61.818,170.010 61.974,171.000 62.165 M216.200 72.551 C 216.970 72.753,218.230 72.753,219.000 72.551 C 219.770 72.350,219.140 72.186,217.600 72.186 C 216.060 72.186,215.430 72.350,216.200 72.551 M114.209 114.166 C 115.204 114.357,116.644 114.350,117.409 114.150 C 118.174 113.949,117.360 113.793,115.600 113.802 C 113.840 113.811,113.214 113.974,114.209 114.166 M258.586 116.800 C 258.586 118.340,258.750 118.970,258.951 118.200 C 259.153 117.430,259.153 116.170,258.951 115.400 C 258.750 114.630,258.586 115.260,258.586 116.800 M262.735 144.800 C 262.735 153.380,262.853 156.890,262.996 152.600 C 263.140 148.310,263.140 141.290,262.996 137.000 C 262.853 132.710,262.735 136.220,262.735 144.800 M79.360 136.960 C 78.751 137.569,78.458 140.129,78.559 143.960 L 78.718 150.000 78.997 144.036 C 79.151 140.755,79.664 137.605,80.136 137.036 C 81.218 135.732,80.644 135.676,79.360 136.960 M114.800 140.800 C 114.528 141.240,113.517 141.642,112.553 141.693 C 111.222 141.763,111.134 141.873,112.185 142.149 C 112.947 142.348,114.377 141.946,115.363 141.256 C 116.349 140.565,116.737 140.000,116.225 140.000 C 115.713 140.000,115.072 140.360,114.800 140.800 M254.648 194.000 C 254.652 196.640,254.802 197.624,254.980 196.186 C 255.158 194.748,255.154 192.588,254.972 191.386 C 254.789 190.184,254.643 191.360,254.648 194.000 M165.800 199.783 C 167.450 199.955,170.150 199.955,171.800 199.783 C 173.450 199.610,172.100 199.469,168.800 199.469 C 165.500 199.469,164.150 199.610,165.800 199.783 M257.800 199.751 C 258.570 199.953,259.830 199.953,260.600 199.751 C 261.370 199.550,260.740 199.386,259.200 199.386 C 257.660 199.386,257.030 199.550,257.800 199.751 M272.986 215.200 C 272.986 216.740,273.150 217.370,273.351 216.600 C 273.553 215.830,273.553 214.570,273.351 213.800 C 273.150 213.030,272.986 213.660,272.986 215.200 M284.934 214.400 C 284.888 215.500,285.379 217.099,286.025 217.953 C 286.671 218.807,287.200 219.149,287.200 218.713 C 287.200 218.277,286.870 217.578,286.468 217.160 C 286.065 216.742,285.574 215.500,285.377 214.400 L 285.018 212.400 284.934 214.400 M168.292 222.800 C 168.294 227.200,168.429 228.898,168.591 226.573 C 168.753 224.248,168.751 220.648,168.587 218.573 C 168.423 216.498,168.290 218.400,168.292 222.800 M118.600 220.593 C 121.570 220.747,126.430 220.747,129.400 220.593 C 132.370 220.439,129.940 220.313,124.000 220.313 C 118.060 220.313,115.630 220.439,118.600 220.593 M111.400 227.791 C 113.930 227.950,118.070 227.950,120.600 227.791 C 123.130 227.632,121.060 227.503,116.000 227.503 C 110.940 227.503,108.870 227.632,111.400 227.791 M201.800 230.951 C 202.570 231.153,203.830 231.153,204.600 230.951 C 205.370 230.750,204.740 230.586,203.200 230.586 C 201.660 230.586,201.030 230.750,201.800 230.951 M279.469 236.000 C 279.469 239.300,279.610 240.650,279.783 239.000 C 279.955 237.350,279.955 234.650,279.783 233.000 C 279.610 231.350,279.469 232.700,279.469 236.000 M214.182 234.977 C 215.602 235.154,218.122 235.157,219.782 234.984 C 221.442 234.811,220.280 234.666,217.200 234.663 C 214.120 234.659,212.762 234.801,214.182 234.977 M304.140 247.733 C 304.057 250.175,303.591 252.032,303.000 252.270 C 302.217 252.586,302.222 252.687,303.025 252.737 C 304.477 252.826,304.949 251.123,304.590 247.092 L 304.280 243.600 304.140 247.733 M191.000 251.786 C 192.870 251.954,195.930 251.954,197.800 251.786 C 199.670 251.617,198.140 251.480,194.400 251.480 C 190.660 251.480,189.130 251.617,191.000 251.786 M310.263 271.311 C 311.262 272.640,315.508 273.946,314.729 272.684 C 314.496 272.308,313.679 272.000,312.913 272.000 C 312.147 272.000,311.015 271.550,310.399 271.000 C 309.455 270.158,309.433 270.208,310.263 271.311 M187.009 275.766 C 188.004 275.957,189.444 275.950,190.209 275.750 C 190.974 275.549,190.160 275.393,188.400 275.402 C 186.640 275.411,186.014 275.574,187.009 275.766 M197.800 275.751 C 198.570 275.953,199.830 275.953,200.600 275.751 C 201.370 275.550,200.740 275.386,199.200 275.386 C 197.660 275.386,197.030 275.550,197.800 275.751 M141.247 282.825 C 139.250 284.336,139.991 284.327,142.909 282.805 C 144.169 282.148,144.660 281.619,144.000 281.630 C 143.340 281.642,142.101 282.179,141.247 282.825 M220.240 289.600 C 220.240 292.020,220.390 293.010,220.573 291.800 C 220.756 290.590,220.756 288.610,220.573 287.400 C 220.390 286.190,220.240 287.180,220.240 289.600 M351.200 289.112 C 351.200 289.284,352.435 289.569,353.944 289.745 C 355.453 289.921,356.512 289.781,356.297 289.433 C 355.910 288.806,351.200 288.510,351.200 289.112 M213.960 295.954 C 213.542 296.369,211.220 296.842,208.800 297.006 L 204.400 297.304 208.902 297.452 C 212.071 297.556,213.699 297.245,214.400 296.400 C 215.494 295.081,215.170 294.753,213.960 295.954 M242.209 306.966 C 243.204 307.157,244.644 307.150,245.409 306.950 C 246.174 306.749,245.360 306.593,243.600 306.602 C 241.840 306.611,241.214 306.774,242.209 306.966 M276.648 310.998 C 282.945 311.134,293.025 311.133,299.048 310.998 C 305.072 310.862,299.920 310.751,287.600 310.752 C 275.280 310.752,270.352 310.863,276.648 310.998 M178.586 324.000 C 178.586 325.540,178.750 326.170,178.951 325.400 C 179.153 324.630,179.153 323.370,178.951 322.600 C 178.750 321.830,178.586 322.460,178.586 324.000 M194.200 325.379 C 195.630 325.556,197.970 325.556,199.400 325.379 C 200.830 325.201,199.660 325.056,196.800 325.056 C 193.940 325.056,192.770 325.201,194.200 325.379 " stroke="none" fill="#194019" fill-rule="evenodd"></path><path id="path3" d="M176.737 61.400 C 175.835 62.591,175.845 62.651,176.799 61.800 C 177.415 61.250,179.396 60.800,181.200 60.800 C 183.004 60.800,184.985 61.250,185.601 61.800 C 186.555 62.651,186.565 62.591,185.663 61.400 C 184.946 60.452,183.505 60.000,181.200 60.000 C 178.895 60.000,177.454 60.452,176.737 61.400 M168.252 63.800 C 167.978 64.570,167.573 65.526,167.353 65.924 C 167.133 66.322,167.368 66.390,167.876 66.076 C 168.384 65.762,168.800 65.009,168.800 64.401 C 168.800 63.714,169.933 63.178,171.800 62.983 L 174.800 62.669 171.775 62.534 C 169.537 62.435,168.620 62.764,168.252 63.800 M189.811 62.974 C 191.027 63.158,192.827 63.153,193.811 62.963 C 194.795 62.773,193.800 62.623,191.600 62.629 C 189.400 62.635,188.595 62.790,189.811 62.974 M197.000 64.551 C 197.770 64.753,199.030 64.753,199.800 64.551 C 200.570 64.350,199.940 64.186,198.400 64.186 C 196.860 64.186,196.230 64.350,197.000 64.551 M202.040 65.665 C 202.574 66.528,207.952 69.120,208.348 68.705 C 208.508 68.537,207.058 67.629,205.126 66.687 C 203.193 65.744,201.805 65.285,202.040 65.665 M163.596 68.005 C 161.551 70.265,162.421 70.475,164.571 68.240 C 165.546 67.228,166.051 66.400,165.695 66.400 C 165.339 66.400,164.394 67.122,163.596 68.005 M211.139 70.695 C 212.206 71.853,213.646 72.758,214.339 72.707 C 215.340 72.634,215.311 72.539,214.200 72.249 C 213.430 72.047,212.800 71.636,212.800 71.334 C 212.800 71.032,211.990 70.291,211.000 69.687 C 209.263 68.628,209.268 68.664,211.139 70.695 M155.215 74.600 C 153.213 77.682,151.958 80.225,152.281 80.548 C 152.451 80.718,153.188 79.597,153.919 78.057 C 154.650 76.517,156.037 74.704,157.002 74.029 C 158.187 73.199,158.371 72.800,157.570 72.800 C 156.918 72.800,155.859 73.610,155.215 74.600 M218.400 73.335 C 219.730 73.788,224.860 76.019,225.800 76.553 C 226.130 76.741,226.400 76.702,226.400 76.466 C 226.400 75.776,219.819 72.794,218.450 72.863 C 217.376 72.917,217.369 72.984,218.400 73.335 M230.800 80.000 C 232.519 81.760,234.105 83.200,234.325 83.200 C 234.545 83.200,233.319 81.760,231.600 80.000 C 229.881 78.240,228.295 76.800,228.075 76.800 C 227.855 76.800,229.081 78.240,230.800 80.000 M147.800 86.034 C 146.590 87.456,145.600 89.362,145.600 90.270 C 145.600 91.178,144.970 92.287,144.200 92.736 C 142.958 93.459,142.948 93.554,144.114 93.576 C 145.467 93.601,146.400 92.050,146.400 89.778 C 146.400 89.068,147.364 87.482,148.542 86.252 C 149.720 85.023,150.530 83.889,150.342 83.733 C 150.154 83.577,149.010 84.612,147.800 86.034 M237.091 84.405 C 238.352 85.062,240.512 85.612,241.891 85.627 C 244.596 85.655,248.000 87.963,248.000 89.768 C 248.000 90.380,248.332 91.222,248.738 91.640 C 249.145 92.058,249.595 93.480,249.738 94.800 C 249.907 96.348,250.626 97.475,251.762 97.973 C 252.884 98.466,253.637 99.628,253.834 101.173 L 254.144 103.600 254.272 100.980 C 254.375 98.862,254.017 98.215,252.400 97.600 C 250.887 97.025,250.400 96.262,250.400 94.467 C 250.400 93.162,250.040 91.872,249.600 91.600 C 249.160 91.328,248.800 90.508,248.800 89.778 C 248.800 87.499,244.855 84.800,241.523 84.800 C 239.857 84.800,238.272 84.440,238.000 84.000 C 237.728 83.560,236.897 83.202,236.153 83.205 C 235.297 83.208,235.642 83.649,237.091 84.405 M140.442 95.154 C 139.669 96.008,139.224 97.178,139.455 97.754 C 139.777 98.559,139.888 98.539,139.937 97.663 C 139.972 97.038,140.596 95.868,141.324 95.063 C 142.052 94.258,142.468 93.600,142.248 93.600 C 142.028 93.600,141.215 94.299,140.442 95.154 M137.760 100.160 C 137.232 100.688,136.800 101.525,136.800 102.021 C 136.800 102.516,135.900 103.767,134.800 104.800 C 133.700 105.833,132.800 106.989,132.800 107.367 C 132.800 108.212,136.822 103.476,138.207 101.000 C 139.331 98.990,139.192 98.728,137.760 100.160 M256.186 109.600 C 256.186 111.140,256.350 111.770,256.551 111.000 C 256.753 110.230,256.753 108.970,256.551 108.200 C 256.350 107.430,256.186 108.060,256.186 109.600 M129.629 112.365 C 129.012 113.109,126.735 113.631,123.331 113.808 L 118.000 114.087 123.276 114.243 C 127.660 114.373,128.797 114.129,130.000 112.800 C 130.796 111.920,131.256 111.200,131.022 111.200 C 130.788 111.200,130.161 111.724,129.629 112.365 M257.802 115.600 C 257.811 117.360,257.974 117.986,258.166 116.991 C 258.357 115.996,258.350 114.556,258.150 113.791 C 257.949 113.026,257.793 113.840,257.802 115.600 M108.800 115.667 C 107.567 116.351,107.276 116.781,108.040 116.788 C 108.722 116.795,109.622 116.464,110.040 116.053 C 110.458 115.643,112.240 115.163,114.000 114.988 L 117.200 114.669 114.000 114.613 C 112.240 114.582,109.900 115.056,108.800 115.667 M97.852 119.800 C 97.578 120.570,97.173 121.526,96.953 121.924 C 96.733 122.322,96.968 122.390,97.476 122.076 C 97.984 121.762,98.400 121.010,98.400 120.403 C 98.400 119.760,99.481 119.167,101.000 118.979 L 103.600 118.656 100.975 118.528 C 99.121 118.438,98.203 118.811,97.852 119.800 M258.493 120.553 C 258.442 121.517,258.760 122.528,259.200 122.800 C 259.640 123.072,260.000 124.281,260.000 125.487 C 260.000 126.693,260.334 128.022,260.743 128.440 C 261.152 128.858,261.634 130.460,261.815 132.000 L 262.144 134.800 262.272 131.847 C 262.342 130.223,262.040 128.672,261.600 128.400 C 261.160 128.128,260.800 126.919,260.800 125.713 C 260.800 124.507,260.475 123.178,260.078 122.760 C 259.680 122.342,259.182 121.280,258.970 120.400 C 258.615 118.920,258.579 118.932,258.493 120.553 M93.760 123.360 C 93.232 123.888,92.800 124.762,92.800 125.301 C 92.800 125.841,92.170 126.447,91.400 126.649 C 90.083 126.993,90.085 127.020,91.420 127.107 C 92.234 127.160,93.150 126.383,93.568 125.284 C 93.969 124.230,94.770 123.178,95.348 122.947 C 95.927 122.716,96.022 122.498,95.560 122.463 C 95.098 122.428,94.288 122.832,93.760 123.360 M85.233 129.612 C 83.931 130.888,83.031 132.069,83.233 132.236 C 83.435 132.402,84.845 131.338,86.367 129.869 C 87.889 128.401,88.789 127.221,88.367 127.246 C 87.945 127.271,86.535 128.336,85.233 129.612 M79.359 143.506 C 79.196 149.969,80.508 152.800,83.664 152.800 C 84.224 152.800,84.847 153.430,85.049 154.200 C 85.393 155.517,85.420 155.515,85.507 154.180 C 85.559 153.382,84.797 152.455,83.767 152.064 C 80.757 150.919,80.091 149.426,79.797 143.164 L 79.518 137.200 79.359 143.506 M132.800 138.166 C 135.660 138.308,138.739 138.801,139.641 139.262 C 140.544 139.723,143.064 139.963,145.241 139.795 L 149.200 139.488 144.647 139.344 C 142.143 139.265,139.872 138.840,139.600 138.400 C 139.328 137.960,136.517 137.669,133.353 137.754 L 127.600 137.908 132.800 138.166 M150.115 138.215 C 149.906 138.553,151.181 138.692,152.948 138.523 C 154.716 138.354,157.026 138.679,158.081 139.243 L 160.000 140.270 160.183 157.135 L 160.366 174.000 160.600 157.216 C 160.832 140.578,160.818 140.420,159.017 139.034 C 157.184 137.623,150.841 137.039,150.115 138.215 M121.600 139.200 L 116.400 139.724 121.353 139.862 C 124.077 139.938,126.528 139.640,126.800 139.200 C 127.072 138.760,127.183 138.462,127.047 138.538 C 126.911 138.614,124.460 138.912,121.600 139.200 M91.733 142.133 C 91.440 142.427,91.200 144.350,91.200 146.408 C 91.200 150.414,88.116 157.361,86.497 157.000 C 86.004 156.890,85.600 157.160,85.600 157.600 C 85.600 158.770,86.857 158.577,87.970 157.237 C 90.307 154.421,92.000 149.807,92.000 146.255 L 92.000 142.449 101.800 142.198 L 111.600 141.946 101.933 141.773 C 96.617 141.678,92.027 141.840,91.733 142.133 M262.528 162.553 C 262.458 164.177,262.760 165.728,263.200 166.000 C 263.647 166.276,264.000 170.027,264.000 174.504 C 264.000 182.529,263.577 183.913,260.786 185.008 C 259.790 185.399,259.804 185.484,260.876 185.537 C 264.274 185.705,266.994 168.964,264.057 165.960 C 263.648 165.542,263.166 163.940,262.985 162.400 L 262.656 159.600 262.528 162.553 M277.129 167.495 C 276.898 168.098,276.843 170.528,277.007 172.895 L 277.304 177.200 277.452 172.200 L 277.600 167.200 281.153 167.200 C 283.107 167.200,284.928 167.560,285.200 168.000 C 285.472 168.440,286.393 168.800,287.247 168.800 C 289.234 168.800,289.212 169.656,287.169 171.849 C 286.272 172.812,285.870 173.600,286.277 173.600 C 287.376 173.600,289.742 169.677,289.186 168.777 C 288.922 168.350,288.028 168.000,287.200 168.000 C 286.372 168.000,285.472 167.640,285.200 167.200 C 284.433 165.958,277.624 166.207,277.129 167.495 M154.560 179.360 C 154.032 179.888,153.663 181.958,153.740 183.960 L 153.880 187.600 154.195 184.016 C 154.368 182.044,154.889 179.974,155.353 179.416 C 156.422 178.127,155.834 178.086,154.560 179.360 M256.600 186.929 C 255.390 187.566,254.428 188.518,254.463 189.044 C 254.509 189.739,254.636 189.727,254.930 189.000 C 255.152 188.450,255.799 188.000,256.369 188.000 C 256.938 188.000,257.852 187.460,258.400 186.800 C 259.564 185.398,259.497 185.403,256.600 186.929 M160.600 187.794 C 163.790 187.946,169.010 187.946,172.200 187.794 C 175.390 187.642,172.780 187.518,166.400 187.518 C 160.020 187.518,157.410 187.642,160.600 187.794 M178.554 193.347 C 178.404 198.956,178.347 199.102,176.200 199.427 L 174.000 199.760 176.225 199.880 C 179.001 200.030,179.354 199.115,178.995 192.716 L 178.708 187.600 178.554 193.347 M162.400 200.411 C 162.400 200.810,163.547 203.162,164.929 205.600 C 165.304 206.260,165.821 207.340,166.078 208.000 C 166.335 208.660,166.854 209.920,167.231 210.800 C 167.609 211.680,168.074 213.120,168.266 214.000 C 168.575 215.419,168.625 215.396,168.707 213.789 C 168.758 212.793,168.466 211.353,168.058 210.589 C 167.651 209.825,167.113 208.660,166.863 208.000 C 166.614 207.340,166.104 206.260,165.729 205.600 C 162.935 200.674,162.839 200.904,167.818 200.591 L 172.400 200.303 167.400 200.151 C 164.650 200.068,162.400 200.185,162.400 200.411 M260.000 200.577 C 261.100 200.774,262.342 201.265,262.760 201.668 C 263.178 202.070,264.168 202.400,264.960 202.400 C 265.983 202.400,266.400 203.012,266.400 204.511 C 266.400 205.861,267.553 207.871,269.600 210.093 C 271.360 212.002,272.800 213.283,272.800 212.939 C 272.800 212.595,271.540 211.093,270.000 209.600 C 268.097 207.755,267.200 206.160,267.200 204.618 C 267.200 203.156,266.702 202.196,265.800 201.916 C 265.030 201.678,263.775 201.149,263.011 200.742 C 262.247 200.334,260.807 200.049,259.811 200.109 C 258.128 200.210,258.141 200.243,260.000 200.577 M283.169 202.961 C 282.236 204.191,282.240 204.254,283.199 203.400 C 283.815 202.850,285.894 202.400,287.817 202.400 L 291.314 202.400 291.057 209.564 C 290.916 213.504,291.085 216.440,291.434 216.089 C 291.783 215.738,291.963 212.425,291.834 208.726 L 291.600 202.000 287.930 201.761 C 285.143 201.580,283.997 201.869,283.169 202.961 M285.018 209.600 C 285.018 211.580,285.174 212.390,285.365 211.400 C 285.555 210.410,285.555 208.790,285.365 207.800 C 285.174 206.810,285.018 207.620,285.018 209.600 M272.934 220.273 C 272.827 222.730,273.353 223.992,275.564 226.575 C 277.946 229.358,278.368 230.483,278.610 234.703 L 278.892 239.600 279.046 234.744 C 279.188 230.266,278.987 229.639,276.457 226.683 C 274.615 224.532,273.607 222.446,273.391 220.339 L 273.069 217.200 272.934 220.273 M289.294 219.221 C 288.736 221.103,288.672 221.121,288.010 219.600 C 287.440 218.293,287.302 218.248,287.256 219.353 C 287.225 220.097,287.519 220.903,287.909 221.144 C 288.864 221.734,290.636 219.509,290.216 218.248 C 290.031 217.694,289.616 218.132,289.294 219.221 M201.994 218.998 C 205.951 219.147,209.533 219.613,209.954 220.034 C 210.375 220.455,211.077 220.800,211.513 220.800 C 211.949 220.800,211.607 220.271,210.753 219.625 C 209.617 218.766,207.266 218.488,202.000 218.590 L 194.800 218.729 201.994 218.998 M169.029 223.600 C 169.035 225.800,169.190 226.605,169.374 225.389 C 169.558 224.173,169.553 222.373,169.363 221.389 C 169.173 220.405,169.023 221.400,169.029 223.600 M191.203 221.997 C 190.171 223.095,189.478 224.123,189.664 224.281 C 189.849 224.438,190.976 223.540,192.168 222.284 C 193.361 221.028,194.054 220.000,193.708 220.000 C 193.362 220.000,192.235 220.899,191.203 221.997 M118.200 221.394 C 121.390 221.546,126.610 221.546,129.800 221.394 C 132.990 221.242,130.380 221.118,124.000 221.118 C 117.620 221.118,115.010 221.242,118.200 221.394 M213.600 221.322 C 214.260 221.539,215.556 222.083,216.481 222.530 C 217.405 222.977,219.025 223.180,220.081 222.980 C 221.643 222.685,221.525 222.598,219.447 222.509 C 218.043 222.449,216.672 222.040,216.400 221.600 C 216.128 221.160,215.117 220.828,214.153 220.863 C 213.046 220.903,212.842 221.072,213.600 221.322 M105.600 223.989 C 104.940 224.372,103.770 224.879,103.000 225.117 C 101.543 225.567,101.067 228.376,102.317 229.149 C 102.711 229.392,104.061 229.056,105.317 228.401 C 106.765 227.645,107.105 227.208,106.247 227.205 C 105.503 227.202,104.672 227.560,104.400 228.000 C 103.564 229.353,102.400 228.887,102.400 227.200 C 102.400 226.168,102.933 225.600,103.902 225.600 C 104.728 225.600,105.852 225.060,106.400 224.400 C 107.514 223.057,107.352 222.974,105.600 223.989 M142.089 224.145 C 142.312 224.505,143.509 224.800,144.749 224.800 C 145.989 224.800,147.452 225.340,148.000 226.000 C 148.580 226.699,150.326 227.200,152.184 227.200 C 154.688 227.200,155.273 227.457,154.911 228.400 C 154.657 229.060,154.825 229.600,155.284 229.600 C 157.934 229.600,155.264 226.774,152.393 226.541 C 150.637 226.398,148.660 225.812,148.000 225.238 C 146.664 224.077,141.451 223.112,142.089 224.145 M222.400 223.800 C 222.400 224.298,222.760 224.928,223.200 225.200 C 223.640 225.472,224.000 227.272,224.000 229.200 C 224.000 231.128,223.640 232.928,223.200 233.200 C 222.760 233.472,222.400 234.102,222.400 234.600 C 222.400 235.098,222.929 234.807,223.575 233.953 C 224.221 233.099,224.749 230.960,224.749 229.200 C 224.749 227.440,224.221 225.301,223.575 224.447 C 222.929 223.593,222.400 223.302,222.400 223.800 M112.600 226.986 C 114.470 227.154,117.530 227.154,119.400 226.986 C 121.270 226.817,119.740 226.680,116.000 226.680 C 112.260 226.680,110.730 226.817,112.600 226.986 M188.400 227.012 C 187.960 227.336,187.071 228.320,186.424 229.200 C 185.556 230.382,185.817 230.293,187.424 228.861 C 189.382 227.115,189.978 226.377,189.400 226.412 C 189.290 226.419,188.840 226.689,188.400 227.012 M131.424 229.389 C 133.527 229.554,136.767 229.552,138.624 229.385 C 140.481 229.217,138.760 229.082,134.800 229.084 C 130.840 229.086,129.321 229.224,131.424 229.389 M152.577 231.766 C 151.510 232.832,151.000 232.920,150.246 232.166 C 149.715 231.635,148.542 231.242,147.640 231.293 C 146.033 231.384,146.032 231.394,147.600 231.779 C 148.480 231.995,149.670 232.554,150.244 233.020 C 151.013 233.646,151.742 233.413,153.021 232.134 C 153.975 231.180,154.573 230.400,154.349 230.400 C 154.126 230.400,153.328 231.015,152.577 231.766 M168.186 232.800 C 168.186 234.340,168.350 234.970,168.551 234.200 C 168.753 233.430,168.753 232.170,168.551 231.400 C 168.350 230.630,168.186 231.260,168.186 232.800 M184.909 232.917 C 184.840 234.251,183.754 235.953,181.972 237.517 C 180.417 238.883,179.446 240.000,179.815 240.000 C 181.548 240.000,185.722 234.515,185.377 232.692 C 185.036 230.893,185.013 230.904,184.909 232.917 M202.400 231.766 C 204.732 232.024,208.750 233.447,211.400 234.953 C 211.730 235.141,212.000 235.102,212.000 234.866 C 212.000 233.801,205.014 231.213,202.450 231.328 L 199.600 231.456 202.400 231.766 M198.428 235.547 C 196.662 238.848,197.791 240.020,202.575 239.852 L 206.800 239.704 202.600 239.410 C 198.251 239.106,197.074 237.646,199.347 235.373 C 199.867 234.853,200.108 234.241,199.881 234.015 C 199.655 233.788,199.001 234.478,198.428 235.547 M215.400 235.773 C 216.610 235.956,218.590 235.956,219.800 235.773 C 221.010 235.590,220.020 235.440,217.600 235.440 C 215.180 235.440,214.190 235.590,215.400 235.773 M164.960 237.760 C 164.432 238.288,164.049 239.638,164.109 240.760 L 164.218 242.800 164.586 240.800 C 164.788 239.700,165.323 238.350,165.775 237.800 C 166.823 236.524,166.225 236.495,164.960 237.760 M293.960 240.065 C 293.666 240.541,294.365 241.910,295.513 243.109 C 296.661 244.307,297.600 245.653,297.600 246.100 C 297.600 247.404,302.036 252.002,303.271 251.979 C 303.892 251.967,303.412 251.345,302.205 250.596 C 300.997 249.847,299.484 248.128,298.842 246.775 C 298.200 245.422,296.938 243.649,296.037 242.834 C 295.137 242.019,294.400 241.048,294.400 240.676 C 294.400 239.722,299.001 239.831,299.600 240.800 C 299.872 241.240,300.502 241.600,301.000 241.600 C 301.498 241.600,301.207 241.071,300.353 240.425 C 298.525 239.043,294.724 238.829,293.960 240.065 M176.392 242.703 C 175.573 244.431,175.198 246.957,175.355 249.703 L 175.600 254.000 180.719 254.241 C 183.572 254.376,186.210 254.110,186.679 253.641 C 188.313 252.007,200.670 252.613,203.477 254.466 L 206.000 256.132 203.600 254.070 C 201.048 251.878,187.981 250.890,186.800 252.800 C 186.528 253.240,183.987 253.600,181.153 253.600 L 176.000 253.600 176.000 248.847 C 176.000 246.233,176.317 243.899,176.703 243.660 C 177.402 243.228,178.513 240.000,177.963 240.000 C 177.804 240.000,177.098 241.216,176.392 242.703 M208.739 241.824 C 209.806 243.021,211.426 243.958,212.339 243.907 C 213.950 243.817,213.952 243.802,212.400 243.415 C 211.520 243.195,210.620 242.787,210.400 242.507 C 210.180 242.228,209.280 241.471,208.400 240.824 C 207.218 239.956,207.307 240.217,208.739 241.824 M279.293 242.902 C 279.242 243.838,279.830 245.098,280.600 245.702 C 281.818 246.657,281.881 246.644,281.086 245.600 C 280.583 244.940,279.995 243.680,279.779 242.800 C 279.405 241.280,279.381 241.285,279.293 242.902 M217.200 245.930 C 218.520 247.064,219.930 247.994,220.333 247.996 C 221.201 248.001,221.192 247.993,217.600 245.675 L 214.800 243.868 217.200 245.930 M154.357 248.600 L 151.600 251.600 154.400 249.098 C 155.940 247.722,157.740 246.401,158.400 246.161 C 159.438 245.785,159.432 245.718,158.357 245.663 C 157.673 245.628,155.873 246.950,154.357 248.600 M282.400 247.439 C 282.400 247.717,283.437 249.127,284.704 250.572 C 285.972 252.017,287.190 253.920,287.412 254.800 L 287.814 256.400 287.874 254.800 C 287.907 253.920,286.688 251.790,285.167 250.067 C 283.645 248.343,282.400 247.161,282.400 247.439 M222.684 249.356 C 223.772 250.643,224.092 252.065,223.884 254.680 C 223.728 256.642,223.870 258.080,224.200 257.876 C 225.661 256.973,224.793 250.642,223.000 249.124 L 221.200 247.600 222.684 249.356 M148.040 256.358 L 144.480 260.400 148.401 256.628 C 150.558 254.554,152.160 252.735,151.961 252.586 C 151.763 252.437,149.998 254.135,148.040 256.358 M208.324 256.575 C 209.162 256.790,210.778 257.828,211.916 258.883 C 213.976 260.793,221.720 261.741,222.679 260.200 C 222.884 259.870,221.014 259.718,218.523 259.861 C 214.513 260.092,213.772 259.886,212.057 258.061 C 210.992 256.928,209.374 256.042,208.461 256.093 C 206.942 256.178,206.930 256.219,208.324 256.575 M140.911 261.627 C 138.431 263.693,139.551 263.669,142.182 261.600 C 143.300 260.720,143.897 260.012,143.508 260.027 C 143.119 260.041,141.950 260.761,140.911 261.627 M296.018 263.621 C 296.556 264.270,297.429 264.800,297.959 264.800 C 298.488 264.800,299.767 265.700,300.800 266.800 C 301.833 267.900,303.032 268.800,303.464 268.800 C 304.566 268.800,300.068 264.991,297.320 263.598 C 295.314 262.582,295.157 262.584,296.018 263.621 M134.600 265.927 C 133.610 266.971,132.800 268.097,132.800 268.430 C 132.800 268.762,133.635 268.133,134.655 267.032 C 135.676 265.931,137.026 264.827,137.655 264.578 C 138.614 264.200,138.605 264.118,137.600 264.077 C 136.940 264.050,135.590 264.882,134.600 265.927 M129.521 271.117 C 128.378 272.291,127.008 274.140,126.477 275.226 C 125.555 277.111,125.569 277.128,126.771 275.600 C 127.464 274.720,128.968 272.995,130.115 271.766 C 132.801 268.887,132.265 268.301,129.521 271.117 M306.002 269.604 C 306.239 269.986,307.511 270.837,308.829 271.495 C 310.148 272.153,311.034 272.378,310.798 271.996 C 310.561 271.614,309.289 270.763,307.971 270.105 C 306.652 269.447,305.766 269.222,306.002 269.604 M315.550 275.000 C 317.311 276.949,318.513 277.570,320.350 277.480 L 322.800 277.360 320.400 277.018 C 319.080 276.830,316.920 275.714,315.600 274.538 L 313.200 272.400 315.550 275.000 M190.200 274.986 C 192.070 275.154,195.130 275.154,197.000 274.986 C 198.870 274.817,197.340 274.680,193.600 274.680 C 189.860 274.680,188.330 274.817,190.200 274.986 M202.400 275.765 C 203.060 276.006,204.378 276.910,205.329 277.774 C 206.279 278.638,207.719 279.174,208.529 278.965 C 209.803 278.636,209.776 278.573,208.324 278.493 C 207.402 278.442,205.996 277.680,205.200 276.800 C 204.404 275.920,203.178 275.228,202.476 275.263 C 201.393 275.317,201.382 275.393,202.400 275.765 M110.400 278.408 C 108.860 279.196,106.701 280.867,105.603 282.121 L 103.606 284.400 106.003 282.297 C 109.714 279.041,113.500 277.673,119.600 277.381 L 125.200 277.113 119.200 277.044 C 114.898 276.994,112.408 277.380,110.400 278.408 M163.400 277.395 C 166.810 277.545,172.390 277.545,175.800 277.395 C 179.210 277.245,176.420 277.122,169.600 277.122 C 162.780 277.122,159.990 277.245,163.400 277.395 M153.800 279.225 C 151.121 280.302,151.622 280.849,154.400 279.880 C 155.720 279.420,156.800 278.899,156.800 278.722 C 156.800 278.247,155.826 278.410,153.800 279.225 M210.467 279.400 C 210.650 279.510,211.880 280.500,213.200 281.600 L 215.600 283.600 213.661 281.400 C 212.594 280.190,211.364 279.200,210.927 279.200 C 210.491 279.200,210.283 279.290,210.467 279.400 M326.802 280.004 C 327.039 280.386,328.311 281.237,329.629 281.895 C 330.948 282.553,331.834 282.778,331.598 282.396 C 331.361 282.014,330.089 281.163,328.771 280.505 C 327.452 279.847,326.566 279.622,326.802 280.004 M145.811 281.374 C 147.027 281.558,148.827 281.553,149.811 281.363 C 150.795 281.173,149.800 281.023,147.600 281.029 C 145.400 281.035,144.595 281.190,145.811 281.374 M135.600 284.000 C 135.328 284.440,133.957 284.849,132.553 284.909 C 130.475 284.998,130.357 285.085,131.919 285.380 C 132.975 285.580,134.595 285.369,135.519 284.913 C 136.444 284.456,137.920 283.926,138.800 283.734 C 139.989 283.475,139.848 283.362,138.247 283.293 C 137.063 283.242,135.872 283.560,135.600 284.000 M334.759 284.440 C 336.056 285.116,337.856 285.523,338.759 285.344 C 340.006 285.096,339.884 284.992,338.247 284.909 C 337.063 284.849,335.872 284.440,335.600 284.000 C 335.328 283.560,334.497 283.202,333.753 283.205 C 332.914 283.208,333.296 283.677,334.759 284.440 M101.964 286.600 C 101.665 287.590,100.541 289.340,99.467 290.489 C 97.775 292.298,97.546 293.209,97.757 297.289 L 98.000 302.000 105.600 302.043 L 113.200 302.087 105.800 301.814 L 98.400 301.542 98.400 296.895 C 98.400 293.258,98.749 291.932,100.006 290.795 C 101.903 289.078,104.177 284.800,103.193 284.800 C 102.816 284.800,102.263 285.610,101.964 286.600 M341.498 286.671 C 342.102 287.402,343.251 288.000,344.051 288.000 C 344.851 288.000,345.728 288.360,346.000 288.800 C 346.272 289.240,347.643 289.551,349.047 289.491 C 351.167 289.401,351.261 289.327,349.600 289.058 C 347.603 288.734,345.024 287.757,342.000 286.178 C 340.569 285.431,340.516 285.484,341.498 286.671 M125.760 289.760 C 125.232 290.288,124.858 291.998,124.928 293.560 L 125.056 296.400 125.393 293.603 C 125.579 292.065,126.105 290.355,126.563 289.803 C 127.625 288.525,127.028 288.492,125.760 289.760 M355.137 290.612 C 357.765 291.953,358.085 293.402,355.846 293.829 L 354.000 294.182 355.825 294.291 C 356.829 294.351,357.864 293.843,358.125 293.162 C 358.643 291.813,356.367 289.660,354.400 289.637 C 353.740 289.630,354.072 290.068,355.137 290.612 M220.000 294.267 C 220.000 294.780,218.964 295.200,217.698 295.200 C 216.432 295.200,214.919 295.830,214.337 296.600 C 213.435 297.791,213.445 297.851,214.399 297.000 C 215.015 296.450,216.507 296.000,217.713 296.000 C 219.863 296.000,221.429 294.762,220.480 293.813 C 220.216 293.549,220.000 293.753,220.000 294.267 M348.574 296.493 C 348.303 296.764,346.893 297.267,345.441 297.611 C 343.144 298.155,343.067 298.247,344.847 298.318 C 345.973 298.363,347.593 297.871,348.447 297.225 C 349.301 296.579,349.790 296.039,349.533 296.025 C 349.277 296.011,348.845 296.222,348.574 296.493 M203.600 298.400 C 203.328 298.840,202.137 299.242,200.953 299.293 C 199.415 299.359,199.230 299.496,200.305 299.772 C 201.133 299.984,202.573 299.771,203.505 299.298 C 204.437 298.825,206.820 298.312,208.800 298.159 L 212.400 297.880 208.247 297.740 C 205.963 297.663,203.872 297.960,203.600 298.400 M122.400 300.667 C 122.400 301.180,121.410 301.649,120.200 301.709 C 118.181 301.809,118.155 301.847,119.892 302.177 C 121.839 302.546,123.920 301.253,122.947 300.280 C 122.646 299.979,122.400 300.153,122.400 300.667 M222.924 303.000 C 222.720 303.330,224.178 303.471,226.165 303.312 C 228.152 303.154,230.575 303.452,231.550 303.973 C 232.525 304.495,234.555 304.772,236.061 304.589 C 238.642 304.275,238.607 304.249,235.447 304.128 C 233.603 304.058,231.872 303.640,231.600 303.200 C 231.029 302.276,223.479 302.102,222.924 303.000 M219.993 305.836 C 217.446 309.753,216.685 311.491,217.994 310.405 C 218.657 309.854,219.200 309.027,219.200 308.565 C 219.200 308.104,219.798 307.065,220.528 306.258 C 221.259 305.451,221.695 304.629,221.498 304.431 C 221.301 304.234,220.623 304.866,219.993 305.836 M327.600 304.800 C 327.328 305.240,325.957 305.649,324.553 305.709 C 322.475 305.798,322.357 305.885,323.919 306.180 C 324.975 306.380,326.595 306.169,327.519 305.713 C 328.444 305.256,329.920 304.726,330.800 304.534 C 331.989 304.275,331.848 304.162,330.247 304.093 C 329.063 304.042,327.872 304.360,327.600 304.800 M241.000 306.151 C 241.770 306.353,243.030 306.353,243.800 306.151 C 244.570 305.950,243.940 305.786,242.400 305.786 C 240.860 305.786,240.230 305.950,241.000 306.151 M189.600 307.761 C 187.285 308.601,183.201 313.130,183.293 314.757 C 183.384 316.363,183.394 316.364,183.771 314.800 C 184.249 312.813,187.949 308.800,189.302 308.800 C 189.854 308.800,190.528 308.440,190.800 308.000 C 191.339 307.128,191.344 307.129,189.600 307.761 M258.400 308.596 C 261.260 308.755,263.942 309.225,264.360 309.642 C 265.410 310.690,310.152 310.649,310.800 309.600 C 311.072 309.160,312.803 308.739,314.647 308.666 L 318.000 308.531 314.895 308.211 C 313.187 308.035,311.405 308.275,310.935 308.745 C 309.798 309.882,265.101 309.935,264.400 308.800 C 264.128 308.360,261.497 308.069,258.553 308.154 L 253.200 308.308 258.400 308.596 M216.063 312.827 C 215.969 314.663,207.899 322.222,205.600 322.629 L 203.600 322.982 205.625 323.091 C 208.049 323.221,217.261 314.450,216.557 312.682 C 216.229 311.857,216.111 311.892,216.063 312.827 M181.005 319.061 C 178.383 322.205,178.474 327.200,181.153 327.200 C 182.227 327.200,183.328 326.840,183.600 326.400 C 183.872 325.960,185.963 325.535,188.247 325.456 L 192.400 325.312 188.488 325.007 C 186.337 324.840,184.195 325.085,183.728 325.552 C 180.361 328.919,178.421 322.984,181.736 319.455 C 182.692 318.438,183.319 317.452,183.131 317.264 C 182.942 317.076,181.986 317.884,181.005 319.061 " stroke="none" fill="#245924" fill-rule="evenodd"></path><path id="path4" d="M176.000 62.067 C 174.900 62.677,172.830 63.182,171.400 63.188 C 169.648 63.196,168.800 63.585,168.800 64.379 C 168.800 65.028,167.726 66.114,166.414 66.793 C 165.101 67.472,163.472 69.101,162.793 70.414 C 162.114 71.726,160.928 72.800,160.157 72.800 C 157.804 72.800,155.395 75.030,153.451 79.009 C 152.433 81.094,150.433 84.060,149.007 85.600 C 147.581 87.140,146.411 89.001,146.407 89.735 C 146.395 92.087,145.467 93.600,144.038 93.600 C 142.328 93.600,140.865 95.313,138.571 100.000 C 137.602 101.980,135.547 104.990,134.004 106.688 C 132.462 108.387,131.200 110.221,131.200 110.764 C 131.200 113.207,128.343 114.190,119.801 114.686 C 115.072 114.960,110.572 115.518,109.801 115.925 C 106.068 117.898,102.361 119.200,100.479 119.200 C 99.180 119.200,98.400 119.643,98.400 120.379 C 98.400 121.028,97.366 122.094,96.102 122.747 C 94.838 123.401,93.611 124.670,93.377 125.568 C 93.097 126.635,92.289 127.200,91.042 127.200 C 89.007 127.200,83.200 132.092,83.200 133.806 C 83.200 134.361,82.480 135.265,81.600 135.814 C 77.743 138.223,79.667 150.650,84.142 152.231 C 84.881 152.492,85.601 153.638,85.742 154.778 C 86.397 160.045,90.962 153.035,91.360 146.150 L 91.600 142.000 102.800 141.600 C 108.960 141.380,114.540 140.844,115.200 140.408 C 117.595 138.829,138.185 137.065,139.451 138.331 C 140.542 139.422,149.332 139.480,150.000 138.400 C 150.779 137.139,156.653 137.467,158.828 138.892 L 160.800 140.184 160.800 156.825 L 160.800 173.466 157.600 176.898 C 154.896 179.797,154.400 180.862,154.400 183.765 L 154.400 187.200 165.535 187.200 C 179.806 187.200,179.200 186.914,179.200 193.638 C 179.200 200.159,179.669 199.786,170.602 200.471 C 164.253 200.950,163.411 201.185,164.004 202.310 C 164.377 203.020,164.887 204.140,165.137 204.800 C 165.386 205.460,165.910 206.540,166.302 207.200 C 168.714 211.263,169.067 213.329,169.067 223.411 C 169.067 233.806,169.022 234.078,166.933 236.332 C 165.760 237.598,164.800 239.418,164.800 240.377 C 164.800 242.415,162.056 245.168,159.200 245.996 C 156.951 246.649,152.000 251.046,152.000 252.390 C 152.000 254.024,139.205 264.800,137.265 264.800 C 136.752 264.800,130.506 271.126,127.072 275.123 C 125.075 277.448,124.605 277.600,119.422 277.600 C 111.642 277.600,102.400 283.053,102.400 287.643 C 102.400 288.126,101.500 289.367,100.400 290.400 C 98.721 291.977,98.400 293.010,98.400 296.830 L 98.400 301.380 107.872 301.770 C 122.548 302.375,124.800 301.238,124.800 293.220 C 124.800 291.721,125.182 290.258,125.649 289.970 C 126.116 289.681,126.820 288.599,127.213 287.565 C 127.731 286.204,128.764 285.552,130.964 285.199 C 132.634 284.932,134.625 284.372,135.389 283.956 C 136.153 283.540,137.462 283.200,138.298 283.200 C 139.133 283.200,140.848 282.662,142.109 282.005 C 143.369 281.348,145.911 280.808,147.758 280.805 C 149.795 280.802,152.595 280.013,154.877 278.800 C 158.370 276.943,159.433 276.800,169.769 276.800 C 177.908 276.800,181.974 276.448,184.899 275.492 C 190.527 273.651,202.522 274.309,205.044 276.597 C 206.010 277.473,207.880 278.443,209.200 278.752 C 210.520 279.061,212.500 280.161,213.600 281.195 C 214.700 282.230,216.680 283.194,218.000 283.338 L 220.400 283.600 220.400 289.600 C 220.400 295.401,220.334 295.608,218.400 295.846 C 217.300 295.982,215.266 296.612,213.879 297.246 C 212.493 297.881,209.724 298.400,207.726 298.400 C 205.729 298.400,203.872 298.760,203.600 299.200 C 203.328 299.640,201.947 300.000,200.531 300.000 C 196.824 300.000,193.153 302.656,191.408 306.600 C 190.872 307.810,189.954 308.800,189.367 308.800 C 187.668 308.800,184.218 312.966,183.639 315.717 C 183.348 317.101,182.410 318.867,181.555 319.641 C 179.395 321.596,179.394 326.400,181.553 326.400 C 182.407 326.400,183.328 326.040,183.600 325.600 C 183.875 325.155,187.707 324.787,192.247 324.772 C 197.803 324.752,201.037 324.379,202.400 323.600 C 203.500 322.971,205.132 322.444,206.027 322.428 C 208.205 322.390,215.251 314.910,217.446 310.306 C 220.676 303.528,229.168 299.265,231.600 303.200 C 231.872 303.640,233.492 304.000,235.200 304.000 C 236.908 304.000,238.502 304.318,238.742 304.706 C 238.982 305.094,241.519 305.662,244.380 305.968 C 247.242 306.275,249.788 306.857,250.039 307.263 C 250.289 307.668,253.512 308.000,257.200 308.000 C 260.888 308.000,264.128 308.360,264.400 308.800 C 264.711 309.303,273.326 309.600,287.600 309.600 C 301.874 309.600,310.489 309.303,310.800 308.800 C 311.072 308.360,312.872 308.000,314.800 308.000 C 316.728 308.000,318.522 307.650,318.786 307.223 C 319.050 306.796,321.059 306.208,323.251 305.918 C 325.443 305.627,327.429 305.077,327.665 304.695 C 327.901 304.313,329.109 304.000,330.349 304.000 C 331.589 304.000,333.052 303.460,333.600 302.800 C 334.148 302.140,335.002 301.606,335.498 301.613 C 335.994 301.619,338.200 300.744,340.400 299.667 C 342.600 298.591,346.647 297.055,349.393 296.255 C 352.139 295.455,354.389 294.530,354.393 294.200 C 354.397 293.870,355.150 293.600,356.067 293.600 C 357.043 293.600,357.597 293.186,357.403 292.600 C 356.868 290.978,353.446 289.624,349.847 289.612 C 348.003 289.605,346.272 289.240,346.000 288.800 C 345.728 288.360,344.851 288.000,344.051 288.000 C 343.251 288.000,342.148 287.460,341.600 286.800 C 341.052 286.140,339.806 285.600,338.830 285.600 C 337.139 285.600,330.343 282.415,325.200 279.212 C 323.880 278.390,321.697 277.691,320.350 277.658 C 318.722 277.620,317.128 276.794,315.600 275.200 C 314.335 273.880,312.883 272.800,312.373 272.800 C 311.116 272.800,306.543 270.479,305.969 269.549 C 305.714 269.137,304.870 268.800,304.092 268.800 C 303.315 268.800,301.833 267.900,300.800 266.800 C 299.767 265.700,298.507 264.800,298.001 264.800 C 296.796 264.800,287.200 255.488,287.200 254.319 C 287.200 253.823,285.399 251.338,283.198 248.797 L 279.195 244.177 278.678 236.893 C 278.198 230.134,277.968 229.383,275.481 226.477 C 273.074 223.665,272.800 222.846,272.800 218.455 C 272.800 213.861,272.606 213.354,269.600 210.093 C 267.553 207.871,266.400 205.861,266.400 204.511 C 266.400 202.997,265.985 202.400,264.933 202.400 C 264.127 202.400,263.199 202.130,262.872 201.800 C 262.545 201.470,260.595 200.839,258.538 200.397 L 254.800 199.594 254.566 193.870 L 254.333 188.146 258.166 186.273 C 260.275 185.243,262.450 183.976,263.000 183.457 C 264.180 182.344,264.419 167.158,263.274 165.960 C 262.875 165.542,262.423 157.206,262.270 147.435 C 262.069 134.655,261.712 129.392,260.995 128.675 C 260.448 128.128,260.000 126.744,260.000 125.600 C 260.000 124.456,259.642 123.162,259.205 122.725 C 258.768 122.288,258.176 119.696,257.891 116.965 C 257.606 114.234,257.063 112.000,256.686 112.000 C 256.309 112.000,256.000 110.961,256.000 109.691 C 256.000 108.422,255.462 106.352,254.805 105.091 C 254.148 103.831,253.608 101.895,253.605 100.790 C 253.602 99.475,252.977 98.506,251.800 97.990 C 250.626 97.474,249.909 96.366,249.738 94.800 C 249.595 93.480,249.145 92.058,248.738 91.640 C 248.332 91.222,248.000 90.380,248.000 89.768 C 248.000 87.979,244.605 85.655,241.950 85.627 C 238.571 85.590,233.731 83.083,230.443 79.665 C 228.927 78.089,227.379 76.800,227.004 76.800 C 226.629 76.800,224.810 76.065,222.961 75.166 C 221.113 74.267,218.089 73.321,216.243 73.063 C 214.195 72.777,212.191 71.854,211.103 70.697 C 210.123 69.654,208.899 68.800,208.383 68.800 C 207.118 68.800,202.546 66.483,201.969 65.549 C 201.714 65.137,200.267 64.800,198.753 64.800 C 197.239 64.800,196.000 64.440,196.000 64.000 C 196.000 63.560,194.290 63.198,192.200 63.195 C 190.110 63.192,187.369 62.652,186.109 61.995 C 183.313 60.537,178.697 60.570,176.000 62.067 M277.600 172.098 C 277.600 175.913,277.821 176.818,278.600 176.190 C 279.150 175.747,280.860 175.115,282.399 174.785 C 286.527 173.901,290.659 168.800,287.247 168.800 C 286.393 168.800,285.472 168.440,285.200 168.000 C 284.928 167.560,283.107 167.200,281.153 167.200 L 277.600 167.200 277.600 172.098 M283.645 203.128 C 283.066 204.063,283.953 206.400,284.886 206.400 C 285.279 206.400,285.600 208.304,285.600 210.631 C 285.600 213.242,286.196 216.030,287.155 217.912 L 288.711 220.963 289.955 217.984 C 290.724 216.143,291.200 212.595,291.200 208.702 L 291.200 202.400 287.647 202.400 C 285.693 202.400,283.892 202.728,283.645 203.128 M210.753 219.625 C 211.607 220.271,213.116 220.800,214.106 220.800 C 215.096 220.800,216.128 221.160,216.400 221.600 C 216.672 222.040,217.939 222.400,219.216 222.400 C 224.358 222.400,226.901 230.243,223.087 234.337 C 220.913 236.671,214.252 236.392,208.850 233.742 C 204.236 231.478,200.000 231.388,200.000 233.553 C 200.000 234.407,199.640 235.328,199.200 235.600 C 196.771 237.101,198.448 239.200,202.077 239.200 C 205.429 239.200,210.400 241.161,210.400 242.483 C 210.400 242.780,211.570 243.262,213.000 243.554 C 221.667 245.329,227.163 253.250,223.552 258.761 C 221.676 261.625,214.979 261.723,211.968 258.931 C 210.859 257.903,208.905 256.799,207.625 256.478 C 206.345 256.156,204.320 255.198,203.125 254.347 C 200.678 252.604,188.249 252.071,186.679 253.641 C 186.210 254.110,183.572 254.376,180.719 254.241 L 175.600 254.000 175.355 249.703 C 175.112 245.442,176.825 240.000,178.410 240.000 C 179.991 240.000,184.800 234.954,184.800 233.295 C 184.800 231.436,186.827 228.013,188.552 226.960 C 189.128 226.608,189.600 225.645,189.600 224.818 C 189.600 219.658,205.602 215.729,210.753 219.625 M112.000 222.400 C 112.000 222.840,110.964 223.200,109.698 223.200 C 108.432 223.200,106.948 223.740,106.400 224.400 C 105.852 225.060,104.728 225.600,103.902 225.600 C 102.933 225.600,102.400 226.168,102.400 227.200 C 102.400 229.030,103.231 229.249,104.680 227.800 C 105.372 227.108,108.730 226.800,115.599 226.800 C 122.468 226.800,125.826 227.108,126.519 227.800 C 127.159 228.439,129.990 228.810,134.360 228.828 C 138.776 228.847,141.909 229.262,143.200 230.000 C 144.300 230.629,146.118 231.156,147.240 231.172 C 148.362 231.187,149.737 231.650,150.296 232.200 C 151.111 233.002,151.695 232.757,153.256 230.955 C 155.920 227.880,155.710 227.200,152.098 227.200 C 150.317 227.200,148.572 226.689,148.000 226.000 C 147.452 225.340,145.989 224.800,144.749 224.800 C 143.509 224.800,142.272 224.440,142.000 224.000 C 141.728 223.560,140.468 223.200,139.200 223.200 C 137.932 223.200,136.672 222.840,136.400 222.400 C 136.106 221.924,131.058 221.600,123.953 221.600 C 116.518 221.600,112.000 221.902,112.000 222.400 M294.400 240.661 C 294.400 241.024,295.300 242.167,296.400 243.200 C 297.500 244.233,298.400 245.507,298.400 246.030 C 298.400 247.122,302.272 251.200,303.309 251.200 C 304.766 251.200,304.092 242.378,302.600 241.916 C 301.830 241.678,300.575 241.149,299.811 240.742 C 298.088 239.822,294.400 239.767,294.400 240.661 " stroke="none" fill="#348334" fill-rule="evenodd"></path></g></svg>