<svg height="452" viewBox="0 0 498 452" width="498" xmlns="http://www.w3.org/2000/svg"><g fill="none" fill-rule="evenodd"><rect height="141" rx="10" stroke="#979797" stroke-width="3" width="183" x="48.5" y="123.5"/><g transform="matrix(-.5 .8660254 -.8660254 -.5 214.678203 71.246479)"><path d="m0 8h.99824564 28.00175436" stroke="#999" stroke-width="6"/><path d="m40.2835353 9.07989948c.9324575-.59631093.9356445-1.56108391 0-2.1594329l-9.914219-6.34018907c-1.860822-1.19000432-3.3693163-.37037918-3.3693163 1.83629677v11.16721752c0 2.204163 1.5041128 3.0291031 3.3693163 1.8362967z" fill="#999"/></g><g transform="matrix(-.5 .8660254 -.8660254 -.5 124.356406 282.253521)"><path d="m0 8h.99824564 28.00175436" stroke="#999" stroke-width="6"/><path d="m40.2835353 9.07989948c.9324575-.59631093.9356445-1.56108391 0-2.1594329l-9.914219-6.34018907c-1.860822-1.19000432-3.3693163-.37037918-3.3693163 1.83629677v11.16721752c0 2.204163 1.5041128 3.0291031 3.3693163 1.8362967z" fill="#999"/></g><g transform="matrix(.5 .8660254 .8660254 -.5 248.321797 71.246479)"><path d="m0 8h.99824564 28.00175436" stroke="#999" stroke-width="6"/><path d="m40.2835353 9.07989948c.9324575-.59631093.9356445-1.56108391 0-2.1594329l-9.914219-6.34018907c-1.860822-1.19000432-3.3693163-.37037918-3.3693163 1.83629677v11.16721752c0 2.204163 1.5041128 3.0291031 3.3693163 1.8362967z" fill="#999"/></g><g transform="matrix(.5 .8660254 .8660254 -.5 158 282)"><path d="m0 8h.99824564 28.00175436" stroke="#999" stroke-width="6"/><path d="m40.2835353 9.07989948c.9324575-.59631093.9356445-1.56108391 0-2.1594329l-9.914219-6.34018907c-1.860822-1.19000432-3.3693163-.37037918-3.3693163 1.83629677v11.16721752c0 2.204163 1.5041128 3.0291031 3.3693163 1.8362967z" fill="#999"/></g><g transform="translate(169)"><rect height="52" rx="8" stroke="#999" stroke-width="3" width="123" x="1.5" y="1.5"/><text fill="#3d3d3d" font-family="Helvetica" font-size="18"><tspan x="33.486328" y="33">App.js</tspan></text></g><g transform="translate(56 198)"><rect height="54" rx="8" stroke="#4077f7" width="167" x="1.5" y=".5"/><text fill="#3d3d3d" font-family="Helvetica" font-size="18"><tspan x="27.476563" y="33">Header.ios.js</tspan></text></g><g transform="translate(56 134)"><rect height="54" rx="8" stroke="#0ca40d" width="167" x=".5" y=".5"/><text fill="#3d3d3d" font-family="Helvetica" font-size="18"><tspan x="8.458008" y="33">Header.android.js</tspan></text></g><g transform="translate(258 122)"><rect height="52" rx="8" stroke="#999" stroke-width="3" width="123" x="1.5" y="1.5"/><text fill="#3d3d3d" font-family="Helvetica" font-size="18"><tspan x="28.986328" y="33">Body.js</tspan></text></g><g transform="translate(0 325)"><rect height="52" rx="8" stroke="#999" stroke-width="3" width="123" x="1.5" y="1.5"/><text fill="#3d3d3d" font-family="Helvetica" font-size="18"><tspan x="37.986328" y="33">Image</tspan></text></g><g transform="translate(151 325)"><rect height="52" rx="8" stroke="#999" stroke-width="3" width="123" x="1.5" y="1.5"/><text fill="#3d3d3d" font-family="Helvetica" font-size="18"><tspan x="45.496582" y="33">Text</tspan></text></g><g transform="translate(372 191)"><rect height="52" rx="8" stroke="#999" stroke-width="3" width="123" x="1.5" y="1.5"/><text fill="#3d3d3d" font-family="Helvetica" font-size="18"><tspan x="45.496582" y="33">Text</tspan></text></g><g transform="translate(372 260)"><rect height="52" rx="8" stroke="#999" stroke-width="3" width="123" x="1.5" y="1.5"/><text fill="#3d3d3d" font-family="Helvetica" font-size="18"><tspan x="45.496582" y="33">Text</tspan></text></g><g transform="translate(372 329)"><rect height="52" rx="8" stroke="#999" stroke-width="3" width="123" x="1.5" y="1.5"/><text fill="#3d3d3d" font-family="Helvetica" font-size="18"><tspan x="45.496582" y="33">Text</tspan></text></g><g transform="translate(372 397)"><rect height="52" rx="8" stroke="#999" stroke-width="3" width="123" x="1.5" y="1.5"/><text fill="#3d3d3d" font-family="Helvetica" font-size="18"><tspan x="45.496582" y="33">Text</tspan></text></g><path d="m201 304h241v6h-241z" fill="#999" transform="matrix(0 1 1 0 14.5 -14.5)"/><g transform="matrix(1 0 0 -1 323 227)"><path d="m0 8.5h1.49809915 27.50190085" stroke="#999" stroke-width="6"/><path d="m40.2835353 9.57993401c.9324575-.59631093.9356445-1.56108391 0-2.15943291l-9.914219-6.34018906c-1.860822-1.19000433-3.3693163-.37037919-3.3693163 1.83629677v11.16721749c0 2.204163 1.5041128 3.0291031 3.3693163 1.8362968z" fill="#999"/></g><g transform="matrix(1 0 0 -1 323 365)"><path d="m0 8.5h1.49809915 27.50190085" stroke="#999" stroke-width="6"/><path d="m40.2835353 9.57993401c.9324575-.59631093.9356445-1.56108391 0-2.15943291l-9.914219-6.34018906c-1.860822-1.19000433-3.3693163-.37037919-3.3693163 1.83629677v11.16721749c0 2.204163 1.5041128 3.0291031 3.3693163 1.8362968z" fill="#999"/></g><g transform="matrix(1 0 0 -1 323 296)"><path d="m0 8.5h1.49809915 27.50190085" stroke="#999" stroke-width="6"/><path d="m40.2835353 9.57993401c.9324575-.59631093.9356445-1.56108391 0-2.15943291l-9.914219-6.34018906c-1.860822-1.19000433-3.3693163-.37037919-3.3693163 1.83629677v11.16721749c0 2.204163 1.5041128 3.0291031 3.3693163 1.8362968z" fill="#999"/></g><g transform="matrix(1 0 0 -1 323 432)"><path d="m0 8.5h1.49809915 27.50190085" stroke="#999" stroke-width="6"/><path d="m40.2835353 9.57993401c.9324575-.59631093.9356445-1.56108391 0-2.15943291l-9.914219-6.34018906c-1.860822-1.19000433-3.3693163-.37037919-3.3693163 1.83629677v11.16721749c0 2.204163 1.5041128 3.0291031 3.3693163 1.8362968z" fill="#999"/></g></g></svg>