<svg width="498" height="452" viewBox="0 0 498 452" xmlns="http://www.w3.org/2000/svg"><g fill="none" fill-rule="evenodd"><rect stroke="#979797" stroke-width="3" x="48.5" y="123.5" width="183" height="141" rx="10"/><path d="M207.75 67.246l-.5.865-14 24.25" stroke="#999" stroke-width="6"/><path d="M186.673 101.593c.05 1.106.884 1.59 1.87 1.08l10.448-5.416c1.961-1.017 2.005-2.733.094-3.836l-9.67-5.584c-1.91-1.102-3.376-.212-3.276 2l.534 11.756z" fill="#999"/><path d="M117.428 278.254l-.499.864-14 24.25" stroke="#999" stroke-width="6"/><path d="M96.351 312.6c.05 1.106.884 1.591 1.87 1.08l10.448-5.416c1.961-1.017 2.006-2.733.095-3.836l-9.672-5.584c-1.908-1.102-3.375-.212-3.274 2l.533 11.756z" fill="#999"/><path d="M255.25 67.246l.5.865 14 24.25" stroke="#999" stroke-width="6"/><path d="M276.327 101.593c-.05 1.106-.884 1.59-1.87 1.08l-10.448-5.416c-1.961-1.017-2.005-2.733-.094-3.836l9.67-5.584c1.91-1.102 3.376-.212 3.276 2l-.534 11.756z" fill="#999"/><path d="M164.928 278l.5.865 14 24.25" stroke="#999" stroke-width="6"/><path d="M186.005 312.347c-.05 1.105-.884 1.59-1.87 1.08l-10.448-5.417c-1.96-1.016-2.005-2.732-.094-3.836l9.67-5.583c1.91-1.102 3.376-.212 3.276 2l-.534 11.756z" fill="#999"/><g transform="translate(169)"><rect stroke="#999" stroke-width="3" x="1.5" y="1.5" width="123" height="52" rx="8"/><text font-family="Helvetica" font-size="18" fill="#3D3D3D"><tspan x="33.486" y="33">App.jsx</tspan></text></g><g transform="translate(56 198)"><rect stroke="#4077F7" x="1.5" y=".5" width="167" height="54" rx="8"/><text font-family="Helvetica" font-size="18" fill="#3D3D3D"><tspan x="27.477" y="33">Header.ios.jsx</tspan></text></g><g transform="translate(56 134)"><rect stroke="#0CA40D" x=".5" y=".5" width="167" height="54" rx="8"/><text font-family="Helvetica" font-size="18" fill="#3D3D3D"><tspan x="8.458" y="33">Header.android.jsx</tspan></text></g><g transform="translate(258 122)"><rect stroke="#999" stroke-width="3" x="1.5" y="1.5" width="123" height="52" rx="8"/><text font-family="Helvetica" font-size="18" fill="#3D3D3D"><tspan x="28.986" y="33">Body.jsx</tspan></text></g><g transform="translate(0 325)"><rect stroke="#999" stroke-width="3" x="1.5" y="1.5" width="123" height="52" rx="8"/><text font-family="Helvetica" font-size="18" fill="#3D3D3D"><tspan x="37.986" y="33">Image</tspan></text></g><g transform="translate(151 325)"><rect stroke="#999" stroke-width="3" x="1.5" y="1.5" width="123" height="52" rx="8"/><text font-family="Helvetica" font-size="18" fill="#3D3D3D"><tspan x="45.497" y="33">Text</tspan></text></g><g transform="translate(372 191)"><rect stroke="#999" stroke-width="3" x="1.5" y="1.5" width="123" height="52" rx="8"/><text font-family="Helvetica" font-size="18" fill="#3D3D3D"><tspan x="45.497" y="33">Text</tspan></text></g><g transform="translate(372 260)"><rect stroke="#999" stroke-width="3" x="1.5" y="1.5" width="123" height="52" rx="8"/><text font-family="Helvetica" font-size="18" fill="#3D3D3D"><tspan x="45.497" y="33">Text</tspan></text></g><g transform="translate(372 329)"><rect stroke="#999" stroke-width="3" x="1.5" y="1.5" width="123" height="52" rx="8"/><text font-family="Helvetica" font-size="18" fill="#3D3D3D"><tspan x="45.497" y="33">Text</tspan></text></g><g transform="translate(372 397)"><rect stroke="#999" stroke-width="3" x="1.5" y="1.5" width="123" height="52" rx="8"/><text font-family="Helvetica" font-size="18" fill="#3D3D3D"><tspan x="45.497" y="33">Text</tspan></text></g><path fill="#999" d="M318.5 186.5v241h6v-241z"/><path d="M323 218.5h29" stroke="#999" stroke-width="6"/><path d="M363.284 217.42c.932.596.935 1.561 0 2.16l-9.915 6.34c-1.86 1.19-3.369.37-3.369-1.837v-11.167c0-2.204 1.504-3.029 3.37-1.836l9.914 6.34z" fill="#999"/><path d="M323 356.5h29" stroke="#999" stroke-width="6"/><path d="M363.284 355.42c.932.596.935 1.561 0 2.16l-9.915 6.34c-1.86 1.19-3.369.37-3.369-1.837v-11.167c0-2.204 1.504-3.029 3.37-1.836l9.914 6.34z" fill="#999"/><path d="M323 287.5h29" stroke="#999" stroke-width="6"/><path d="M363.284 286.42c.932.596.935 1.561 0 2.16l-9.915 6.34c-1.86 1.19-3.369.37-3.369-1.837v-11.167c0-2.204 1.504-3.029 3.37-1.836l9.914 6.34z" fill="#999"/><path d="M323 423.5h29" stroke="#999" stroke-width="6"/><path d="M363.284 422.42c.932.596.935 1.561 0 2.16l-9.915 6.34c-1.86 1.19-3.369.37-3.369-1.837v-11.167c0-2.204 1.504-3.029 3.37-1.836l9.914 6.34z" fill="#999"/></g></svg>