<svg height="100" viewBox="0 0 100 100" width="100" xmlns="http://www.w3.org/2000/svg" xmlns:xlink="http://www.w3.org/1999/xlink"><mask id="a" fill="#fff"><path d="m.00585938.00392927h99.99414062v99.97445973h-99.99414062z" fill="#fff" fill-rule="evenodd"/></mask><path d="m100 50.2946955c0-27.7770138-22.3857422-50.2946955-50-50.2946955s-50 22.5176817-50 50.2946955c0 25.1035363 18.2842773 45.910609 42.1875 49.6836935v-35.1453831h-12.6953125v-14.5383104h12.6953125v-11.0805501c0-12.6051081 7.4646484-19.56778 18.8857422-19.56778 5.4704101 0 11.1923828.9823183 11.1923828.9823183v12.3772102h-6.3048828c-6.2112305 0-8.1482422 3.8769155-8.1482422 7.8543222v9.4344794h13.8671875l-2.2167969 14.5383104h-11.6503906v35.1453831c23.9032227-3.7730845 42.1875-24.5801572 42.1875-49.6836935" fill="#1977f2" fill-rule="evenodd" mask="url(#a)"/></svg>