<svg width="100" height="100" viewBox="0 0 100 100" xmlns="http://www.w3.org/2000/svg" xmlns:xlink="http://www.w3.org/1999/xlink"><defs><path id="a" d="M.006.004H100v99.974H.006z"/></defs><g fill="none" fill-rule="evenodd"><mask id="b" fill="#fff"><use xlink:href="#a"/></mask><path d="M100 50.295C100 22.518 77.614 0 50 0S0 22.518 0 50.295c0 25.103 18.284 45.91 42.188 49.683V64.833H29.492V50.295h12.695v-11.08c0-12.606 7.465-19.569 18.886-19.569 5.47 0 11.193.983 11.193.983v12.377H65.96c-6.211 0-8.148 3.877-8.148 7.854v9.435H71.68l-2.217 14.538h-11.65v35.145C81.715 96.205 100 75.398 100 50.295" fill="#1977F2" mask="url(#b)"/></g></svg>