<?xml version="1.0" encoding="UTF-8"?>
<svg width="583px" height="524px" viewBox="0 0 583 524" version="1.1" xmlns="http://www.w3.org/2000/svg" xmlns:xlink="http://www.w3.org/1999/xlink">
    <title>logo_light</title>
    <g id="Symbols" stroke="none" stroke-width="1" fill="none" fill-rule="evenodd">
        <g id="Artwork" transform="translate(-121.000000, -149.000000)" fill="#F9F9F9" fill-rule="nonzero">
            <g id="logo_light" transform="translate(121.000000, 149.000000)">
                <path d="M293,205 C262.072054,205 237,230.072054 237,261 C237,291.927946 262.072054,317 293,317 C323.927946,317 349,291.927946 349,261 C349,230.072054 323.927946,205 293,205" id="Path"></path>
                <path d="M582.958868,261.994238 C582.958868,218.20471 542.361931,179.798974 477.723543,154.52393 C478.587308,148.831907 479.368809,143.201531 479.924087,137.6739 C486.299492,74.753425 471.121914,29.3405412 437.208868,9.77806811 C399.264922,-12.1064211 345.670383,3.77781378 291.479434,47.0947184 C237.288486,3.77781378 183.693946,-12.1064211 145.75,9.77806811 C111.836955,29.3405412 96.6593763,74.753425 103.034782,137.6739 C103.590059,143.201531 104.350995,148.852456 105.235325,154.565027 C99.8470791,156.619908 94.5616622,158.798083 89.4819035,161.079002 C31.7741992,186.991059 0,222.869292 0,261.994238 C0,305.783766 40.5969381,344.189503 105.235325,369.464547 C104.350995,375.156569 103.590059,380.786945 103.034782,386.314577 C96.6593763,449.235052 111.836955,494.647935 145.75,514.210408 C157.409675,520.814631 170.621651,524.191149 184.023,523.991645 C216.146818,523.991645 253.658883,507.100518 291.479434,476.893758 C329.279421,507.100518 366.812051,523.991645 398.977,523.991645 C412.377996,524.188165 425.589201,520.811845 437.25,514.210408 C471.163045,494.647935 486.340624,449.235052 479.965218,386.314577 C479.409941,380.786945 478.628439,375.156569 477.764675,369.464547 C542.403062,344.230601 583,305.763217 583,261.994238 M398.73021,27.7377335 C407.347073,27.5300655 415.864288,29.6150576 423.4092,33.7790854 C446.957069,47.361853 457.527903,84.2058804 452.386447,134.858712 C452.036828,138.310914 451.625512,141.804213 451.131932,145.31806 C424.25486,137.230728 396.732802,131.462751 368.868633,128.077603 C351.977306,105.643369 333.193746,84.6960517 312.723932,65.46536 C344.868315,40.64239 375.03838,27.7377335 398.709645,27.7377335 M387.665797,317.476042 C377.264435,335.514266 365.938163,353.004027 353.732185,369.875523 C333.042642,371.99906 312.257277,373.055301 291.458868,373.040364 C270.667319,373.054595 249.888836,371.998354 229.206117,369.875523 C217.032676,353.003429 205.740669,335.513577 195.375335,317.476042 C184.97452,299.487784 175.521908,280.968582 167.056194,261.994238 C175.521908,243.019895 184.97452,224.500692 195.375335,206.512434 C205.724328,188.547243 216.981533,171.119863 229.103288,154.297893 C249.823836,152.121795 270.644747,151.038055 291.479434,151.050946 C312.270933,151.038625 333.049313,152.09486 353.732185,154.215697 C365.895562,171.063556 377.193924,188.518326 387.583533,206.512434 C397.976311,224.505055 407.428705,243.023834 415.902674,261.994238 C407.428705,280.964642 397.976311,299.483421 387.583533,317.476042 M430.051961,296.927226 C436.579048,314.71065 441.937551,332.900765 446.093305,351.381589 C428.058921,356.999189 409.674605,361.426722 391.059158,364.635575 C398.133801,353.977589 404.989076,342.888078 411.624982,331.367041 C418.185481,319.982998 424.334662,308.49621 430.134225,297.009422 M252.424933,399.527465 C265.216876,400.30832 278.276175,400.760394 291.5,400.760394 C304.723825,400.760394 317.865387,400.30832 330.677896,399.527465 C318.529727,414.065842 305.442471,427.794381 291.5,440.625097 C277.587553,427.796413 264.534375,414.067589 252.424933,399.527465 Z M191.920276,364.594478 C173.298836,361.399982 154.907635,356.986174 136.865564,351.381589 C141.004594,332.93 146.342449,314.767473 152.845209,297.009422 C158.562509,308.49621 164.691125,319.982998 171.354452,331.367041 C178.017779,342.751086 184.90733,353.970739 191.920276,364.635575 M152.845209,226.958507 C146.36574,209.266296 141.041724,191.172747 136.906695,172.791827 C154.904002,167.180949 173.245933,162.739971 191.817448,159.496743 C184.783935,170.120481 177.894384,181.134647 171.251623,192.621435 C164.608861,204.108223 158.541943,215.451169 152.74238,226.958507 M330.554501,124.440463 C317.762558,123.659607 304.703259,123.207534 291.376605,123.207534 C278.159635,123.207534 265.134613,123.61851 252.301538,124.440463 C264.41098,109.900339 277.464158,96.1715148 291.376605,83.3428301 C305.324385,96.1681518 318.411984,109.89705 330.554501,124.440463 Z M411.58385,192.621435 C404.920524,181.0867 398.030972,169.990339 390.915197,159.332353 C409.579759,162.54137 428.012395,166.975823 446.093305,172.606888 C441.9447,191.056001 436.607026,209.217914 430.113659,226.979056 C424.396359,215.492267 418.247178,204.005479 411.604416,192.641984 M130.654684,134.879261 C125.451531,84.246978 136.084063,47.3824018 159.611366,33.7996342 C167.158804,29.6420735 175.674243,27.5575163 184.290355,27.7582822 C207.96162,27.7582822 238.131685,40.6629388 270.276068,65.4859089 C249.792583,84.7302611 230.995356,105.691222 214.090235,128.13925 C186.233859,131.540401 158.714885,137.28711 131.826936,145.31806 C131.353923,141.804213 130.922041,138.331462 130.592987,134.879261 M100.87537,186.374595 C104.042508,185.004673 107.271342,183.634752 110.561874,182.264832 C117.030879,209.53416 125.802786,236.206202 136.7833,261.994238 C125.782024,287.832909 117.002973,314.560744 110.541308,341.888036 C58.1395866,320.414523 27.7638634,290.659837 27.7638634,261.994238 C27.7638634,234.828704 54.4994356,207.272741 100.87537,186.374595 Z M159.611366,490.188842 C136.084063,476.606075 125.451531,439.741498 130.654684,389.109215 C130.983738,385.657014 131.41562,382.184264 131.888634,378.649868 C158.766255,386.735045 186.288126,392.502983 214.151933,395.890325 C231.048633,418.332861 249.83171,439.293388 270.296634,458.543665 C225.483703,493.127323 184.537146,504.531916 159.673064,490.188842 M452.365882,389.109215 C457.507337,439.762048 446.936503,476.606075 423.388634,490.188842 C398.545118,504.573013 357.577995,493.127323 312.785628,458.543665 C333.243788,439.292879 352.019991,418.332345 368.909765,395.890325 C396.773934,392.505176 424.295992,386.737199 451.173064,378.649868 C451.666643,382.184264 452.077959,385.657014 452.427579,389.109215 M472.540955,341.846938 C466.061026,314.535629 457.275378,287.822402 446.278397,261.994238 C457.270565,236.152145 466.049358,209.425096 472.520389,182.100441 C524.819281,203.573954 555.277268,233.32864 555.277268,261.994238 C555.277268,290.659837 524.901545,320.414523 472.499823,341.888036" id="Shape"></path>
            </g>
        </g>
    </g>
</svg>