<svg id="Layer_1_copy" data-name="Layer 1 copy" xmlns="http://www.w3.org/2000/svg" viewBox="0 0 1076 856"><defs><clipPath id="clip-path"><path class="cls-1" d="M369.75 31.3h215v272.17h-215z"/></clipPath><clipPath id="clip-path-2"><path class="cls-1" d="M602.67 482.5h215v272.17h-215z"/></clipPath><clipPath id="clip-path-3"><path class="cls-1" d="M602.58 31.5h215v272.17h-215z"/></clipPath><clipPath id="clip-path-4"><path class="cls-1" d="M27.5 261.5h215v272.17h-215z"/></clipPath><clipPath id="clip-path-5"><path class="cls-1" d="M370.47 482.72h215v272.17h-215z"/></clipPath><clipPath id="clip-path-6"><path class="cls-1" d="M835.92 482.85h215v272.17h-215z"/></clipPath><style>.cls-1,.cls-3{fill:none}.cls-2,.cls-7{fill:#99d5e7}.cls-3{stroke:#99d5e7;stroke-width:10px}.cls-3,.cls-6,.cls-7{stroke-miterlimit:10}.cls-5{fill:#5971b5}.cls-6{fill:#fff;stroke-width:4px;stroke:#134484}.cls-7{stroke:#134484;stroke-width:3px}.cls-8{fill:#040506}.cls-12{fill:#d5e2f5}.cls-13{font-size:24px;fill:#374d9c;font-family:source-code-pro,Menlo,Monaco,Consolas,Courier New,monospace}.cls-14{font-size:48px;fill:#71c9e4;letter-spacing:.1em;font-family:-apple-system,BlinkMacSystemFont,&apos;Segoe UI&apos;,Helvetica,Arial,sans-serif,&apos;Apple Color Emoji&apos;,&apos;Segoe UI Emoji&apos;,&apos;Segoe UI Symbol&apos;;font-weight:700}</style></defs><g id="Layer_4" data-name="Layer 4"><path class="cls-2" d="M325.97 194.25l18.18-28.2-17.57-28.68 36.13 28.2-36.74 28.68z"/><path class="cls-3" d="M347.32 166.23c-24-1.36-50.31 4.5-64.33 19.79-11.14 12.15-12.82 28-11.89 43 2.08 33.6 15.29 66.1 28.1 98.22 5.26 13.19 10.37 27.88 2.81 40.37-4.49 7.4-12.92 12.92-22 17.05a118.46 118.46 0 01-39.73 10"/><path class="cls-2" d="M328.54 595.11l18.17 28.21L329.14 652l36.14-28.21-36.74-28.68z"/><path class="cls-3" d="M349.88 623.14c-24 1.36-50.31-4.5-64.33-19.79-11.13-12.15-12.81-28.05-11.89-43 2.09-33.61 15.29-66.1 28.11-98.22 5.26-13.19 10.37-27.88 2.8-40.37-4.48-7.4-12.92-12.92-22-17.05a118.76 118.76 0 00-42.3-10.15"/></g><g clip-path="url(#clip-path)" id="frame"><rect class="cls-5" x="432.45" y="173.6" width="294.51" height="70.5" rx="19.76"/><g id="finger"><path class="cls-6" d="M344.54 345.93a1121.65 1121.65 0 0155.39-108.51c3.19-5.49 8.75-11.82 14.61-9.36a11.14 11.14 0 014.59 4.29c6.24 9.25 7.19 21.27 5 32.21s-7.15 21.09-12.09 31.1l-33.61 68.14"/><path class="cls-7" d="M414.54 228.06a11.14 11.14 0 014.59 4.29 35.19 35.19 0 015.27 13.11c-6.59 16.59-13.43 30.1-24.48 24.87-9-4.28-8.4-13.25-4.54-25q2.26-4 4.55-7.91c3.19-5.49 8.75-11.82 14.61-9.36z"/></g><path class="cls-8" d="M581.75 34.3v266.17h-209V34.3h209m3-3h-215v272.17h215V31.3z"/></g><g clip-path="url(#clip-path-2)" id="frame-2" data-name="frame"><rect class="cls-5" x="665.37" y="629.8" width="294.51" height="70.5" rx="19.76"/><g id="finger-2" data-name="finger"><path class="cls-6" d="M646.46 774.13a1121.65 1121.65 0 0155.39-108.51c3.18-5.49 8.75-11.82 14.6-9.36a11.08 11.08 0 014.6 4.28c6.23 9.25 7.19 21.27 5 32.22s-7.16 21.09-12.09 31.09L680.35 792"/><path class="cls-7" d="M716.45 656.26a11.08 11.08 0 014.6 4.28 35.47 35.47 0 015.27 13.12c-6.59 16.58-13.44 30.1-24.48 24.86-9-4.27-8.41-13.24-4.54-25q2.25-4 4.55-7.91c3.15-5.48 8.75-11.81 14.6-9.35z"/></g><path class="cls-8" d="M814.86 485.59v266.18h-209V485.59h209m3-3h-215v272.18h215V482.59z"/></g><g clip-path="url(#clip-path-3)" id="frame-3" data-name="frame"><rect class="cls-5" x="665.29" y="173.8" width="294.51" height="70.5" rx="19.76"/><path class="cls-8" d="M814.58 34.5v266.17h-209V34.5h209m3-3h-215v272.17h215V31.5z"/></g><g clip-path="url(#clip-path-4)" id="frame-4" data-name="frame"><rect class="cls-5" x="90.2" y="403.8" width="294.51" height="70.5" rx="19.76"/><g id="finger-3" data-name="finger"><path class="cls-6" d="M51.29 538.13a1121.65 1121.65 0 0155.39-108.51c3.19-5.49 8.75-11.82 14.61-9.36a11.05 11.05 0 014.59 4.28c6.24 9.25 7.19 21.27 5 32.22s-7.15 21.09-12.09 31.09L85.18 556"/><path class="cls-7" d="M121.29 420.26a11.05 11.05 0 014.59 4.28 35.3 35.3 0 015.27 13.12c-6.59 16.58-13.43 30.1-24.47 24.86-9-4.27-8.41-13.24-4.55-25q2.27-4 4.55-7.91c3.19-5.48 8.75-11.81 14.61-9.35z"/></g><path class="cls-2" d="M101.59 401.11l-23.71-24.77-8.43 20.02 27.4 15.81 4.74-11.06zm-9.97 18.6l-30.08-4.38 2.64 17.92 25.29-2.24 2.15-11.3zm54.23 0l29.51-4.38v13.18l-29.51-4.22v-4.58zm2.11 13.54L177.77 448l-6.1 12.65-25.82-18.96 2.11-8.44zm-2.11 25.29l20.55 16.34-10.27 12.98-15.55-24.19 5.27-5.13z" id="tap"/><path class="cls-8" d="M239.5 264.5v266.17h-209V264.5h209m3-3h-215v272.17h215V261.5z"/></g><path class="cls-12" d="M617.67 766h185.42v45.93H617.67z"/><text class="cls-13" transform="translate(631.18 797.7)">onLongPress</text><path class="cls-12" d="M41.92 544.74h185.42v45.93H41.92z"/><text class="cls-13" transform="translate(69.84 576.44)">onPressIn</text><path class="cls-12" d="M616.92 314.74h185.42v45.93H616.92z"/><text class="cls-13" transform="translate(659.23 346.44)">onPress</text><path class="cls-12" d="M384.92 314.74h185.42v45.93H384.92z"/><text class="cls-13" transform="translate(405.64 346.44)">onPressOut</text><text class="cls-14" transform="translate(703.75 560)">!</text><g clip-path="url(#clip-path-5)" id="frame-5" data-name="frame"><rect class="cls-5" x="433.17" y="625.01" width="294.51" height="70.5" rx="19.76"/><g id="finger-4" data-name="finger"><path class="cls-6" d="M394.26 759.34a1123.83 1123.83 0 0155.38-108.51c3.19-5.49 8.76-11.82 14.61-9.36a11 11 0 014.59 4.29c6.24 9.25 7.19 21.27 5 32.21s-7.16 21.09-12.09 31.1l-33.63 68.15"/><path class="cls-7" d="M464.25 641.47a11 11 0 014.59 4.29 35.27 35.27 0 015.28 13.11c-6.59 16.59-13.44 30.11-24.48 24.87-9-4.28-8.41-13.25-4.54-25q2.25-4 4.54-7.91c3.19-5.49 8.76-11.83 14.61-9.36z"/></g><path class="cls-8" d="M582.47 485.72v266.17h-209V485.72h209m3-3h-215v272.17h215V482.72z"/><text class="cls-14" transform="translate(460.94 559.95)">...</text></g><circle class="cls-2" cx="443.5" cy="793.5" r="18.5"/><path d="M443.84 782.06v10.98m-6.74 9.88l6.56-8.8" stroke="#fff" stroke-linecap="round" stroke-width="5" stroke-miterlimit="10" fill="none"/><text transform="translate(466.73 801.97)" font-family="-apple-system,BlinkMacSystemFont,'Segoe UI',Helvetica,Arial,sans-serif,'Apple Color Emoji','Segoe UI Emoji','Segoe UI Symbol'" font-weight="700" font-size="24" fill="#99d5e7">370ms</text><g clip-path="url(#clip-path-6)" id="frame-6" data-name="frame"><rect class="cls-5" x="898.62" y="625.15" width="294.51" height="70.5" rx="19.76"/><g id="finger-5" data-name="finger"><path class="cls-6" d="M810.71 797.48A1121.65 1121.65 0 01866.1 689c3.19-5.49 8.75-11.82 14.6-9.36a11.08 11.08 0 014.6 4.28c6.24 9.25 7.19 21.27 5 32.22s-7.15 21.09-12.09 31.09l-33.61 68.12"/><path class="cls-7" d="M880.7 679.61a11.08 11.08 0 014.6 4.28 35.3 35.3 0 015.27 13.11c-6.59 16.58-13.43 30.1-24.48 24.86-9-4.27-8.41-13.24-4.54-25q2.26-4 4.55-7.91c3.19-5.47 8.75-11.8 14.6-9.34z"/></g><path class="cls-8" d="M1047.92 485.85V752h-209V485.85h209m3-3h-215V755h215V482.85z"/></g><path class="cls-12" d="M851.09 766.29h185.42v45.93H851.09z"/><text class="cls-13" transform="translate(871.8 797.99)">onPressOut</text></svg>