<svg id="Layer_1_copy" data-name="Layer 1 copy" xmlns="http://www.w3.org/2000/svg" xmlns:xlink="http://www.w3.org/1999/xlink" viewBox="0 0 1076 856"><defs><style>.cls-1,.cls-16,.cls-3{fill:none;}.cls-17,.cls-2,.cls-7{fill:#99d5e7;}.cls-3{stroke:#99d5e7;stroke-width:10px;}.cls-16,.cls-3,.cls-6,.cls-7{stroke-miterlimit:10;}.cls-4{clip-path:url(#clip-path);}.cls-5{fill:#5971b5;}.cls-6{fill:#fff;stroke-width:4px;}.cls-6,.cls-7{stroke:#134484;}.cls-7{stroke-width:3px;}.cls-8{fill:#040506;}.cls-9{clip-path:url(#clip-path-2);}.cls-10{clip-path:url(#clip-path-3);}.cls-11{clip-path:url(#clip-path-4);}.cls-12{fill:#d5e2f5;}.cls-13,.cls-17{font-size:24px;}.cls-13{fill:#374d9c;font-family:source-code-pro,Menlo,Monaco,Consolas,Courier New,monospace}.cls-14{font-size:48px;fill:#71c9e4;letter-spacing:0.1em;}.cls-14,.cls-17{font-family:-apple-system,BlinkMacSystemFont,'Segoe UI',Helvetica,Arial,sans-serif,'Apple Color Emoji','Segoe UI Emoji','Segoe UI Symbol';font-weight: 700}.cls-15{clip-path:url(#clip-path-5);}.cls-16{stroke:#fff;stroke-linecap:round;stroke-width:5px;}.cls-18{clip-path:url(#clip-path-6);}</style><clipPath id="clip-path"><rect class="cls-1" x="369.75" y="31.3" width="215" height="272.17"/></clipPath><clipPath id="clip-path-2"><rect class="cls-1" x="602.67" y="482.5" width="215" height="272.17"/></clipPath><clipPath id="clip-path-3"><rect class="cls-1" x="602.58" y="31.5" width="215" height="272.17"/></clipPath><clipPath id="clip-path-4"><rect class="cls-1" x="27.5" y="261.5" width="215" height="272.17"/></clipPath><clipPath id="clip-path-5"><rect class="cls-1" x="370.47" y="482.72" width="215" height="272.17"/></clipPath><clipPath id="clip-path-6"><rect class="cls-1" x="835.92" y="482.85" width="215" height="272.17"/></clipPath></defs><g id="Layer_4" data-name="Layer 4"><polygon class="cls-2" points="325.97 194.25 344.15 166.05 326.58 137.37 362.71 165.57 325.97 194.25"/><path class="cls-3" d="M347.32,166.23c-24-1.36-50.31,4.5-64.33,19.79-11.14,12.15-12.82,28-11.89,43,2.08,33.6,15.29,66.1,28.1,98.22,5.26,13.19,10.37,27.88,2.81,40.37-4.49,7.4-12.92,12.92-22,17.05a118.46,118.46,0,0,1-39.73,10"/><polygon class="cls-2" points="328.54 595.11 346.71 623.32 329.14 652 365.28 623.79 328.54 595.11"/><path class="cls-3" d="M349.88,623.14c-24,1.36-50.31-4.5-64.33-19.79-11.13-12.15-12.81-28.05-11.89-43,2.09-33.61,15.29-66.1,28.11-98.22,5.26-13.19,10.37-27.88,2.8-40.37-4.48-7.4-12.92-12.92-22-17.05a118.76,118.76,0,0,0-42.3-10.15"/></g><g id="frame"><g class="cls-4"><rect class="cls-5" x="432.45" y="173.6" width="294.51" height="70.5" rx="19.76"/><g id="finger"><path class="cls-6" d="M344.54,345.93a1121.65,1121.65,0,0,1,55.39-108.51c3.19-5.49,8.75-11.82,14.61-9.36a11.14,11.14,0,0,1,4.59,4.29c6.24,9.25,7.19,21.27,5,32.21s-7.15,21.09-12.09,31.1L378.43,363.8"/><path class="cls-7" d="M414.54,228.06a11.14,11.14,0,0,1,4.59,4.29,35.19,35.19,0,0,1,5.27,13.11c-6.59,16.59-13.43,30.1-24.48,24.87-9-4.28-8.4-13.25-4.54-25q2.26-4,4.55-7.91C403.12,231.93,408.68,225.6,414.54,228.06Z"/></g><path class="cls-8" d="M581.75,34.3V300.47h-209V34.3h209m3-3h-215V303.47h215V31.3Z"/></g></g><g id="frame-2" data-name="frame"><g class="cls-9"><rect class="cls-5" x="665.37" y="629.8" width="294.51" height="70.5" rx="19.76"/><g id="finger-2" data-name="finger"><path class="cls-6" d="M646.46,774.13a1121.65,1121.65,0,0,1,55.39-108.51c3.18-5.49,8.75-11.82,14.6-9.36a11.08,11.08,0,0,1,4.6,4.28c6.23,9.25,7.19,21.27,5,32.22s-7.16,21.09-12.09,31.09L680.35,792"/><path class="cls-7" d="M716.45,656.26a11.08,11.08,0,0,1,4.6,4.28,35.47,35.47,0,0,1,5.27,13.12c-6.59,16.58-13.44,30.1-24.48,24.86-9-4.27-8.41-13.24-4.54-25q2.25-4,4.55-7.91C705,660.13,710.6,653.8,716.45,656.26Z"/></g><path class="cls-8" d="M814.86,485.59V751.77h-209V485.59h209m3-3h-215V754.77h215V482.59Z"/></g></g><g id="frame-3" data-name="frame"><g class="cls-10"><rect class="cls-5" x="665.29" y="173.8" width="294.51" height="70.5" rx="19.76"/><path class="cls-8" d="M814.58,34.5V300.67h-209V34.5h209m3-3h-215V303.67h215V31.5Z"/></g></g><g id="frame-4" data-name="frame"><g class="cls-11"><rect class="cls-5" x="90.2" y="403.8" width="294.51" height="70.5" rx="19.76"/><g id="finger-3" data-name="finger"><path class="cls-6" d="M51.29,538.13a1121.65,1121.65,0,0,1,55.39-108.51c3.19-5.49,8.75-11.82,14.61-9.36a11.05,11.05,0,0,1,4.59,4.28c6.24,9.25,7.19,21.27,5,32.22s-7.15,21.09-12.09,31.09L85.18,556"/><path class="cls-7" d="M121.29,420.26a11.05,11.05,0,0,1,4.59,4.28,35.3,35.3,0,0,1,5.27,13.12c-6.59,16.58-13.43,30.1-24.47,24.86-9-4.27-8.41-13.24-4.55-25q2.27-4,4.55-7.91C109.87,424.13,115.43,417.8,121.29,420.26Z"/></g><g id="tap"><polygon class="cls-2" points="101.59 401.11 77.88 376.34 69.45 396.36 96.85 412.17 101.59 401.11"/><polygon class="cls-2" points="91.62 419.71 61.54 415.33 64.18 433.25 89.47 431.01 91.62 419.71"/><polygon class="cls-2" points="145.85 419.71 175.36 415.33 175.36 428.51 145.85 424.29 145.85 419.71"/><polygon class="cls-2" points="147.96 433.25 177.77 448 171.67 460.65 145.85 441.69 147.96 433.25"/><polygon class="cls-2" points="145.85 458.54 166.4 474.88 156.13 487.86 140.58 463.67 145.85 458.54"/></g><path class="cls-8" d="M239.5,264.5V530.67H30.5V264.5h209m3-3H27.5V533.67h215V261.5Z"/></g></g><rect class="cls-12" x="617.67" y="766" width="185.42" height="45.93"/><text class="cls-13" transform="translate(631.18 797.7)">onLongPress</text><rect class="cls-12" x="41.92" y="544.74" width="185.42" height="45.93"/><text class="cls-13" transform="translate(69.84 576.44)">onPressIn</text><rect class="cls-12" x="616.92" y="314.74" width="185.42" height="45.93"/><text class="cls-13" transform="translate(659.23 346.44)">onPress</text><rect class="cls-12" x="384.92" y="314.74" width="185.42" height="45.93"/><text class="cls-13" transform="translate(405.64 346.44)">onPressOut</text><text class="cls-14" transform="translate(703.75 560)">!</text><g id="frame-5" data-name="frame"><g class="cls-15"><rect class="cls-5" x="433.17" y="625.01" width="294.51" height="70.5" rx="19.76"/><g id="finger-4" data-name="finger"><path class="cls-6" d="M394.26,759.34a1123.83,1123.83,0,0,1,55.38-108.51c3.19-5.49,8.76-11.82,14.61-9.36a11,11,0,0,1,4.59,4.29c6.24,9.25,7.19,21.27,5,32.21s-7.16,21.09-12.09,31.1l-33.63,68.15"/><path class="cls-7" d="M464.25,641.47a11,11,0,0,1,4.59,4.29,35.27,35.27,0,0,1,5.28,13.11c-6.59,16.59-13.44,30.11-24.48,24.87-9-4.28-8.41-13.25-4.54-25q2.25-4,4.54-7.91C452.83,645.34,458.4,639,464.25,641.47Z"/></g><path class="cls-8" d="M582.47,485.72V751.89h-209V485.72h209m3-3h-215V754.89h215V482.72Z"/><text class="cls-14" transform="translate(460.94 559.95)">...</text></g></g><circle class="cls-2" cx="443.5" cy="793.5" r="18.5"/><line class="cls-16" x1="443.84" y1="782.06" x2="443.84" y2="793.04"/><line class="cls-16" x1="437.1" y1="802.92" x2="443.66" y2="794.12"/><text class="cls-17" transform="translate(466.73 801.97)">500ms</text><g id="frame-6" data-name="frame"><g class="cls-18"><rect class="cls-5" x="898.62" y="625.15" width="294.51" height="70.5" rx="19.76"/><g id="finger-5" data-name="finger"><path class="cls-6" d="M810.71,797.48A1121.65,1121.65,0,0,1,866.1,689c3.19-5.49,8.75-11.82,14.6-9.36a11.08,11.08,0,0,1,4.6,4.28c6.24,9.25,7.19,21.27,5,32.22s-7.15,21.09-12.09,31.09L844.6,815.35"/><path class="cls-7" d="M880.7,679.61a11.08,11.08,0,0,1,4.6,4.28A35.3,35.3,0,0,1,890.57,697c-6.59,16.58-13.43,30.1-24.48,24.86-9-4.27-8.41-13.24-4.54-25q2.26-4,4.55-7.91C869.29,683.48,874.85,677.15,880.7,679.61Z"/></g><path class="cls-8" d="M1047.92,485.85V752h-209V485.85h209m3-3h-215V755h215V482.85Z"/></g></g><rect class="cls-12" x="851.09" y="766.29" width="185.42" height="45.93"/><text class="cls-13" transform="translate(871.8 797.99)">onPressOut</text></svg>
