<svg xmlns="http://www.w3.org/2000/svg" viewBox="0 0 225 542"><defs><style>.cls-1{fill:#a21732;}.cls-2{fill:#d23c6f;}.cls-3{fill:#7b1619;}.cls-4,.cls-5{fill:#fff;}.cls-5,.cls-8{font-size:18px;}.cls-5{font-family:source-code-pro,Menlo,Monaco,Consolas,Courier New,monospace;font-weight:700;}.cls-6{fill:#08a5d3;}.cls-7{fill:#99d5e7;}.cls-8{fill:#134484;font-family:source-code-pro,Menlo,Monaco,Consolas,Courier New,monospace}.cls-9{fill:#b3bfe0;}.cls-10{fill:#8893aa;}.cls-11{fill:#54596a;}.cls-12{fill:#afbdd3;}.cls-13{fill:#c7d7f9;}.cls-14{fill:#face96;}</style></defs><g id="Layer_2" data-name="Layer 2"><g id="ship"><rect class="cls-1" x="75.94" y="56.98" width="3.15" height="29.17"/><polygon class="cls-1" points="25.59 87.15 25.59 66.03 66.5 66.03 57.05 73.07 57.05 87.15 25.59 87.15"/><polygon class="cls-1" points="87.42 83.77 163.07 57.38 162.92 59.39 97.87 87.44 87.42 83.77"/><polygon class="cls-2" points="13 82.12 142.02 82.12 101.11 114.31 21.39 114.31 13 82.12"/><path class="cls-3" d="M75.24,23.93V69.05c14.55-14.79,33.61-23.81,56.29-28.17Q103.38,26.54,75.24,23.93Z"/><path class="cls-4" d="M82.63,45.06C84,43,85.8,43.49,87,43.58c3.12.25,4.37-1.25,5.12-3.76.53-1.75,1.23-3.45,1.86-5.19,2.06,0,2.87.66,2.07,2.47l-2.78,6.25L98,45.74c-.23,1.5-.91,1.4-1.94,1-4.05-1.38-4.19-1.28-5.83,2.6-.65,1.54-1.39,3-2.18,4.76-2.12-1.29-1.15-2.5-.61-3.62s1.24-2.31,2.17-4Z"/><text class="cls-5" transform="translate(37.72 99.03) scale(1.04 1)">app://</text><circle class="cls-4" cx="86.43" cy="36.36" r="4.2"/></g><path id="water_column" data-name="water column" class="cls-6" d="M214.81,104.85c-5.45-.8-10.56-2.68-16.06-3.25-11.61-1.22-23.26,3.49-34.88,2.25-5-.54-9.73-2.16-14.77-2.39-10-.44-19.31,4.62-29.28,4.13-8.66-.42-16.42-5-25.09-4.69-5.36.17-10.28,2.19-15.55,2.93-12,1.69-24.29-3.34-36.36-1.91-4.75.56-9.24,2.11-14,2.5C19.3,105.21,9.38,102,0,101V542H225V105A38.22,38.22,0,0,1,214.81,104.85Z"/><path id="sand" class="cls-7" d="M185.85,474.43c-16.44,1.17-32.27,4.87-48.65,6.39-27,2.5-54.31-1-81.4-3-9.89-.72-19.83-1.21-29.79-1.15a204.58,204.58,0,0,0-26,1.68V542H225V475.32C211.94,474.19,198.89,473.51,185.85,474.43Z"/><text class="cls-8" transform="translate(26 513.16)">user data</text><g id="claw"><path class="cls-9" d="M164,417a3,3,0,1,1-3,3,3,3,0,0,1,3-3m0-4a7,7,0,1,0,7,7,7,7,0,0,0-7-7Z"/><path class="cls-10" d="M164,417a3,3,0,1,1-3,3,3,3,0,0,1,3-3m0-2a5,5,0,1,0,5,5,5,5,0,0,0-5-5Z"/><polygon class="cls-11" points="168.45 429.24 194 454 185 456 185 448 176 448 176 440 168 441 168.45 429.24"/><polygon class="cls-11" points="137 461 132.54 453.79 160.34 429.91 162 438 153.74 436.38 155 445 145.19 443.75 146 454 137 451 137 461"/><polygon class="cls-12" points="128 418 164 420 164 427 132 456 128 418"/><polygon class="cls-12" points="197 420 164 420 164 427 194.41 454.76 197 420"/><circle class="cls-9" cx="163.5" cy="424.5" r="3.5"/><path class="cls-11" d="M163.5,422a2.5,2.5,0,1,1-2.5,2.5,2.5,2.5,0,0,1,2.5-2.5m0-2a4.5,4.5,0,1,0,4.5,4.5,4.49,4.49,0,0,0-4.5-4.5Z"/><polygon class="cls-13" points="146.7 419.04 137.59 450.93 145.9 443.4 149.81 419.21 146.7 419.04"/><polygon class="cls-13" points="151.89 419.33 150.29 439.43 154.86 435.28 153.15 419.4 151.89 419.33"/><polygon class="cls-13" points="180.04 420 180.9 442.43 187.74 448.68 182.19 420 180.04 420"/><polygon class="cls-13" points="176.83 420 174.13 436.24 176.36 438.29 177.77 420 176.83 420"/></g><path id="rope" d="M163.87,323.53c0-10.27-.07-20.55-.17-30.82-.14-13.65-.34-27.29-.52-40.94,0-3.3-.18-6.6-.18-9.9q0-36.1,0-72.22,0-32.43,0-64.88c0-14.73.23-29.28.26-44a6.72,6.72,0,0,1-.38-.76,1.92,1.92,0,0,1-1.28,1q-.06,30.87-.08,61.75,0,27,.1,54.1.1,29,.27,58c0,3.16-.05,6.33.06,9.48.32,9.54.59,19.07.65,28.63.15,22.63.46,45.26.5,67.89,0,24,.2,48-.19,72,0,1.35,0,2.7,0,4.05l.75.11c0-1.61,0-3,0-4.46.13-12.78.34-25.57.36-38.35C164,357.3,163.93,340.42,163.87,323.53Z"/><g id="chest"><path class="cls-10" d="M167.24,463.26l-1.69.4C172,465,183,469.26,183,482l-21,11c-2.95-21.6-13.29-18.36-21.87-18.6a27.47,27.47,0,0,0-4.32,4C158.89,473.05,157,495,157,495l-25-5.77c1,12,0,28.77,0,28.77l27,8,28-21,.74-21.2S186,459,167.24,463.26ZM157,521l-23-7,1-19,22,4Zm26-19-22,15V498l11-5s4,9,5-3l7-4Z"/><path class="cls-14" d="M172,493l-11,5v19l22-15,1-16-7,4C176,502,172,493,172,493Z"/><path class="cls-14" d="M162,493l21-11c0-12.74-11-17-17.45-18.34-10.34,2.5-19.34,6.15-25.42,10.74C148.71,474.64,159.05,471.4,162,493Z"/><path class="cls-14" d="M135.81,478.41A14.26,14.26,0,0,0,132,489c0,.08,0,.16,0,.23L157,495S158.89,473.05,135.81,478.41Z"/><polygon class="cls-14" points="134 514 157 521 157 499 135 495 134 514"/></g><text class="cls-5" transform="translate(151.7 347.59) rotate(-90) scale(1.04 1)">deep linking</text></g></svg>