<svg xmlns="http://www.w3.org/2000/svg" viewBox="0 0 225 542"><defs><style>.cls-4,.cls-5{fill:#fff}.cls-5{font-size:18px;font-family:source-code-pro,Menlo,Monaco,Consolas,Courier New,monospace;font-weight:700}.cls-9{fill:#b3bfe0}.cls-10{fill:#8893aa}.cls-11{fill:#54596a}.cls-14{fill:#face96}</style></defs><g id="Layer_2" data-name="Layer 2"><g id="ship"><path d="M75.94 56.98h3.15v29.17h-3.15zM25.59 87.15V66.03H66.5l-9.45 7.04v14.08H25.59zm61.83-3.38l75.65-26.39-.15 2.01-65.05 28.05-10.45-3.67z" fill="#a21732"/><path fill="#d23c6f" d="M13 82.12h129.02l-40.91 32.19H21.39L13 82.12z"/><path d="M75.24 23.93v45.12c14.55-14.79 33.61-23.81 56.29-28.17q-28.15-14.34-56.29-16.95z" fill="#7b1619"/><path class="cls-4" d="M82.63 45.06C84 43 85.8 43.49 87 43.58c3.12.25 4.37-1.25 5.12-3.76.53-1.75 1.23-3.45 1.86-5.19 2.06 0 2.87.66 2.07 2.47l-2.78 6.25L98 45.74c-.23 1.5-.91 1.4-1.94 1-4.05-1.38-4.19-1.28-5.83 2.6-.65 1.54-1.39 3-2.18 4.76-2.12-1.29-1.15-2.5-.61-3.62s1.24-2.31 2.17-4z"/><text class="cls-5" transform="matrix(1.04 0 0 1 37.72 99.03)">app://</text><circle class="cls-4" cx="86.43" cy="36.36" r="4.2"/></g><path id="water_column" data-name="water column" d="M214.81 104.85c-5.45-.8-10.56-2.68-16.06-3.25-11.61-1.22-23.26 3.49-34.88 2.25-5-.54-9.73-2.16-14.77-2.39-10-.44-19.31 4.62-29.28 4.13-8.66-.42-16.42-5-25.09-4.69-5.36.17-10.28 2.19-15.55 2.93-12 1.69-24.29-3.34-36.36-1.91-4.75.56-9.24 2.11-14 2.5C19.3 105.21 9.38 102 0 101v441h225V105a38.22 38.22 0 01-10.19-.15z" fill="#08a5d3"/><path id="sand" d="M185.85 474.43c-16.44 1.17-32.27 4.87-48.65 6.39-27 2.5-54.31-1-81.4-3-9.89-.72-19.83-1.21-29.79-1.15a204.58 204.58 0 00-26 1.68V542H225v-66.68c-13.06-1.13-26.11-1.81-39.15-.89z" fill="#99d5e7"/><text transform="translate(26 513.16)" fill="#134484" font-family="source-code-pro,Menlo,Monaco,Consolas,Courier New,monospace" font-size="18">user data</text><g id="claw"><path class="cls-9" d="M164 417a3 3 0 11-3 3 3 3 0 013-3m0-4a7 7 0 107 7 7 7 0 00-7-7z"/><path class="cls-10" d="M164 417a3 3 0 11-3 3 3 3 0 013-3m0-2a5 5 0 105 5 5 5 0 00-5-5z"/><path class="cls-11" d="M168.45 429.24L194 454l-9 2v-8h-9v-8l-8 1 .45-11.76zM137 461l-4.46-7.21 27.8-23.88L162 438l-8.26-1.62L155 445l-9.81-1.25L146 454l-9-3v10z"/><path d="M128 418l36 2v7l-32 29-4-38zm69 2h-33v7l30.41 27.76L197 420z" fill="#afbdd3"/><circle class="cls-9" cx="163.5" cy="424.5" r="3.5"/><path class="cls-11" d="M163.5 422a2.5 2.5 0 11-2.5 2.5 2.5 2.5 0 012.5-2.5m0-2a4.5 4.5 0 104.5 4.5 4.49 4.49 0 00-4.5-4.5z"/><path d="M146.7 419.04l-9.11 31.89 8.31-7.53 3.91-24.19-3.11-.17zm5.19.29l-1.6 20.1 4.57-4.15-1.71-15.88-1.26-.07zm28.15.67l.86 22.43 6.84 6.25-5.55-28.68h-2.15zm-3.21 0l-2.7 16.24 2.23 2.05 1.41-18.29h-.94z" fill="#c7d7f9"/></g><path id="rope" d="M163.87 323.53c0-10.27-.07-20.55-.17-30.82-.14-13.65-.34-27.29-.52-40.94 0-3.3-.18-6.6-.18-9.9v-137.1c0-14.73.23-29.28.26-44a6.72 6.72 0 01-.38-.76 1.92 1.92 0 01-1.28 1q-.06 30.87-.08 61.75 0 27 .1 54.1.1 29 .27 58c0 3.16-.05 6.33.06 9.48.32 9.54.59 19.07.65 28.63.15 22.63.46 45.26.5 67.89 0 24 .2 48-.19 72v4.05l.75.11v-4.46c.13-12.78.34-25.57.36-38.35-.02-16.91-.09-33.79-.15-50.68z"/><g id="chest"><path class="cls-10" d="M167.24 463.26l-1.69.4C172 465 183 469.26 183 482l-21 11c-2.95-21.6-13.29-18.36-21.87-18.6a27.47 27.47 0 00-4.32 4C158.89 473.05 157 495 157 495l-25-5.77c1 12 0 28.77 0 28.77l27 8 28-21 .74-21.2s-1.74-24.8-20.5-20.54zM157 521l-23-7 1-19 22 4zm26-19l-22 15v-19l11-5s4 9 5-3l7-4z"/><path class="cls-14" d="M172 493l-11 5v19l22-15 1-16-7 4c-1 12-5 3-5 3zm-10 0l21-11c0-12.74-11-17-17.45-18.34-10.34 2.5-19.34 6.15-25.42 10.74 8.58.24 18.92-3 21.87 18.6z"/><path class="cls-14" d="M135.81 478.41A14.26 14.26 0 00132 489v.23l25 5.77s1.89-21.95-21.19-16.59zM134 514l23 7v-22l-22-4-1 19z"/></g><text class="cls-5" transform="matrix(0 -1.04 1 0 151.7 347.59)">deep linking</text></g></svg>