<svg xmlns="http://www.w3.org/2000/svg" viewBox="0 0 1221 828"><defs><style>.cls-16{fill:#99d5e7}.cls-3{fill:#d5e2f5}.cls-5{fill:#e9e8e8;mix-blend-mode:multiply}.cls-6{fill:#f29dc4}.cls-29,.cls-7{fill:#fff}.cls-17,.cls-20{font-family:-apple-system, BlinkMacSystemFont, 'Segoe UI', Helvetica, Arial, sans-serif, 'Apple Color Emoji', 'Segoe UI Emoji', 'Segoe UI Symbol'}.cls-10,.cls-12,.cls-17{font-size:28px}.cls-10{fill:#134484}.cls-10,.cls-12{font-family:source-code-pro,Menlo,Monaco,Consolas,Courier New,monospace}.cls-11,.cls-13,.cls-18,.cls-25{fill:none;stroke-miterlimit:10}.cls-11{stroke:#134484}.cls-11,.cls-13{stroke-width:3px}.cls-12,.cls-27{fill:#374d9c}.cls-13{stroke:#374d9c}.cls-14{fill:#71c9e4}.cls-15{fill:#09a5d3}.cls-18{stroke:#99d5e7}.cls-18,.cls-25{stroke-width:2px}.cls-19{fill:#0069ac}.cls-20{font-size:32px}.cls-23{fill:#1f2129}.cls-24{fill:#97aad8}.cls-25{stroke:#d5e2f5}.cls-26{fill:#5971b5}.cls-29{opacity:.7}</style></defs><g style="isolation:isolate"><g id="Layer_3" data-name="Layer 3"><g id="Example"><path opacity=".5" fill="#99d5e7" d="M347 474h797v354H347z"/><path class="cls-3" d="M44 0h794v354H44z"/><path fill="#e9e8e8" d="M309 277h575v245H309z"/><path class="cls-5" d="M309 277h575v245H309z"/><path class="cls-5" d="M309 277h575v245H309z"/><path class="cls-6" d="M309 277h575v245H309z"/><path class="cls-7" d="M369 325.5h452v135H369z"/><g id="Pouncival"><path d="M527.84 388.44s-13.09 4-18.12 27.17c0 0-5.6-3.18-18.19-2.46-.64 0-1.27.07-1.86.13l-.57.05-.92.1c-.53.05-1.05.1-1.61.17a22.35 22.35 0 00-6.86 2c-5-23.15-18.11-27.17-18.11-27.17-18.12 28.18-3 36.23-6 64.41-1.6 14.89 26.35 15.88 40 15.49 14.15.25 39.84-1.24 38.3-15.53-3.04-28.13 12.1-36.18-6.06-64.36z" transform="translate(-32 -38)" fill="#d23c6f"/><text transform="translate(526.99 405.37)" font-family="-apple-system, BlinkMacSystemFont, 'Segoe UI', Helvetica, Arial, sans-serif, 'Apple Color Emoji', 'Segoe UI Emoji', 'Segoe UI Symbol'" font-size="50.24">Pouncival</text><circle class="cls-6" cx="477.9" cy="398.14" r="14.36"/></g></g><g id="iOS_views" data-name="iOS views"><text class="cls-10" transform="translate(544.05 651.5)">UIView</text><text class="cls-10" transform="translate(396.32 574.93)">UIImageView</text><text class="cls-10" transform="translate(624.8 578.93)">UITextView</text><path class="cls-11" d="M530 640.5l-148.69-.5V461.5M660.05 641.67l148.69-.5v-178.5M463.5 541v-93M696.5 541V424"/></g><g id="Android_views" data-name="Android views"><text class="cls-12" transform="translate(517.85 156.5)">ViewGroup</text><text class="cls-12" transform="translate(393.13 233.93)">ImageView</text><text class="cls-12" transform="translate(641.04 233.93)">TextView</text><path class="cls-13" d="M463.5 340v-93M696.5 360V243"/><path class="cls-11" d="M506.62 146.26l-127.69.5v178.5M680.67 145.09l125.69.5v179.5"/></g></g><g id="ios"><path class="cls-14" d="M586.84 758.15c0 3.44-2.55 6.14-6.69 6.14-4 0-6.54-2.7-6.52-6.14s2.57-6.16 6.61-6.16 6.55 2.61 6.6 6.16zm-13.1 45.18v-35.42h13v35.42zM640.88 778.58c0 15.61-9.38 25.54-24.35 25.54s-23.32-11.28-23.32-24.77c0-14.13 9.26-25.34 24.13-25.34 15.6-.01 23.54 11.57 23.54 24.57zm-33.91.54c0 9.13 4 14.71 10.19 14.71s10-6.09 10-14.84c0-8.35-3.75-14.69-10-14.69-6.22 0-10.16 5.89-10.16 14.82zM648.67 790.41a29.89 29.89 0 0012.58 3c4.45 0 6.65-1.54 6.65-4s-2.18-3.69-7.67-5.57c-8.17-2.89-13.63-7.41-13.63-14.63 0-8.59 7.24-15.18 19.5-15.18a31.62 31.62 0 0113.12 2.49l-2.72 10.39a25.58 25.58 0 00-10.5-2.3c-4 0-6.14 1.46-6.14 3.58 0 2.47 2.58 3.46 8.7 5.75 8.75 3.2 12.65 7.88 12.65 14.63 0 8.39-6.51 15.52-20.68 15.52a34.76 34.76 0 01-14.27-3z" transform="translate(-32 -38)"/><g id="app"><g id="nav"><path class="cls-7" d="M885 82h315v632H885z"/><path class="cls-15" d="M892 677h305v68H892z"/><path class="cls-16" d="M1078.76 738.9c-6.17 0-11.52 1.49-14.21 3.67-.77-1.43-5-2.36-6.43-2.36-2 0 1.31 2.62 1.31 5.24s-3.27 5.24-1.31 5.24c1.44 0 5.66-.94 6.43-2.37 2.69 2.19 8 3.68 14.21 3.68 8.61 0 15.63-2.9 16-6.55-.37-3.65-7.39-6.55-16-6.55zM1178.46 732s-4 1.22-5.47 8.2c0 0-1.69-1-5.49-.74l-1.5.14a6.66 6.66 0 00-2.07.61c-1.52-7-5.47-8.21-5.47-8.21-5.47 8.51-.91 10.94-1.82 19.45-.49 4.49 7.95 4.79 12.08 4.68 4.27.07 12-.38 11.56-4.69-.91-8.5 3.65-10.93-1.82-19.44zM978.31 755a.78.78 0 01-.57-.23s-8.31-8-8.46-8.16-1.34-1.68-1.6-2.11a7.94 7.94 0 01-.7-1.57 5.85 5.85 0 01-.3-1.8 6 6 0 011.64-4.46 6.27 6.27 0 014.56-1.61 5 5 0 011.64.28 6.61 6.61 0 011.56.75c.48.32.9.61 1.24.89a11.94 11.94 0 011 .88 11.94 11.94 0 011-.88c.34-.28.75-.57 1.23-.89a6.8 6.8 0 011.56-.75 5.11 5.11 0 011.65-.28 6.26 6.26 0 014.55 1.61 5.94 5.94 0 011.65 4.46c0 1.92-1 3.86-3 5.85l-8.09 7.79a.81.81 0 01-.57.23" transform="translate(-32 -38)"/></g><g id="Choupette"><path class="cls-16" d="M994.8 695.53a65.82 65.82 0 01-6.94.86 20.79 20.79 0 004.13-6.48s-1.54 3.07-6.43 4.22a71.14 71.14 0 01.63-8c.67-1.8 2.75-8.13.6-12.53a12.93 12.93 0 01-.29 5.37c-.25-3.69-1.27-8.17-4-14.83a15.37 15.37 0 00-9.72 11.52 38.72 38.72 0 01.1-5.47 25.24 25.24 0 00-2 7.69 43.85 43.85 0 00-4.86 0 25.44 25.44 0 00-2.05-7.78 38.75 38.75 0 01.11 5.47 15.37 15.37 0 00-9.72-11.52c-2.75 6.66-3.77 11.14-4 14.83a13 13 0 01-.28-5.37c-2.16 4.4-.08 10.73.59 12.53a70.94 70.94 0 01.64 8c-4.9-1.15-6.44-4.22-6.44-4.22a21 21 0 004.13 6.48 66.29 66.29 0 01-6.94-.86 33.47 33.47 0 007.4 7.58 15.57 15.57 0 01-6.28-1.95c4.56 5.25 12.58 6.79 18 7.21v.28a71.25 71.25 0 008.75.2c3.36 0 5.81-.25 5.81-.25v-.18c5.42-.42 13.45-2 18-7.22a15.49 15.49 0 01-6.28 2 33.26 33.26 0 007.34-7.58z" transform="translate(-32 -38)"/><text class="cls-17" transform="translate(972.36 657.03)">Choupette</text></g><g id="Mrs_Norris" data-name="Mrs Norris"><path class="cls-18" d="M970 616h208"/><path class="cls-15" d="M987 604.42s-4.7 1.45-8 8.71a35.16 35.16 0 012 11.87c0 10-4 18.76-10.06 24 8.07-.05 20.21-1.32 19.42-8.67-1.68-15.72 6.73-20.21-3.36-35.91z" transform="translate(-32 -38)"/><path class="cls-16" d="M981 625a35.16 35.16 0 00-2-11.87 32.19 32.19 0 00-2.08 6.43s-3.12-1.77-10.14-1.37l-1 .07h-.32l-.51.05-.9.1a12.51 12.51 0 00-3.83 1.11c-2.8-12.9-10.09-15.14-10.09-15.14-10.1 15.7-1.68 20.19-3.37 35.89-.88 8.3 14.69 8.85 22.3 8.63h1.93C977 643.76 981 635 981 625z" transform="translate(-32 -38)"/><circle class="cls-15" cx="924.5" cy="593.5" r="7.5"/><text class="cls-17" transform="translate(972.36 597.03)">Mrs. Norris</text></g><g id="Tuna"><path class="cls-18" d="M970 556h208"/><path class="cls-19" d="M987 544.42s-7.29 2.24-10.09 15.14c0 0-3.12-1.77-10.14-1.37l-1 .07h-.32l-.51.05-.9.1a12.51 12.51 0 00-3.83 1.11c-2.8-12.9-10.09-15.14-10.09-15.14-10.1 15.7-1.68 20.19-3.37 35.89-.88 8.3 14.69 8.85 22.3 8.63 7.89.14 22.2-.69 21.35-8.65-1.72-15.64 6.69-20.13-3.4-35.83z" transform="translate(-32 -38)"/><text class="cls-17" transform="translate(972.36 537.03)">Tuna</text></g><g id="Tabby"><path class="cls-18" d="M970 496h208"/><path class="cls-15" d="M989.52 514a164.53 164.53 0 01-1.62-31.36s-8.19 2.52-11.51 16.89c-.13-.67-16.5-.56-16.63.1-3.32-14.37-11.51-16.9-11.51-16.9a165.73 165.73 0 01-1.61 31.37 12 12 0 008.2 13.37l6.92 3.11a15.57 15.57 0 0013-.12l6.52-3.08a12 12 0 008.24-13.38z" transform="translate(-32 -38)"/><path class="cls-14" d="M969 506.39s2.37-1.44 2-7.3h-2c.54 2.11 1.11 5.43 0 7.3zM955 513s-2 4.62-1.65 13.87a10.78 10.78 0 001.49.6l1.83.83A26.62 26.62 0 01955 513zM982 513c2.15 5-1.36 12.12-3.52 15.71l2.83-1.33a12.26 12.26 0 001.93-.81C984.93 518.16 982 513 982 513zM965.57 531.72c-1.56-1.08-6.86-5.1-5.73-9.23a12.25 12.25 0 00.14 7.29M959.87 522.39c0-.13.08-.26.13-.39a3.46 3.46 0 00-.13.39zM959.84 522.49v-.1zM976 524l-3.68 7.35a14.88 14.88 0 002.47-.89l1.25-.59A16.69 16.69 0 00976 524zM963 511c-1.8-3-1.08-8.13-.22-11.78-1.76.1-3 .23-3 .41 0-.24-.12-.48-.18-.72-.6 9.7 3.4 12.09 3.4 12.09zM972.7 511.58s4-2.4 3.41-12.18a21.74 21.74 0 00-3.35-.27c.92 3.66 1.84 9.27-.06 12.45zM966.35 506.05c-1.06-1.77-.61-4.82-.1-6.95h-1.88c-.28 5.58 1.98 6.95 1.98 6.95z" transform="translate(-32 -38)"/><text class="cls-17" transform="translate(972.36 477.03)">Tabby</text></g><g id="Rum_Tum_Tugger" data-name="Rum Tum Tugger"><path class="cls-18" d="M970 436h208"/><text class="cls-17" transform="translate(972.36 417.03)">Rum Tum Tugger</text><path class="cls-14" d="M994.64 455.79a66.64 66.64 0 01-7 .87 21.07 21.07 0 004.19-6.58s-1.34 2.67-5.47 4a26.94 26.94 0 01-14.36 4.48 3.51 3.51 0 01-1.25 0H972c2.15-.32 7-2.24 13.9-11.86v-.42c.68-1.82 2.79-8.26.6-12.73a13.37 13.37 0 01-.29 5.46c-.25-3.75-1.29-8.3-4.08-15.07a15.63 15.63 0 00-9.88 11.7 39.92 39.92 0 01.11-5.55 25.92 25.92 0 00-2.07 7.81 45.13 45.13 0 00-4.93 0 26 26 0 00-2.08-7.9 38.43 38.43 0 01.11 5.55 15.63 15.63 0 00-9.88-11.7c-2.79 6.77-3.83 11.32-4.08 15.07a13.37 13.37 0 01-.29-5.46 13.23 13.23 0 00-.71 7.74l.39-.38c4.78 10.64 12.74 15 12.74 15-7.32 2.24-11.38.44-13.63-2.34a8.65 8.65 0 01-4.07-3.45 21.07 21.07 0 004.19 6.58 66.64 66.64 0 01-7-.87 33.9 33.9 0 007.52 7.7 15.82 15.82 0 01-6.38-2 18.43 18.43 0 006.81 4.76c8.35-.78 10.93-3.26 11.65-4.28l.26-.43a2 2 0 01-.26.43 25.07 25.07 0 01-4.76 6.28 81 81 0 0013.44 1.08 66.71 66.71 0 007.69-.62 13.59 13.59 0 01-3.5-7.5c4.18 8.4 16.2 3.35 16.2 3.35l-.2.31a16.54 16.54 0 004-3.32 15.82 15.82 0 01-6.38 2 33.9 33.9 0 007.5-7.71z" transform="translate(-32 -38)"/><path class="cls-15" d="M961.56 455.82s-8-4.32-12.74-15l-.39.38a26.67 26.67 0 001.32 5 70.93 70.93 0 01.64 8.09 12.86 12.86 0 01-2.46-.84c2.25 2.81 6.31 4.61 13.63 2.37zM960.63 461.92c-.72 1-3.3 3.5-11.65 4.28a32.74 32.74 0 006.89 2 25.07 25.07 0 004.76-6.28z" transform="translate(-32 -38)"/><path class="cls-16" d="M960.63 461.92a2 2 0 00.26-.43zM972 458.56h-1.25a3.51 3.51 0 001.25 0z" transform="translate(-32 -38)"/><path class="cls-15" d="M972 458.56a26.94 26.94 0 0014.36-4.49c-.34.11-.69.21-1.06.3a66.9 66.9 0 01.6-7.67c-6.96 9.62-11.8 11.54-13.9 11.86z" transform="translate(-32 -38)"/><path class="cls-16" d="M989.5 464.82a31.69 31.69 0 01-12.5 3.84" transform="translate(-32 -38)"/><path class="cls-15" d="M973.5 461.16a13.59 13.59 0 003.5 7.5 31.69 31.69 0 0012.5-3.84l.2-.31s-12.02 5.05-16.2-3.35z" transform="translate(-32 -38)"/></g><g id="Pouncival-2" data-name="Pouncival"><path class="cls-18" d="M970 376h208"/><path class="cls-15" d="M987 364.42s-7.29 2.24-10.09 15.14c0 0-3.12-1.77-10.14-1.37l-1 .07H964.94l-.9.1a12.51 12.51 0 00-3.83 1.11c-2.8-12.9-10.09-15.14-10.09-15.14-10.1 15.7-1.68 20.19-3.37 35.89-.88 8.3 14.69 8.85 22.3 8.63 7.89.14 22.2-.69 21.35-8.65-1.72-15.59 6.69-20.08-3.4-35.78z" transform="translate(-32 -38)"/><text class="cls-17" transform="translate(972.36 357.03)">Pouncival</text><circle class="cls-16" cx="945" cy="353" r="8"/></g><g id="Spot"><path class="cls-18" d="M970 316h208"/><text class="cls-17" transform="translate(972.36 297.03)">Spot</text><path class="cls-14" d="M989.7 334.05a165.62 165.62 0 01-1.61-31.36s-8.19 2.52-11.51 16.89c-.13-.67-16.51-.56-16.63.1-3.32-14.37-11.51-16.9-11.51-16.9a164.7 164.7 0 01-1.62 31.37 12 12 0 008.18 13.37l6.92 3.11a15.55 15.55 0 0013-.12l6.53-3.08a12 12 0 008.25-13.38z" transform="translate(-32 -38)"/></g><g id="Maru"><path class="cls-18" d="M970 256h208"/><text class="cls-17" transform="translate(972.36 237.03)">Maru</text><path class="cls-14" d="M985 272a11.9 11.9 0 015.23 1.21c.74-10.5 5.18-15.8-3.24-28.89 0 0-7.29 2.24-10.09 15.14 0 0-3.12-1.77-10.14-1.37l-.81.06c-.51 10.51-7.89 18.85-17 18.85a15.76 15.76 0 01-2.07-.16c0 1.07-.09 2.2-.22 3.4-.88 8.29 14.69 8.85 22.3 8.63 1.49 0 3.2 0 5-.07a11.83 11.83 0 01-1-4.8A12 12 0 01985 272z" transform="translate(-32 -38)"/><path class="cls-15" d="M990.36 280.21a38.82 38.82 0 01-.13-7A12 12 0 00974 288.8c7.75-.36 17.05-2.12 16.36-8.59zM966 258.15h-.54l-.51.06-.9.09a12.65 12.65 0 00-3.83 1.12c-2.8-12.9-10.09-15.15-10.09-15.15-9.33 14.51-2.86 19.45-3.15 32.5a15.76 15.76 0 002.02.23c9.06 0 16.44-8.34 17-18.85z" transform="translate(-32 -38)"/></g><g id="header"><path class="cls-16" d="M888 85h312v104H888z"/><text class="cls-20" transform="translate(918.19 163.12)">Cat Cafe Menu</text></g><circle cx="1147.5" cy="715.5" r="4.5" fill="#a21732"/></g><g id="device"><path d="M1197.9 100H955.1c-30.43 0-55.1 26.67-55.1 57.1v586.8a55.1 55.1 0 0055.1 55.1h242.8a55.1 55.1 0 0055.1-55.1V157.1c0-30.43-24.67-57.1-55.1-57.1zm26.84 643.79a29.21 29.21 0 01-29.21 29.21h-237a30.69 30.69 0 01-30.68-30.69v-588a29.34 29.34 0 0129.3-29.31h30.12a5.43 5.43 0 015.43 5.43v.57a18.73 18.73 0 0018.74 18.73h128.16a18.2 18.2 0 0018.2-18.2v.84a7.37 7.37 0 017.37-7.37h28.93a30.64 30.64 0 0130.64 30.64z" transform="translate(-32 -38)" fill="#134484"/><rect class="cls-19" x="1022" y="90.29" width="42" height="7.41" rx="3"/><circle class="cls-23" cx="1076.5" cy="93.5" r="4.5"/><circle class="cls-14" cx="1076" cy="93" r="2"/></g></g><g id="Android"><g id="app-2" data-name="app"><path class="cls-7" d="M9 77h300v639H9z"/><g id="Choupette-2" data-name="Choupette"><path class="cls-24" d="M107.8 727.53a65.82 65.82 0 01-6.94.86 20.79 20.79 0 004.13-6.48s-1.54 3.07-6.43 4.22a71.14 71.14 0 01.63-8c.67-1.8 2.75-8.13.6-12.53a12.93 12.93 0 01-.29 5.4c-.25-3.69-1.27-8.17-4-14.83a15.37 15.37 0 00-9.72 11.52 38.72 38.72 0 01.1-5.47 25.24 25.24 0 00-2 7.69A43.85 43.85 0 0079 710a25.44 25.44 0 00-2-7.78 38.75 38.75 0 01.11 5.47 15.37 15.37 0 00-9.72-11.52c-2.75 6.66-3.77 11.14-4 14.83a13 13 0 01-.28-5.37c-2.16 4.4-.08 10.73.59 12.53a70.94 70.94 0 01.64 8c-4.9-1.15-6.44-4.22-6.44-4.22a21 21 0 004.13 6.48 66.29 66.29 0 01-6.94-.86 33.47 33.47 0 007.4 7.58 15.57 15.57 0 01-6.28-1.95c4.56 5.25 12.58 6.79 18 7.21v.28a71.25 71.25 0 008.75.2c3.36 0 5.81-.25 5.81-.25v-.18c5.42-.42 13.45-2 18-7.22a15.49 15.49 0 01-6.28 2 33.26 33.26 0 007.31-7.7z" transform="translate(-32 -38)"/><text class="cls-17" transform="translate(85.36 689.03)">Choupette</text></g><g id="Mrs_Norris-2" data-name="Mrs Norris"><path class="cls-25" d="M83 648h208"/><path class="cls-26" d="M100 636.42s-4.7 1.45-8 8.71A35.16 35.16 0 0194 657c0 10-4 18.76-10.06 24 8.07-.05 20.21-1.32 19.42-8.67-1.68-15.72 6.73-20.21-3.36-35.91z" transform="translate(-32 -38)"/><path class="cls-24" d="M94 657a35.16 35.16 0 00-2-11.87 32.19 32.19 0 00-2.08 6.43s-3.12-1.77-10.14-1.37l-1 .07h-.32l-.51.05-.9.1a12.51 12.51 0 00-3.83 1.11c-2.8-12.9-10.09-15.14-10.09-15.14-10.1 15.7-1.68 20.19-3.37 35.89-.88 8.3 14.69 8.85 22.3 8.63h1.93C90 675.76 94 667 94 657z" transform="translate(-32 -38)"/><circle class="cls-26" cx="37.5" cy="625.5" r="7.5"/><text class="cls-17" transform="translate(85.36 629.03)">Mrs. Norris</text></g><g id="Tuna-2" data-name="Tuna"><path class="cls-25" d="M83 588h208"/><path class="cls-27" d="M100 576.42s-7.29 2.24-10.09 15.14c0 0-3.12-1.77-10.14-1.37l-1 .07h-.32l-.51.05-.9.1a12.51 12.51 0 00-3.83 1.11c-2.8-12.9-10.09-15.14-10.09-15.14-10.1 15.7-1.68 20.19-3.37 35.89-.88 8.3 14.69 8.85 22.3 8.63 7.89.14 22.2-.69 21.35-8.65-1.72-15.64 6.69-20.13-3.4-35.83z" transform="translate(-32 -38)"/><text class="cls-17" transform="translate(85.36 569.03)">Tuna</text></g><g id="Tabby-2" data-name="Tabby"><path class="cls-25" d="M83 528h208"/><path class="cls-26" d="M102.52 546a164.53 164.53 0 01-1.62-31.36s-8.19 2.52-11.51 16.89c-.13-.67-16.5-.56-16.63.1-3.32-14.37-11.51-16.9-11.51-16.9a165.73 165.73 0 01-1.61 31.37 12 12 0 008.2 13.37l6.92 3.11a15.57 15.57 0 0013-.12l6.52-3.08a12 12 0 008.24-13.38z" transform="translate(-32 -38)"/><path class="cls-24" d="M82 538.39s2.37-1.44 2-7.3h-2c.54 2.11 1.11 5.43 0 7.3zM68 545s-2 4.62-1.65 13.87a10.78 10.78 0 001.49.6l1.83.83A26.62 26.62 0 0168 545zM95 545c2.15 5-1.36 12.12-3.52 15.71l2.83-1.33a12.26 12.26 0 001.93-.81C97.93 550.16 95 545 95 545zM78.57 563.72c-1.56-1.08-6.86-5.1-5.73-9.23a12.25 12.25 0 00.14 7.29" transform="translate(-32 -38)"/><path class="cls-14" d="M72.87 554.39c0-.13.08-.26.13-.39a3.46 3.46 0 00-.13.39zM72.84 554.49v-.1z" transform="translate(-32 -38)"/><path class="cls-24" d="M89 556l-3.68 7.35a14.88 14.88 0 002.47-.89l1.25-.59A16.69 16.69 0 0089 556zM76 543c-1.8-3-1.08-8.13-.22-11.78-1.76.1-3 .23-3 .41-.05-.24-.12-.48-.18-.72C72 540.61 76 543 76 543zM85.7 543.58s4-2.4 3.41-12.18a21.74 21.74 0 00-3.35-.27c.92 3.66 1.84 9.27-.06 12.45zM79.35 538.05c-1.06-1.77-.61-4.82-.1-6.95h-1.88c-.28 5.58 1.98 6.95 1.98 6.95z" transform="translate(-32 -38)"/><text class="cls-17" transform="translate(85.36 509.03)">Tabby</text></g><g id="Rum_Tum_Tugger-2" data-name="Rum Tum Tugger"><path class="cls-25" d="M83 468h208"/><text class="cls-17" transform="translate(85.36 449.03)">Rum Tum Tugger</text><path class="cls-24" d="M107.64 487.79a66.64 66.64 0 01-7 .87 21.07 21.07 0 004.19-6.58s-1.34 2.67-5.47 4A26.94 26.94 0 0185 490.56a3.51 3.51 0 01-1.25 0H85c2.15-.32 7-2.24 13.9-11.86 0-.14 0-.28.05-.42.68-1.82 2.79-8.26.6-12.73a13.37 13.37 0 01-.29 5.46c-.25-3.75-1.29-8.3-4.08-15.07a15.63 15.63 0 00-9.88 11.7 39.92 39.92 0 01.11-5.55 25.92 25.92 0 00-2.07 7.81 45.13 45.13 0 00-4.93 0 26 26 0 00-2.08-7.9 38.43 38.43 0 01.11 5.55 15.63 15.63 0 00-9.88-11.7c-2.79 6.77-3.83 11.32-4.08 15.07a13.37 13.37 0 01-.29-5.46 13.23 13.23 0 00-.71 7.74l.39-.38c4.78 10.64 12.74 15 12.74 15-7.32 2.24-11.38.44-13.63-2.34a8.65 8.65 0 01-4.12-3.48 21.07 21.07 0 004.19 6.58 66.64 66.64 0 01-7-.87 33.9 33.9 0 007.52 7.7 15.82 15.82 0 01-6.38-2A18.43 18.43 0 0062 498.2c8.35-.78 10.93-3.26 11.65-4.28l.26-.43a2 2 0 01-.26.43 25.07 25.07 0 01-4.76 6.28 81 81 0 0013.44 1.08 66.71 66.71 0 007.69-.62 13.59 13.59 0 01-3.5-7.5c4.18 8.4 16.2 3.35 16.2 3.35l-.2.31a16.54 16.54 0 004-3.32 15.82 15.82 0 01-6.38 2 33.9 33.9 0 007.5-7.71z" transform="translate(-32 -38)"/><path class="cls-26" d="M74.56 487.82s-8-4.32-12.74-15l-.39.38a26.67 26.67 0 001.32 5 70.93 70.93 0 01.64 8.09 12.86 12.86 0 01-2.46-.84c2.25 2.81 6.31 4.61 13.63 2.37zM73.63 493.92c-.72 1-3.3 3.5-11.65 4.28a32.74 32.74 0 006.89 2 25.07 25.07 0 004.76-6.28z" transform="translate(-32 -38)"/><path class="cls-16" d="M73.63 493.92a2 2 0 00.26-.43zM85 490.56h-1.25a3.51 3.51 0 001.25 0z" transform="translate(-32 -38)"/><path class="cls-26" d="M85 490.56a26.94 26.94 0 0014.36-4.49c-.34.11-.69.21-1.06.3a66.9 66.9 0 01.6-7.67c-6.96 9.62-11.8 11.54-13.9 11.86z" transform="translate(-32 -38)"/><path class="cls-16" d="M102.5 496.82a31.69 31.69 0 01-12.5 3.84" transform="translate(-32 -38)"/><path class="cls-26" d="M86.5 493.16a13.59 13.59 0 003.5 7.5 31.69 31.69 0 0012.5-3.84l.2-.31s-12.02 5.05-16.2-3.35z" transform="translate(-32 -38)"/></g><g id="Pouncival-3" data-name="Pouncival"><path class="cls-25" d="M83 408h208"/><path class="cls-26" d="M100 396.42s-7.29 2.24-10.09 15.14c0 0-3.12-1.77-10.14-1.37l-1 .07H77.94l-.9.1a12.51 12.51 0 00-3.83 1.11c-2.8-12.9-10.09-15.14-10.09-15.14-10.1 15.7-1.68 20.19-3.37 35.89-.88 8.3 14.69 8.85 22.3 8.63 7.89.14 22.2-.69 21.35-8.65-1.72-15.59 6.69-20.08-3.4-35.78z" transform="translate(-32 -38)"/><text class="cls-17" transform="translate(85.36 389.03)">Pouncival</text><circle class="cls-24" cx="58" cy="385" r="8"/></g><g id="Spot-2" data-name="Spot"><path class="cls-25" d="M83 348h208"/><text class="cls-17" transform="translate(85.36 329.03)">Spot</text><path class="cls-24" d="M102.7 366.05a165.62 165.62 0 01-1.61-31.36s-8.19 2.52-11.51 16.89c-.13-.67-16.51-.56-16.63.1-3.32-14.37-11.51-16.9-11.51-16.9a164.7 164.7 0 01-1.62 31.37A12 12 0 0068 379.52l7 3.11a15.55 15.55 0 0013-.12l6.53-3.08a12 12 0 008.17-13.38z" transform="translate(-32 -38)"/></g><g id="Maru-2" data-name="Maru"><path class="cls-25" d="M83 288h208"/><text class="cls-17" transform="translate(85.36 269.03)">Maru</text><path class="cls-24" d="M98 304a11.9 11.9 0 015.23 1.21c.74-10.5 5.18-15.8-3.24-28.89 0 0-7.29 2.24-10.09 15.14 0 0-3.12-1.77-10.14-1.37l-.81.06C78.44 300.66 71.06 309 62 309a15.76 15.76 0 01-2.07-.16c0 1.07-.09 2.2-.22 3.4-.88 8.29 14.69 8.85 22.3 8.63 1.49 0 3.2 0 5-.07a11.83 11.83 0 01-1-4.8A12 12 0 0198 304z" transform="translate(-32 -38)"/><path class="cls-26" d="M103.36 312.21a38.82 38.82 0 01-.13-7A12 12 0 0087 320.8c7.75-.36 17.05-2.12 16.36-8.59zM79 290.15h-.54l-.51.06-.9.09a12.65 12.65 0 00-3.83 1.12c-2.8-12.9-10.09-15.15-10.09-15.15-9.33 14.51-2.86 19.45-3.15 32.5A15.76 15.76 0 0062 309c9.06 0 16.44-8.34 17-18.85z" transform="translate(-32 -38)"/></g><g id="header-2" data-name="header"><path class="cls-3" d="M19.48 76h276.37A13.15 13.15 0 01309 89.15V180H5V90.48A14.48 14.48 0 0119.48 76z"/><text class="cls-20" transform="translate(31.19 154.12)">Cat Cafe Menu</text></g><g id="nav-2" data-name="nav"><path class="cls-26" d="M7.18 177H310v46H5v-43.82A2.18 2.18 0 017.18 177z"/><path class="cls-3" d="M191.76 232.9c-6.17 0-11.52 1.49-14.21 3.67-.77-1.43-5-2.36-6.43-2.36-2 0 1.31 2.62 1.31 5.24s-3.27 5.24-1.31 5.24c1.44 0 5.66-.94 6.43-2.37 2.69 2.19 8 3.68 14.21 3.68 8.61 0 15.63-2.9 16-6.55-.37-3.65-7.39-6.55-16-6.55zM291.46 226s-3.95 1.22-5.47 8.2c0 0-1.69-1-5.49-.74l-1.5.14a6.66 6.66 0 00-2.07.61c-1.52-7-5.47-8.21-5.47-8.21-5.47 8.51-.91 10.94-1.82 19.45-.49 4.49 7.95 4.79 12.08 4.68 4.27.07 12-.38 11.56-4.69-.91-8.5 3.65-10.93-1.82-19.44z" transform="translate(-32 -38)"/><circle cx="260.5" cy="209.5" r="4.5" fill="#ee76ab"/><path class="cls-3" d="M91.31 249a.78.78 0 01-.57-.23s-8.31-8-8.46-8.16-1.34-1.68-1.6-2.11a7.94 7.94 0 01-.7-1.57 5.85 5.85 0 01-.3-1.8 6 6 0 011.64-4.46 6.27 6.27 0 014.56-1.61 5 5 0 011.64.28 6.61 6.61 0 011.56.75c.48.32.9.61 1.24.89a11.94 11.94 0 011 .88 11.94 11.94 0 011-.88c.34-.28.75-.57 1.23-.89a6.8 6.8 0 011.56-.75 5.11 5.11 0 011.65-.28 6.26 6.26 0 014.55 1.61 5.94 5.94 0 011.65 4.46c0 1.92-1 3.86-3 5.85l-8.09 7.79a.81.81 0 01-.57.23" transform="translate(-32 -38)"/></g></g><g id="device-2" data-name="device"><path class="cls-27" d="M314.08 104H66.92A34.91 34.91 0 0032 138.92v629.16A34.91 34.91 0 0066.92 803h247.16A34.91 34.91 0 00349 768.08V138.92A34.91 34.91 0 00314.08 104zM336 735.6a18.4 18.4 0 01-18.4 18.4H64.85A19.85 19.85 0 0145 734.15V139.67A23.67 23.67 0 0168.67 116h60.13a9.2 9.2 0 019.2 9.2v7a19.75 19.75 0 0019.75 19.8h64A19.23 19.23 0 00241 132.77v-7.63a9.14 9.14 0 019.14-9.14h62.32A23.54 23.54 0 01336 139.54z" transform="translate(-32 -38)"/><rect class="cls-26" x="111" y="738" width="93" height="6" rx="3"/><rect class="cls-26" x="140" y="97" width="34" height="6" rx="3"/><circle class="cls-23" cx="123.5" cy="95.5" r="6.5"/><circle class="cls-23" cx="190.5" cy="95.5" r="4.5"/><circle class="cls-24" cx="122" cy="94" r="3"/><circle class="cls-24" cx="190" cy="95" r="2"/></g><path class="cls-24" d="M507.91 114.08l-2.73 11.25h-13.45l14.08-48.53h17.32l14.47 48.53h-14l-3.1-11.25zm10.77-9.59l-2.25-8.73c-.74-2.74-1.66-6.7-2.41-9.56h-.15c-.72 2.86-1.44 6.86-2.14 9.61l-2.09 8.68zM543.32 102c0-4.72-.15-8.79-.29-12.06h11.2l.57 4.51h.26a12.84 12.84 0 0110.62-5.31c8.24 0 12.76 5.64 12.76 15.32v20.9h-13V106c0-4.06-1.4-6.48-4.5-6.48a4.52 4.52 0 00-4.26 3.12 7 7 0 00-.36 2.61v20h-13zM622.34 74.21v39.92c0 4.4.15 8.86.29 11.2h-11.52l-.52-4.79h-.15c-2.34 4-6.64 5.58-10.69 5.58-8.26 0-15.09-7.14-15.09-18.27 0-11.91 7.48-18.74 15.83-18.74 3.92 0 7.14 1.14 8.73 3.42h.14V74.21zm-13 31a10.58 10.58 0 00-.09-1.68 5.28 5.28 0 00-5.11-4.53c-4.35 0-6.3 3.89-6.3 8.54 0 5.43 2.67 8.26 6.25 8.26a5.11 5.11 0 005.07-4.23 10.67 10.67 0 00.2-2.38zM630.37 101.86c0-5.64-.09-9-.29-12h11.09l.46 6.39h.29a10.18 10.18 0 019.44-7.19 10.3 10.3 0 012.59.22v12.19a14.91 14.91 0 00-3.31-.36c-3.84 0-6.41 1.6-7.1 4.46a12 12 0 00-.18 2.21v17.5h-13zM695.55 107.26c0 12.87-9.2 18.86-19.12 18.86-10.6 0-18.83-6.73-18.83-18.25 0-11.25 7.43-18.76 19.5-18.76 11.1 0 18.45 7.49 18.45 18.15zm-24.55.34c0 5.31 1.75 9.36 5.76 9.36 3.5 0 5.4-3.67 5.4-9.36 0-4.9-1.58-9.32-5.43-9.32-4.28 0-5.73 4.72-5.73 9.32zM714.89 80.15c0 3.44-2.55 6.14-6.69 6.14-4 0-6.54-2.7-6.52-6.14s2.57-6.15 6.61-6.15 6.55 2.6 6.6 6.15zm-13.1 45.18V89.91h13v35.42zM758.71 74.21v39.92c0 4.4.14 8.86.29 11.2h-11.53l-.52-4.79h-.14c-2.34 4-6.64 5.58-10.69 5.58-8.27 0-15.09-7.14-15.09-18.27 0-11.91 7.47-18.74 15.82-18.74 3.93 0 7.15 1.14 8.73 3.42h.15V74.21zm-13 31a10.58 10.58 0 00-.09-1.68 5.28 5.28 0 00-5.11-4.53c-4.36 0-6.3 3.89-6.3 8.54 0 5.43 2.66 8.26 6.24 8.26a5.12 5.12 0 005.08-4.23 11.3 11.3 0 00.2-2.38z" transform="translate(-32 -38)"/></g><g id="Layer_4" data-name="Layer 4"><path class="cls-29" d="M291 348l78-23v135l-78-52V308M821 325l88-11v64l-88 82V325z"/></g></g></svg>