<svg width="1638" height="2617" xmlns="http://www.w3.org/2000/svg"><defs><style>.fontBrand{font-family:-apple-system,BlinkMacSystemFont,&apos;Segoe UI&apos;,Helvetica,Arial,sans-serif,&apos;Apple Color Emoji&apos;,&apos;Segoe UI Emoji&apos;,&apos;Segoe UI Symbol&apos;}.fontBold{font-weight:700}</style></defs><g id="Artboard" stroke="none" stroke-width="1" fill="none" fill-rule="evenodd"><path fill="#3A4F97" d="M0 0h1638v2617H0z"/><text id="OAuth2-with-PKCE" fill="#EFF6FD" class="fontBrand" font-size="60" font-weight="normal"><tspan x="213" y="210">OAuth2 with PKCE</tspan></text><text id="0.-Registration" fill="#FFF" class="fontBrand fontBold" font-size="32" font-weight="bold"><tspan x="226" y="395">0. Registration</tspan></text><text id="1.-Before-auth" fill="#FFF" class="fontBrand fontBold" font-size="32" font-weight="bold"><tspan x="225" y="714">1. Before auth</tspan></text><text id="state" class="fontBrand fontBold" font-size="32" font-weight="bold" fill="#E6A2C2"><tspan x="519" y="843">state</tspan></text><text id="state" class="fontBrand fontBold" font-size="26" font-weight="bold" fill="#E6A2C2"><tspan x="1452" y="1709">state</tspan></text><text id="state" class="fontBrand fontBold" font-size="26" font-weight="bold" fill="#E6A2C2"><tspan x="1149" y="1288">state</tspan></text><text id="The-IDP-will-assign" fill="#FFF" class="fontBrand" font-size="26" font-weight="normal"><tspan x="986" y="439">The IDP will assign a</tspan></text><text id="developer" fill="#FFF" class="fontBrand" font-size="26" font-weight="normal"><tspan x="999.903" y="224">developer</tspan></text><text id="user’s-device" fill="#FFF" class="fontBrand" font-size="26" font-weight="normal"><tspan x="1170.323" y="208">user’s </tspan> <tspan x="1167.422" y="239">device</tspan></text><text id="Identity-Provider" fill="#FFF" class="fontBrand" font-size="26" font-weight="normal"><tspan x="1294.086" y="208">Identity </tspan> <tspan x="1287.593" y="239">Provider</tspan></text><text id="login-screen" fill="#FFF" class="fontBrand" font-size="26" font-weight="normal"><tspan x="1454.534" y="208">login </tspan> <tspan x="1442.981" y="239">screen</tspan></text><text id="client_id" fill="#FFF" class="fontBrand fontBold" font-size="26" font-weight="bold"><tspan x="1240" y="440">client_id</tspan></text><text id="for-the-app" fill="#FFF" class="fontBrand" font-size="26" font-weight="normal"><tspan x="1354" y="439">for the app</tspan></text><text id="Developer-registers" fill="#FFF" class="fontBrand" font-size="26" font-weight="normal"><tspan x="985" y="548">Developer registers</tspan></text><text id="redirect_uri" fill="#FFF" class="fontBrand fontBold" font-size="26" font-weight="bold"><tspan x="1221" y="548">redirect_uri</tspan></text><text id="with-the-IDP" fill="#FFF" class="fontBrand" font-size="26" font-weight="normal"><tspan x="1376" y="548">with the IDP</tspan></text><text id="Registers-client-wit" fill="#FFF" class="fontBrand" font-size="32" font-weight="normal"><tspan x="405" y="497">Registers client with </tspan> <tspan x="405" y="535">Identity Provider (IDP)</tspan></text><text id="Generates" fill="#FFF" class="fontBrand" font-size="32" font-weight="normal"><tspan x="360" y="843">Generates</tspan></text><text id="and" fill="#FFF" class="fontBrand" font-size="32" font-weight="normal"><tspan x="602" y="843">and</tspan></text><text id="(e.g.-myapp://auth)" fill="#FFF" class="fontBrand" font-size="26" font-weight="normal"><tspan x="986" y="586">(e.g. myapp://auth)</tspan></text><text id="(e.g.-123)" fill="#FFF" class="fontBrand" font-size="26" font-weight="normal"><tspan x="986" y="471">(e.g. 123)</tspan></text><text id="These-are-both-rando" fill="#FFF" class="fontBrand" font-size="26" font-weight="normal"><tspan x="986" y="813">These are both random strings that are </tspan> <tspan x="986" y="844">kept in-memory on the device</tspan></text><text id="A-new" fill="#FFF" class="fontBrand" font-size="26" font-weight="normal"><tspan x="986" y="1778">A new</tspan></text><text id="is-generated-by-the" fill="#FFF" class="fontBrand" font-size="26" font-weight="normal"><tspan x="1135" y="1778">is generated by the IDP </tspan></text><text id="/authorize-URL-param" fill="#FFF" class="fontBrand" font-size="26" font-weight="normal"><tspan x="986" y="1115">/authorize URL parameters:</tspan></text><text id="Deep-link-looks-some" fill="#FFF" class="fontBrand" font-size="26" font-weight="normal"><tspan x="986" y="1660">Deep link looks something like this:</tspan></text><text id="2.-App-starts-the-au" fill="#EFF6FD" class="fontBrand fontBold" font-size="32" font-weight="bold"><tspan x="226" y="1067">2. App starts the auth request</tspan></text><g id="smartphone-iphone" transform="translate(232 1100)" fill="#49A3CE" fill-rule="nonzero"><path d="M80.562 0H19.438C8.72 0 0 8.678 0 19.344v141.315C0 171.32 8.72 180 19.438 180h61.12C91.278 180 100 171.32 100 160.66V19.343C100.003 8.678 91.28 0 80.562 0zm13.014 160.66c0 7.108-5.837 12.894-13.014 12.894H19.438c-7.174 0-13.011-5.786-13.011-12.895V19.344h.003c0-7.112 5.837-12.895 13.011-12.895h61.12c7.175 0 13.015 5.783 13.015 12.895.003 0 .003 141.315 0 141.315zM86.967 18.941H13.042c-.889 0-1.606.72-1.606 1.61v125.239c0 .888.717 1.613 1.606 1.613h73.925c.888 0 1.61-.722 1.61-1.613V20.553a1.611 1.611 0 00-1.61-1.611zm-1.606 125.235H14.645V22.163h70.713s0 122.014.003 122.014zm-35.357 5.912c-5.415 0-9.823 4.418-9.823 9.85 0 5.432 4.408 9.85 9.823 9.85 5.416 0 9.818-4.42 9.818-9.85 0-5.432-4.402-9.85-9.818-9.85zm0 16.476c-3.645 0-6.609-2.972-6.609-6.626 0-3.653 2.964-6.629 6.61-6.629 3.642 0 6.606 2.976 6.606 6.63 0 3.653-2.964 6.625-6.607 6.625zM39.374 12.61c0-.657.64-1.188 1.429-1.188h18.394c.79 0 1.427.531 1.427 1.188 0 .657-.634 1.188-1.424 1.188H40.806c-.787 0-1.43-.531-1.433-1.188z" id="Shape"/></g><g id="smartphone-iphone" transform="translate(230 746)" fill="#49A3CE" fill-rule="nonzero"><path d="M80.562 0H19.438C8.72 0 0 8.678 0 19.344v141.315C0 171.32 8.72 180 19.438 180h61.12C91.278 180 100 171.32 100 160.66V19.343C100.003 8.678 91.28 0 80.562 0zm13.014 160.66c0 7.108-5.837 12.894-13.014 12.894H19.438c-7.174 0-13.011-5.786-13.011-12.895V19.344h.003c0-7.112 5.837-12.895 13.011-12.895h61.12c7.175 0 13.015 5.783 13.015 12.895.003 0 .003 141.315 0 141.315zM86.967 18.941H13.042c-.889 0-1.606.72-1.606 1.61v125.239c0 .888.717 1.613 1.606 1.613h73.925c.888 0 1.61-.722 1.61-1.613V20.553a1.611 1.611 0 00-1.61-1.611zm-1.606 125.235H14.645V22.163h70.713s0 122.014.003 122.014zm-35.357 5.912c-5.415 0-9.823 4.418-9.823 9.85 0 5.432 4.408 9.85 9.823 9.85 5.416 0 9.818-4.42 9.818-9.85 0-5.432-4.402-9.85-9.818-9.85zm0 16.476c-3.645 0-6.609-2.972-6.609-6.626 0-3.653 2.964-6.629 6.61-6.629 3.642 0 6.606 2.976 6.606 6.63 0 3.653-2.964 6.625-6.607 6.625zM39.374 12.61c0-.657.64-1.188 1.429-1.188h18.394c.79 0 1.427.531 1.427 1.188 0 .657-.634 1.188-1.424 1.188H40.806c-.787 0-1.43-.531-1.433-1.188z" id="Shape"/></g><g id="smartphone-iphone" transform="translate(1179 80)" fill="#49A3CE" fill-rule="nonzero"><path d="M36.253 0H8.747C3.924 0 0 3.905 0 8.705v63.592C0 77.094 3.924 81 8.747 81h27.504C41.074 81 45 77.094 45 72.297V8.705C45.001 3.905 41.076 0 36.253 0zm5.856 72.297c0 3.199-2.627 5.802-5.856 5.802H8.747c-3.228 0-5.855-2.603-5.855-5.802V8.705h.001c0-3.2 2.627-5.803 5.856-5.803h27.504c3.228 0 5.856 2.602 5.856 5.803v63.592zM39.135 8.524H5.87c-.4 0-.723.324-.723.725v56.357c0 .4.323.726.723.726h33.266c.4 0 .724-.325.724-.726V9.249a.725.725 0 00-.724-.725zm-.722 56.356H6.59V9.973h31.821s0 54.907.002 54.907zm-15.911 2.66c-2.437 0-4.42 1.988-4.42 4.433 0 2.444 1.983 4.432 4.42 4.432s4.418-1.99 4.418-4.432c0-2.445-1.98-4.433-4.418-4.433zm0 7.414a2.982 2.982 0 010-5.965 2.982 2.982 0 012.973 2.984 2.98 2.98 0 01-2.973 2.981zm-4.784-69.28c0-.295.288-.534.643-.534h8.278c.355 0 .642.239.642.534 0 .296-.286.535-.64.535h-8.278c-.354 0-.644-.239-.645-.535z" id="Shape"/></g><g id="smartphone-iphone" transform="translate(230 1654)" fill="#49A3CE" fill-rule="nonzero"><path d="M80.562 0H19.438C8.72 0 0 8.678 0 19.344v141.315C0 171.32 8.72 180 19.438 180h61.12C91.278 180 100 171.32 100 160.66V19.343C100.003 8.678 91.28 0 80.562 0zm13.014 160.66c0 7.108-5.837 12.894-13.014 12.894H19.438c-7.174 0-13.011-5.786-13.011-12.895V19.344h.003c0-7.112 5.837-12.895 13.011-12.895h61.12c7.175 0 13.015 5.783 13.015 12.895.003 0 .003 141.315 0 141.315zM86.967 18.941H13.042c-.889 0-1.606.72-1.606 1.61v125.239c0 .888.717 1.613 1.606 1.613h73.925c.888 0 1.61-.722 1.61-1.613V20.553a1.611 1.611 0 00-1.61-1.611zm-1.606 125.235H14.645V22.163h70.713s0 122.014.003 122.014zm-35.357 5.912c-5.415 0-9.823 4.418-9.823 9.85 0 5.432 4.408 9.85 9.823 9.85 5.416 0 9.818-4.42 9.818-9.85 0-5.432-4.402-9.85-9.818-9.85zm0 16.476c-3.645 0-6.609-2.972-6.609-6.626 0-3.653 2.964-6.629 6.61-6.629 3.642 0 6.606 2.976 6.606 6.63 0 3.653-2.964 6.625-6.607 6.625zM39.374 12.61c0-.657.64-1.188 1.429-1.188h18.394c.79 0 1.427.531 1.427 1.188 0 .657-.634 1.188-1.424 1.188H40.806c-.787 0-1.43-.531-1.433-1.188z" id="Shape"/></g><g id="server+icon+server+line+icon+icon-1320073121523081718_0" transform="translate(736 1124)" stroke="#49A3CE" stroke-linecap="round" stroke-linejoin="round"><path d="M107 131.627c0 2.955-2.407 5.373-5.35 5.373H5.35C2.408 137 0 134.582 0 131.627V5.373C0 2.418 2.408 0 5.35 0h96.3c2.942 0 5.35 2.418 5.35 5.373v126.254zM0 90h104M0 44h107" id="Path" stroke-width="5"/><circle id="Oval" stroke-width="5" cx="87" cy="20" r="7"/><circle id="Oval" stroke-width="5" cx="87" cy="68" r="7"/><circle id="Oval" stroke-width="5" cx="87" cy="115" r="7"/><path d="M20 19h49" id="Path" stroke-width="5"/><path d="M20 70h49" id="Path" stroke-width="6"/><path d="M20 116h49" id="Path" stroke-width="5"/></g><g id="server+icon+server+line+icon+icon-1320073121523081718_0" transform="translate(1305 81)" stroke="#49A3CE" stroke-linecap="round" stroke-linejoin="round" stroke-width="2"><path d="M63 77.824C63 79.57 61.583 81 59.85 81H3.15C1.418 81 0 79.57 0 77.824V3.176C0 1.43 1.417 0 3.15 0h56.7C61.583 0 63 1.43 63 3.176v74.648zM0 53.438h60.75M0 26.438h63" id="Path"/><circle id="Oval" cx="51.188" cy="11.813" r="3.938"/><circle id="Oval" cx="51.188" cy="39.938" r="3.938"/><circle id="Oval" cx="51.188" cy="68.063" r="3.938"/><path d="M11.25 10.688H40.5M11.25 41.063H40.5M11.25 68.063H40.5" id="Path"/></g><g id="server+icon+server+line+icon+icon-1320073121523081718_0" transform="translate(734 1670)" stroke="#49A3CE" stroke-linecap="round" stroke-linejoin="round"><path d="M107 131.627c0 2.955-2.407 5.373-5.35 5.373H5.35C2.408 137 0 134.582 0 131.627V5.373C0 2.418 2.408 0 5.35 0h96.3c2.942 0 5.35 2.418 5.35 5.373v126.254zM0 90h104M0 44h107" id="Path" stroke-width="5"/><circle id="Oval" stroke-width="5" cx="87" cy="20" r="7"/><circle id="Oval" stroke-width="5" cx="87" cy="68" r="7"/><circle id="Oval" stroke-width="5" cx="87" cy="115" r="7"/><path d="M20 19h49" id="Path" stroke-width="5"/><path d="M20 70h49" id="Path" stroke-width="6"/><path d="M20 116h49" id="Path" stroke-width="5"/></g><g id="login" transform="translate(763 1358)" fill="#49A3CE"><path d="M63.139 0H3.858C1.73 0 0 1.743 0 3.885V68.11C0 70.255 1.73 72 3.858 72h59.28C65.269 72 67 70.255 67 68.111V3.885C67 1.743 65.268 0 63.139 0zm0 69.89H3.858a1.774 1.774 0 01-1.764-1.779V12.334h16.853a1.05 1.05 0 001.047-1.054 1.05 1.05 0 00-1.047-1.055H2.094v-6.34c0-.98.79-1.776 1.764-1.776h59.28c.975 0 1.768.797 1.768 1.776v6.34h-41.05a1.05 1.05 0 00-1.048 1.055c0 .582.47 1.054 1.047 1.054h41.051v55.777c0 .981-.793 1.78-1.767 1.78z" id="Shape" fill-rule="nonzero"/><path d="M25.116 38.487c.034.036.07.07.11.1A12.92 12.92 0 0033.992 42c3.188.001 6.24-1.178 8.59-3.241.057-.04.109-.086.155-.136a12.972 12.972 0 001.823-2.044 12.917 12.917 0 002.264-9.689 12.91 12.91 0 00-5.248-8.452A12.907 12.907 0 0034.01 16a13.034 13.034 0 00-10.57 5.422 12.916 12.916 0 00-2.264 9.689 12.895 12.895 0 003.94 7.376zm2.51-.603c-.208-.15-.408-.307-.604-.47.897-2.87 3.925-3.69 5.452-3.922.46.124.94.193 1.43.195h.042c.479 0 .964-.068 1.44-.2 2.775.418 4.756 1.907 5.435 4.055a10.97 10.97 0 01-6.83 2.393 10.87 10.87 0 01-6.365-2.05zm4.607-10.655c.615.444 1.438.624 2.62.624h2.565v.685c0 .919-.55 1.834-1.47 2.45-.625.415-1.346.64-2.03.634a3.488 3.488 0 01-1.025-.163l-.057-.019c-1.35-.445-2.43-1.649-2.43-2.902v-.567c.733-.039 1.358-.297 1.827-.742zm-1.822-1.327c.107-2.03 1.834-3.091 3.54-3.091.966 0 1.836.343 2.448.965.495.503.816 1.187.95 2.012h-2.497c-1.44 0-1.542-.231-1.815-.849a1.033 1.033 0 00-1.955.215c-.097.485-.28.7-.67.748zm-5.295-3.276a10.968 10.968 0 018.894-4.56c2.293 0 4.494.708 6.363 2.05a10.862 10.862 0 014.415 7.109 10.867 10.867 0 01-2.373 8.754c-.857-1.785-2.432-3.17-4.485-3.953.985-.96 1.552-2.207 1.552-3.488V26.82v-.004c.023-1.841-.533-3.393-1.612-4.489-1.004-1.02-2.396-1.581-3.918-1.581-2.72 0-5.61 1.877-5.61 5.356v2.436c0 1.312.603 2.55 1.558 3.483-2.056.755-3.604 2.071-4.453 3.793a10.876 10.876 0 01-2.235-5.039 10.87 10.87 0 011.904-8.149z" id="Shape" fill-rule="nonzero"/><path d="M8.015 5h-.03A.993.993 0 007 6c0 .552.44 1 .985 1h.03A.993.993 0 009 6c0-.552-.441-1-.985-1zM13.013 5h-.026A.994.994 0 0012 6c0 .552.442 1 .987 1h.026A.994.994 0 0014 6c0-.552-.442-1-.987-1zM18.015 5h-.03A.993.993 0 0017 6c0 .553.44 1 .985 1h.03A.993.993 0 0019 6c0-.552-.441-1-.985-1zM28.057 7h19.886C48.527 7 49 6.553 49 6c0-.552-.473-1-1.057-1H28.057C27.473 5 27 5.448 27 6c0 .553.473 1 1.057 1z" id="Path"/><path d="M49.503 47H17.497C16.12 47 15 48.04 15 49.32v2.36c0 1.28 1.12 2.32 2.497 2.32h32.006C50.88 54 52 52.96 52 51.68v-2.36c0-1.28-1.12-2.32-2.497-2.32zm.372 4.68c0 .185-.17.341-.372.341H17.497c-.202 0-.372-.156-.372-.341v-2.36c0-.185.17-.341.372-.341h32.006c.202 0 .372.156.372.341v2.36zM48.503 58h-32.01C15.118 58 14 59.041 14 60.32v2.36c0 1.28 1.118 2.32 2.493 2.32h32.01C49.88 65 51 63.96 51 62.68v-2.36c0-1.279-1.12-2.32-2.497-2.32zm.372 4.68c0 .185-.17.341-.371.341H16.493c-.2 0-.368-.156-.368-.341v-2.36c0-.185.169-.341.368-.341h32.01c.202 0 .372.156.372.342v2.359z" id="Shape" fill-rule="nonzero"/></g><g id="woman" transform="translate(210 426)" fill="#49A3CE" fill-rule="nonzero"><path d="M142.166 187.846h-13.83l1.511-54.46c.236-8.52-4.656-16.265-12.464-19.728l-16.125-7.155a2.863 2.863 0 00-.296-.11l-2.276-1.94c11.505-3.482 20.108-7.743 20.516-7.946a2.833 2.833 0 001.272-3.784c-.058-.118-5.763-12.007-5.763-38.027V42.61C114.71 19.39 95.775.5 72.5.5S30.29 19.39 30.29 42.61v12.086c0 26.02-5.706 37.91-5.759 38.018a2.824 2.824 0 001.268 3.793c.41.205 9.013 4.466 20.515 7.946l-2.584 2.203-15.784 7.002c-7.807 3.463-12.7 11.208-12.463 19.729l1.51 54.459H2.834A2.83 2.83 0 000 190.673a2.83 2.83 0 002.834 2.827h139.332a2.83 2.83 0 002.834-2.827 2.83 2.83 0 00-2.834-2.827zM35.957 42.61c0-20.102 16.393-36.456 36.543-36.456s36.543 16.354 36.543 36.455v12.087c0 20.654 3.428 32.84 5.252 37.862-3.77 1.7-11.64 5.016-20.774 7.493l-1.007-.857a2.837 2.837 0 00-2.035-.667v-7.029a33.043 33.043 0 0012.297-14.388 30.102 30.102 0 002.534-11.31c.327-12.75-10.638-15.98-22.248-19.4-9.725-2.864-20.75-6.11-29.789-14.882a2.839 2.839 0 00-4.007.055 2.823 2.823 0 00.055 3.998c10.044 9.746 22.294 13.354 32.137 16.253 12.428 3.66 18.393 5.777 18.186 13.832-.081 3.149-.79 6.32-2.053 9.17-4.389 9.918-14.238 16.326-25.091 16.326-13.236 0-24.578-9.424-26.968-22.407-.535-2.902-3.229-5.009-6.13-4.797a3.193 3.193 0 01-.969-.081c-1.41-.334-2.476-1.848-2.476-3.523v-2.32c0-1.716 1.126-3.207 2.619-3.468 1.23-.216 2.412.237 3.16 1.21a4.137 4.137 0 002.09 1.458 4.15 4.15 0 003.562-.57 23.212 23.212 0 006.245-6.58 2.823 2.823 0 00-.876-3.902 2.838 2.838 0 00-3.911.874 17.749 17.749 0 01-3.639 4.156 8.93 8.93 0 00-7.611-2.216c-.57.1-1.116.259-1.639.464v-6.84zm24.232 62.025V94.434a33.081 33.081 0 0024.622-.008v10.208l-8.554 11.867-.028.043-.03.04-3.537 5.293c-.02.03-.058.087-.162.087-.105 0-.142-.056-.163-.087l-3.537-5.294-.03-.04c-.01-.013-.018-.028-.028-.042l-8.553-11.866zm2.33 12.918l-4.086 3.057a3.221 3.221 0 01-2.675.558 3.214 3.214 0 01-2.143-1.692l-4.849-9.676 5.058-4.31 8.696 12.063zm28.657-12.064l5.059 4.311-4.85 9.676a3.214 3.214 0 01-2.142 1.692 3.222 3.222 0 01-2.676-.558l-4.086-3.057 8.695-12.064zM30.705 92.56c1.364-3.756 3.624-11.517 4.678-23.826a8.26 8.26 0 001.745.636 8.88 8.88 0 002.653.22c.066.027.16.122.176.177 1.696 9.213 7.13 16.937 14.564 21.74v7.021a2.837 2.837 0 00-2.035.667l-1.007.857c-9.134-2.478-17.005-5.792-20.774-7.493zm-.456 26.265l13.664-6.062 4.632 9.242a8.865 8.865 0 005.91 4.666 8.884 8.884 0 007.378-1.536l3.913-2.928 1.876 2.808a5.854 5.854 0 004.878 2.604 5.854 5.854 0 004.879-2.604l1.875-2.808 3.913 2.928a8.884 8.884 0 007.378 1.536 8.864 8.864 0 005.91-4.666l4.692-9.362 13.934 6.182a15.453 15.453 0 013.036 1.785l-10.301 12.846h-70.3l-10.302-12.846a15.476 15.476 0 013.035-1.785zm-2.628 23.994l2.356 42.303a8.83 8.83 0 00.592 2.725h-7.905l-1.516-54.616a15.251 15.251 0 012.216-8.37l8.13 10.138a8.827 8.827 0 00-1.455 1.232 8.893 8.893 0 00-2.418 6.588zm84.1-.314l-2.356 42.304a3.222 3.222 0 01-3.219 3.038H38.854a3.222 3.222 0 01-3.219-3.038l-2.356-42.304c-.049-.892.262-1.74.877-2.388a3.197 3.197 0 012.342-1.006h72.004c.895 0 1.727.357 2.342 1.006.615.648.926 1.496.877 2.388zm10.945 45.342h-8.235a8.83 8.83 0 00.593-2.725l2.356-42.303a8.896 8.896 0 00-2.419-6.588 8.842 8.842 0 00-1.243-1.084l8.248-10.286a15.257 15.257 0 012.216 8.37l-1.516 54.616z" id="Shape"/><path d="M72.5 155.5c-5.79 0-10.5 4.486-10.5 10s4.71 10 10.5 10 10.5-4.486 10.5-10-4.71-10-10.5-10zm0 14.553c-2.636 0-4.781-2.043-4.781-4.553 0-2.511 2.144-4.554 4.781-4.554 2.637 0 4.781 2.043 4.781 4.554 0 2.51-2.145 4.553-4.781 4.553z" id="Shape"/></g><g id="woman" transform="translate(1024 80)" fill="#49A3CE" fill-rule="nonzero"><path d="M59.808 78.627H53.99l.635-22.856a8.764 8.764 0 00-5.243-8.28l-6.784-3.003a1.206 1.206 0 00-.124-.046l-.958-.814c4.84-1.461 8.46-3.25 8.63-3.335a1.188 1.188 0 00.536-1.588c-.024-.05-2.424-5.04-2.424-15.96v-5.072C48.258 7.928 40.292 0 30.5 0c-9.792 0-17.757 7.928-17.757 17.673v5.072c0 10.92-2.4 15.91-2.423 15.956a1.184 1.184 0 00.533 1.592c.173.086 3.792 1.874 8.63 3.335l-1.086.924-6.64 2.94a8.764 8.764 0 00-5.244 8.28l.636 22.855H1.192A1.19 1.19 0 000 79.813 1.19 1.19 0 001.192 81h58.616A1.19 1.19 0 0061 79.813a1.19 1.19 0 00-1.192-1.186zM15.127 17.673c0-8.436 6.896-15.3 15.373-15.3s15.373 6.864 15.373 15.3v5.072c0 8.669 1.442 13.783 2.21 15.89-1.586.715-4.897 2.106-8.74 3.146l-.423-.36a1.196 1.196 0 00-.856-.28v-2.95a13.877 13.877 0 005.173-6.038 12.608 12.608 0 001.066-4.747c.138-5.351-4.475-6.707-9.36-8.142-4.091-1.202-8.729-2.565-12.531-6.246a1.196 1.196 0 00-1.686.023c-.46.47-.449 1.221.023 1.678 4.225 4.09 9.379 5.604 13.52 6.821 5.228 1.536 7.737 2.425 7.65 5.805a10.222 10.222 0 01-.863 3.85 11.55 11.55 0 01-10.556 6.85c-5.568 0-10.34-3.954-11.345-9.403-.225-1.218-1.358-2.102-2.579-2.014-.134.01-.27-.001-.407-.034-.594-.14-1.042-.775-1.042-1.478v-.974c0-.72.473-1.346 1.101-1.455.518-.09 1.015.099 1.33.507.228.297.532.508.879.613a1.75 1.75 0 001.499-.24 9.752 9.752 0 002.627-2.762 1.183 1.183 0 00-.369-1.637 1.196 1.196 0 00-1.645.367 7.454 7.454 0 01-1.53 1.744 3.763 3.763 0 00-3.892-.735v-2.871zM25.32 43.704v-4.281a13.946 13.946 0 0010.358-.003v4.284l-3.598 4.98-.012.018-.013.017-1.488 2.222c-.008.012-.024.036-.068.036-.044 0-.06-.024-.069-.036l-1.488-2.222-.012-.017-.012-.018-3.598-4.98zm.98 5.422l-1.719 1.283a1.358 1.358 0 01-2.027-.476l-2.04-4.06 2.128-1.81 3.658 5.063zm12.056-5.063l2.128 1.81-2.04 4.06a1.358 1.358 0 01-2.027.476l-1.72-1.283 3.659-5.063zm-25.44-5.427c.574-1.576 1.525-4.833 1.968-10 .233.115.477.207.734.267.37.087.746.119 1.117.093a.16.16 0 01.073.074 13.83 13.83 0 006.127 9.124v2.947a1.195 1.195 0 00-.856.28l-.423.36c-3.843-1.04-7.154-2.431-8.74-3.145zm-.192 11.023l5.749-2.544 1.949 3.88a3.728 3.728 0 002.486 1.957 3.743 3.743 0 003.104-.645l1.646-1.228.789 1.178A2.464 2.464 0 0030.5 53.35c.827 0 1.594-.408 2.052-1.093l.79-1.178 1.645 1.228a3.743 3.743 0 003.104.645 3.727 3.727 0 002.487-1.958l1.974-3.929 5.861 2.594c.461.204.888.457 1.278.75l-4.334 5.39H15.782l-4.333-5.39c.389-.293.816-.546 1.276-.75zM11.62 59.73l.991 17.754c.022.403.11.787.25 1.144H9.534l-.638-22.922a6.39 6.39 0 01.932-3.512l3.42 4.254a3.711 3.711 0 00-1.63 3.282zM47 59.598l-.991 17.754a1.354 1.354 0 01-1.354 1.275h-28.31c-.719 0-1.314-.56-1.354-1.275l-.99-17.755c-.021-.374.11-.73.368-1.002.26-.272.609-.422.986-.422h30.29c.377 0 .727.15.986.422s.39.628.369 1.003zm4.604 19.029H48.14c.14-.357.227-.741.25-1.143l.99-17.755a3.729 3.729 0 00-1.017-2.765 3.717 3.717 0 00-.523-.454l3.47-4.318a6.392 6.392 0 01.932 3.513l-.638 22.922z" id="Shape"/><path d="M30.5 67c-2.481 0-4.5 1.794-4.5 4s2.019 4 4.5 4 4.5-1.794 4.5-4-2.019-4-4.5-4zm0 5.821c-1.13 0-2.05-.817-2.05-1.821s.92-1.822 2.05-1.822 2.05.818 2.05 1.822-.92 1.821-2.05 1.821z" id="Shape"/></g><g id="login" transform="translate(1446 81)" fill="#49A3CE"><path d="M70.384 0H4.3C1.93 0 0 1.96 0 4.37v72.255C0 79.037 1.93 81 4.3 81h66.084c2.373 0 4.304-1.963 4.304-4.375V4.37c0-2.41-1.93-4.37-4.304-4.37zm0 78.627H4.3c-1.084 0-1.966-.898-1.966-2.002V13.876h18.787c.645 0 1.167-.531 1.167-1.186 0-.656-.522-1.187-1.167-1.187H2.334V4.37c0-1.1.882-1.997 1.966-1.997h66.084c1.087 0 1.97.896 1.97 1.997v7.133H26.593c-.645 0-1.167.53-1.167 1.187 0 .655.522 1.186 1.167 1.186h45.761v62.75c0 1.103-.883 2.001-1.97 2.001z" id="Shape" fill-rule="nonzero"/><path d="M27.64 43.357c.036.041.077.08.12.115.412.391.847.762 1.308 1.105 2.43 1.806 5.289 2.76 8.267 2.76 3.483 0 6.818-1.335 9.385-3.672.061-.046.118-.098.168-.155a14.534 14.534 0 001.993-2.315C51.09 38 51.97 34.101 51.354 30.22c-.616-3.881-2.652-7.282-5.734-9.575-2.428-1.806-5.286-2.76-8.265-2.76-4.57 0-8.887 2.295-11.547 6.142-2.21 3.196-3.09 7.094-2.473 10.976.514 3.244 2.024 6.15 4.304 8.355zm2.741-.682c-.227-.17-.446-.348-.66-.532.98-3.251 4.288-4.181 5.956-4.444a5.91 5.91 0 001.561.222h.047c.523 0 1.054-.078 1.574-.228 3.03.474 5.195 2.161 5.936 4.595-2.095 1.731-4.723 2.71-7.46 2.71-2.504 0-4.909-.803-6.954-2.323zm5.033-12.071c.672.503 1.57.707 2.861.707h2.803v.775c0 1.042-.601 2.08-1.607 2.776-.682.47-1.47.726-2.217.72a3.686 3.686 0 01-1.119-.186c-.02-.007-.04-.015-.062-.02-1.476-.505-2.655-1.87-2.655-3.29v-.642c.8-.043 1.483-.335 1.996-.84zm-1.99-1.503c.116-2.3 2.003-3.502 3.867-3.502 1.055 0 2.005.388 2.674 1.094.541.569.892 1.344 1.037 2.278h-2.727c-1.573 0-1.684-.262-1.982-.961a1.122 1.122 0 00-1.154-.69 1.143 1.143 0 00-.982.933c-.107.55-.307.793-.733.848zm-5.785-3.711c2.238-3.235 5.87-5.167 9.716-5.167 2.505 0 4.909.803 6.952 2.323 2.591 1.928 4.304 4.788 4.822 8.053.518 3.265-.221 6.544-2.08 9.232-.164.236-.335.464-.512.686-.937-2.023-2.657-3.59-4.9-4.479 1.076-1.088 1.696-2.5 1.696-3.952v-1.945-.005c.025-2.086-.583-3.843-1.761-5.085-1.097-1.155-2.617-1.791-4.28-1.791-2.972 0-6.129 2.126-6.129 6.068v2.758c0 1.488.659 2.889 1.702 3.947-2.246.856-3.936 2.346-4.864 4.297a12.546 12.546 0 01-2.442-5.708c-.517-3.265.221-6.544 2.08-9.232z" id="Shape" fill-rule="nonzero"/><path d="M8.431 5.26H8.4c-.573 0-1.036.47-1.036 1.052 0 .58.463 1.052 1.036 1.052h.031c.572 0 1.037-.472 1.037-1.052 0-.581-.465-1.052-1.037-1.052zM14.741 5.26h-.028c-.573 0-1.038.47-1.038 1.052 0 .58.465 1.052 1.038 1.052h.028c.573 0 1.038-.472 1.038-1.052 0-.581-.465-1.052-1.038-1.052zM20.003 5.26h-.032c-.572 0-1.036.47-1.036 1.052 0 .581.464 1.052 1.036 1.052h.032c.572 0 1.036-.471 1.036-1.052 0-.581-.464-1.052-1.036-1.052zM31.668 7.364H53.54c.642 0 1.162-.471 1.162-1.052 0-.581-.52-1.052-1.162-1.052H31.67c-.643 0-1.163.47-1.163 1.052 0 .581.52 1.052 1.162 1.052z" id="Path"/><path d="M55.089 52.597h-35.49c-1.526 0-2.768 1.252-2.768 2.79v2.837c0 1.538 1.242 2.789 2.769 2.789h35.489c1.526 0 2.768-1.251 2.768-2.79v-2.836c0-1.538-1.242-2.79-2.768-2.79zm.412 5.627c0 .222-.189.41-.412.41h-35.49a.417.417 0 01-.412-.41v-2.837c0-.223.19-.411.413-.411h35.489c.223 0 .412.188.412.41v2.838zM54.037 65.22H18.543c-1.524 0-2.764 1.253-2.764 2.79v2.837c0 1.538 1.24 2.79 2.764 2.79h35.494c1.526 0 2.768-1.252 2.768-2.79v-2.836c0-1.538-1.242-2.79-2.768-2.79zm.412 5.627c0 .223-.188.41-.412.41H18.543a.415.415 0 01-.408-.41v-2.836c0-.223.188-.412.408-.412h35.494c.224 0 .412.189.412.412v2.836z" id="Shape" fill-rule="nonzero"/></g><path id="Line" d="M674 1235l19 9.5-19 9.5v-8H364v-3h310v-8zM699 2132l19 9.5-19 9.5v-8H389v-3h310v-8zM386 1757v8h311v3H386v8l-19-9.5 19-9.5z" fill="#FFF" fill-rule="nonzero"/><text id="invalid-credentials" class="fontBrand" font-size="32" font-weight="normal" fill="#FFF"><tspan x="383" y="1369">invalid credentials</tspan></text><path d="M692.5 1401.5l-405.5.5" id="Line" stroke="#FFF" stroke-width="3" stroke-linecap="square" stroke-dasharray="10" fill-rule="nonzero"/><path id="Line" d="M285.284 1389.974l.244 12.998-3 .056-.243-12.998 3-.056zm-.375-19.997l.244 12.998-3 .056-.243-12.997 3-.057zm-.375-19.996l.244 12.998-3 .056-.243-12.998 3-.056zm-2.043-28.98l9.854 18.818-7.999.149.057 3.014-3 .056-.056-3.014-7.999.15 9.143-19.174z" fill="#FFF" fill-rule="nonzero"/><text id="3.-IDP-links-back-to" class="fontBrand fontBold" font-size="32" font-weight="bold" fill="#FFF"><tspan x="213" y="1616">3. IDP links back to the app with the auth code</tspan></text><text id="4.-Token-Exchange" class="fontBrand fontBold" font-size="32" font-weight="bold" fill="#FFF"><tspan x="226" y="2022">4. Token Exchange</tspan></text><text id="GET-/authorize" class="fontBrand" font-size="32" font-weight="normal" fill="#FFF"><tspan x="421" y="1212">GET /authorize</tspan></text><text id="response_type-=-code" class="fontBrand" font-size="26" font-weight="normal"><tspan x="1060" y="1164" fill="#FFF">response_type = code</tspan> <tspan x="1060" y="1195" fill="#FFF">client_id = 123</tspan> <tspan x="1060" y="1226" fill="#FFF">redirect_uri = myapp://auth</tspan> <tspan x="1060" y="1257" fill="#FFF">scope = email</tspan> <tspan x="1060" y="1288" fill="#FFF">state =</tspan> <tspan x="1060" y="1319" class="fontBrand fontBold" font-weight="bold" fill="#F5A623">code_challenge</tspan> <tspan x="1255.076" y="1319" fill="#FFF"> = sha256(</tspan> <tspan x="1378.665" y="1319" class="fontBrand fontBold" font-weight="bold" fill="#F8E71C">code_verifier</tspan> <tspan x="1540.53" y="1319" fill="#FFF">)</tspan> <tspan x="1060" y="1350" fill="#FFF">code_challenge_method = sha256</tspan></text><text id="myapp://auth?code=" class="fontBrand" font-size="26" font-weight="normal" fill="#FFF"><tspan x="1060" y="1709">myapp://auth?code=</tspan></text><text id="code" class="fontBrand fontBold" font-size="26" font-weight="bold" fill="#A5D4E5"><tspan x="1298" y="1709">code</tspan></text><text id="code" class="fontBrand fontBold" font-size="26" font-weight="bold" fill="#A5D4E5"><tspan x="1065" y="1778">code</tspan></text><text id="code" class="fontBrand fontBold" font-size="26" font-weight="bold" fill="#A5D4E5"><tspan x="1146" y="2081">code</tspan></text><text id="&amp;state=" class="fontBrand" font-size="26" font-weight="normal" fill="#FFF"><tspan x="1360" y="1709">&amp;state=</tspan></text><text id="DEEP-LINK" class="fontBrand" font-size="32" font-weight="normal" fill="#FFF"><tspan x="458" y="1734">DEEP LINK </tspan></text><g id="smartphone-iphone" transform="translate(241 2076)" fill="#49A3CE" fill-rule="nonzero"><path d="M80.562 0H19.438C8.72 0 0 8.678 0 19.344v141.315C0 171.32 8.72 180 19.438 180h61.12C91.278 180 100 171.32 100 160.66V19.343C100.003 8.678 91.28 0 80.562 0zm13.014 160.66c0 7.108-5.837 12.894-13.014 12.894H19.438c-7.174 0-13.011-5.786-13.011-12.895V19.344h.003c0-7.112 5.837-12.895 13.011-12.895h61.12c7.175 0 13.015 5.783 13.015 12.895.003 0 .003 141.315 0 141.315zM86.967 18.941H13.042c-.889 0-1.606.72-1.606 1.61v125.239c0 .888.717 1.613 1.606 1.613h73.925c.888 0 1.61-.722 1.61-1.613V20.553a1.611 1.611 0 00-1.61-1.611zm-1.606 125.235H14.645V22.163h70.713s0 122.014.003 122.014zm-35.357 5.912c-5.415 0-9.823 4.418-9.823 9.85 0 5.432 4.408 9.85 9.823 9.85 5.416 0 9.818-4.42 9.818-9.85 0-5.432-4.402-9.85-9.818-9.85zm0 16.476c-3.645 0-6.609-2.972-6.609-6.626 0-3.653 2.964-6.629 6.61-6.629 3.642 0 6.606 2.976 6.606 6.63 0 3.653-2.964 6.625-6.607 6.625zM39.374 12.61c0-.657.64-1.188 1.429-1.188h18.394c.79 0 1.427.531 1.427 1.188 0 .657-.634 1.188-1.424 1.188H40.806c-.787 0-1.43-.531-1.433-1.188z" id="Shape"/></g><g id="server+icon+server+line+icon+icon-1320073121523081718_0" transform="translate(745 2092)" stroke="#49A3CE" stroke-linecap="round" stroke-linejoin="round"><path d="M107 131.627c0 2.955-2.407 5.373-5.35 5.373H5.35C2.408 137 0 134.582 0 131.627V5.373C0 2.418 2.408 0 5.35 0h96.3c2.942 0 5.35 2.418 5.35 5.373v126.254zM0 90h104M0 44h107" id="Path" stroke-width="5"/><circle id="Oval" stroke-width="5" cx="87" cy="20" r="7"/><circle id="Oval" stroke-width="5" cx="87" cy="68" r="7"/><circle id="Oval" stroke-width="5" cx="87" cy="115" r="7"/><path d="M20 19h49" id="Path" stroke-width="5"/><path d="M20 70h49" id="Path" stroke-width="6"/><path d="M20 116h49" id="Path" stroke-width="5"/></g><path id="Line" d="M397 2179v8h311v3H397v8l-19-9.5 19-9.5z" fill="#FFF" fill-rule="nonzero"/><text id="POST-/token" class="fontBrand" font-size="32" font-weight="normal" fill="#FFF"><tspan x="462" y="2106">POST /token</tspan></text><text id="returns-the-JWT" class="fontBrand" font-size="32" font-weight="normal" fill="#FFF"><tspan x="451" y="2230">returns the JWT</tspan></text><text id="grant_type-=-authori" class="fontBrand" font-size="26" font-weight="normal"><tspan x="1060" y="2050" fill="#FFF">grant_type = authorization_code</tspan> <tspan x="1060" y="2081" fill="#FFF">code =</tspan> <tspan x="1060" y="2112" fill="#FFF">redirect_uri = myapp://auth</tspan> <tspan x="1060" y="2143" fill="#FFF">client_id = 123</tspan> <tspan x="1060" y="2174" fill="#FFF">code_verifier = </tspan> <tspan x="1238.483" y="2174" class="fontBrand fontBold" font-weight="bold" fill="#F8E71C">code_verifier</tspan></text><text id="IDP-checks-that" class="fontBrand" font-size="27" font-weight="normal" fill="#FFF"><tspan x="986" y="2307">IDP checks that</tspan></text><text id="sha256(code_verifier" class="fontBrand" font-size="27" font-weight="normal"><tspan x="986" y="2346" fill="#FFF">sha256(</tspan> <tspan x="1083.572" y="2346" class="fontBrand fontBold" font-weight="bold" fill="#F8E71C">code_verifier</tspan> <tspan x="1251.663" y="2346" fill="#FFF">) = </tspan> <tspan x="1291.424" y="2346" class="fontBrand fontBold" font-weight="bold" fill="#F5A623">code_challenge</tspan></text><text id="before-returning-the" class="fontBrand" font-size="27" font-weight="normal" fill="#FFF"><tspan x="986" y="2385">before returning the JWT</tspan></text><text id="code_verifier" class="fontBrand fontBold" font-size="32" font-weight="bold" fill="#F8E71C"><tspan x="663" y="843">code_verifier</tspan></text><path id="Line" d="M797.5 1289v31h6l-7 14-7-14h6v-31h2z" fill="#FCFCFC" fill-rule="nonzero"/><path d="M134.5 682.5v1659" id="Line-2" stroke="#FFF" stroke-width="4" stroke-linecap="square" fill-rule="nonzero"/><text id="A-U-T-H-F-L-O-W" class="fontBrand fontBold" font-size="32" font-weight="bold" fill="#FFF"><tspan x="73.945" y="1107">A</tspan>  <tspan x="73.945" y="1183">U</tspan>  <tspan x="75.727" y="1259">T</tspan>  <tspan x="73.945" y="1335">H</tspan>   <tspan x="75.727" y="1449">F</tspan>  <tspan x="75.727" y="1525">L</tspan>  <tspan x="73.055" y="1601">O</tspan>  <tspan x="70.398" y="1677">W</tspan></text><text id="P-K-C-E-S-T-E-P" class="fontBrand fontBold" font-size="32" font-weight="bold" fill="#E6A2C2"><tspan x="46.328" y="1990">P</tspan> <tspan x="45.445" y="2028">K</tspan> <tspan x="45.445" y="2066">C</tspan> <tspan x="46.328" y="2104">E</tspan>  <tspan x="46.328" y="2180">S</tspan> <tspan x="47.227" y="2218">T</tspan> <tspan x="46.328" y="2256">E</tspan> <tspan x="46.328" y="2294">P</tspan></text><text id="P-K-C-E" class="fontBrand fontBold" font-size="32" font-weight="bold" fill="#E6A2C2"><tspan x="895.328" y="2290">P</tspan> <tspan x="894.445" y="2328">K</tspan> <tspan x="894.445" y="2366">C</tspan> <tspan x="895.328" y="2404">E</tspan></text><path d="M96 1920.5V2342" id="Line-3" stroke="#E6A2C2" stroke-width="3" stroke-linecap="square" fill-rule="nonzero"/><text id="for-each-auth-sessio" class="fontBrand" font-size="26" font-weight="normal" fill="#FFF"><tspan x="986" y="1809">for each auth session</tspan></text><text id="/post-data:" fill="#FFF" class="fontBrand" font-size="26" font-weight="normal"><tspan x="986" y="1991">/post data:</tspan></text><path id="Rectangle" stroke="#E6A2C2" stroke-width="3" fill-rule="nonzero" d="M952.5 2247.5h589v180h-589z"/><path id="Rectangle" stroke="#A5D4E5" stroke-width="3" fill-rule="nonzero" d="M948.5 286.5h652v1h-652z"/><text id="Icons-from-Flaticon" class="fontBrand" font-size="26" font-weight="normal" fill="#FFF"><tspan x="997.109" y="2543">Icons from Flaticon flaticon.com/authors/freepik</tspan></text></g></svg>