<svg id="Layer_1" data-name="Layer 1" xmlns="http://www.w3.org/2000/svg" viewBox="0 0 1986.97 1248.06"><defs><style>.cls-3{fill:#97aade}.cls-8{fill:#374d9c;font-family:-apple-system,BlinkMacSystemFont,&apos;Segoe UI&apos;,Helvetica,Arial,sans-serif,&apos;Apple Color Emoji&apos;,&apos;Segoe UI Emoji&apos;,&apos;Segoe UI Symbol&apos;;font-weight:600}.cls-5{letter-spacing:-.03em}.cls-8{font-size:72px}</style></defs><path d="M1974.91 688.5c77.54 502.27-364.35 630.37-855.44 630.37S23.9 1103.45 23.9 571.91c0-344.64 450.64-501.1 941.74-501.1s937.07 150.02 1009.27 617.69z" transform="translate(3.17 -70.81)" opacity=".4" fill="#97aade"/><path d="M1906.15 886.45c-39.68 266.34-326.53 331.73-651.63 331.73S665.88 1059 665.88 732.31c0-406.27 263.54-485.88 588.64-485.88s716.3 206.06 651.63 640.02z" transform="translate(3.17 -70.81)" opacity=".6" fill="#97aade"/><path class="cls-3" d="M1889.35 803.72c0 122.94-77.07 147.52-240 147.52S1305.83 891 1299.27 803.72c-9.72-129.38 52.69-158.51 295-158.51 162.98 0 295.08 70.97 295.08 158.51z" transform="translate(3.17 -70.81)"/><path class="cls-3" d="M1312.15 645.21c0 86.32-149.63 130.42-306.33 130.42s-283.74 28.09-283.74-101.29c0-86.32 41.52-149.06 198.23-149.06s391.84 33.62 391.84 119.93zm89.39 319.28c0 119.42-128.62 184.17-272 190.47-213.08 9.37-283.33-75.66-283.33-154.54S986 869.29 1129.51 869.29s272.03 16.32 272.03 95.2z" transform="translate(3.17 -70.81)"/><text transform="rotate(3 -8047.015 8129.94)" fill="#374d9c" font-family="-apple-system,BlinkMacSystemFont,'Segoe UI',Helvetica,Arial,sans-serif,'Apple Color Emoji','Segoe UI Emoji','Segoe UI Symbol'" font-weight="600" font-size="96"><tspan class="cls-5">R</tspan><tspan x="57.23" y="0">eact </tspan><tspan x="-330.14" y="96">Components</tspan></text><text transform="matrix(1 .09 -.09 1 1177.05 346.63)" font-size="84" fill="#374d9c" font-family="-apple-system,BlinkMacSystemFont,'Segoe UI',Helvetica,Arial,sans-serif,'Apple Color Emoji','Segoe UI Emoji','Segoe UI Symbol'" font-weight="600"><tspan class="cls-5">R</tspan><tspan x="50.08" y="0">eact Native </tspan><tspan x="0" y="84">Components</tspan></text><text class="cls-8" transform="matrix(1 .09 -.09 1 1506.32 700.27)">Core <tspan x="-132.61" y="72">Components</tspan></text><text class="cls-8" transform="matrix(1 .09 -.09 1 810.5 549.77)">Community <tspan x="-18.25" y="72">Components</tspan></text><text class="cls-8" transform="rotate(-8 7155.759 -6166.21)"><tspan letter-spacing="-.09em">Y</tspan><tspan x="35.16" y="0">our Native</tspan><tspan x="-19.37" y="72">Components</tspan></text></svg>