<svg xmlns="http://www.w3.org/2000/svg" width="492.75" height="377.55" viewBox="0 0 492.75 377.55"><defs><style>.a,.b,.c{fill:#2bb673;stroke:#3d3d3d;stroke-linecap:round;stroke-linejoin:round;stroke-width:15px;fill-rule:evenodd;}.a{fill-opacity:0.2;}.b{fill-opacity:0.6;}</style></defs><title>Hermes Full Color Logo</title><path class="a" d="M247.21,353.68l4.7-20.53c2-8.54,3.79-25.32,4.85-33.12-11.36-4.63-26.7-2-46.61-4.25a80.64,80.64,0,0,1-41.3-17.59l0,2.84A81.36,81.36,0,0,0,240.55,353Z" transform="translate(-100.62 -161.23)"/><path class="b" d="M179.85,240.67a81,81,0,0,1-41.52-17.21l0,.07A81.38,81.38,0,0,0,210,295.47l48.79,3.66C261.17,269.38,247.37,248.26,179.85,240.67Z" transform="translate(-100.62 -161.23)"/><path class="c" d="M563.07,168.85H512.35a30.56,30.56,0,0,0-29.92,24.31l-19.69,96.09a13.92,13.92,0,0,1-13.59,11.11l-76.35.22a13.9,13.9,0,0,1-13.66-16.74h0c12.39-59.36-31.35-115.11-115.81-115.11H108.12a81.4,81.4,0,0,0,71.73,71.94c89.19,10,82.24,46.07,72.06,90.48L212.46,503.39a22.79,22.79,0,0,0,22.22,27.88h47.95A30.55,30.55,0,0,0,312.54,507l20.72-98.62a13.91,13.91,0,0,1,13.57-11l76.83-.22a13.91,13.91,0,0,1,13.66,16.72l-18.4,89.1a22.8,22.8,0,0,0,22.22,27.89h50.73a30.57,30.57,0,0,0,29.91-24.32l63.51-309.73A22.79,22.79,0,0,0,563.07,168.85Z" transform="translate(-100.62 -161.23)"/></svg>