<svg height="377.55" viewBox="0 0 492.75 377.55" width="492.75" xmlns="http://www.w3.org/2000/svg"><g fill="#2bb673" stroke="#3d3d3d" stroke-linecap="round" stroke-linejoin="round" stroke-width="15" fill-rule="evenodd"><path d="M146.59 192.45l4.7-20.53c2-8.54 3.79-25.32 4.85-33.12-11.36-4.63-26.7-2-46.61-4.25a80.64 80.64 0 01-41.3-17.59v2.84a81.36 81.36 0 0071.7 71.97z" fill-opacity=".2"/><path d="M79.23 79.44a81 81 0 01-41.52-17.21v.07a81.38 81.38 0 0071.67 71.94l48.79 3.66c2.38-29.75-11.42-50.87-78.94-58.46z" fill-opacity=".6"/><path d="M462.45 7.62h-50.72a30.56 30.56 0 00-29.92 24.31l-19.69 96.09a13.92 13.92 0 01-13.59 11.11l-76.35.22a13.9 13.9 0 01-13.66-16.74C270.91 63.25 227.17 7.5 142.71 7.5H7.5a81.4 81.4 0 0071.73 71.94c89.19 10 82.24 46.07 72.06 90.48l-39.45 172.24a22.79 22.79 0 0022.22 27.88h47.95a30.55 30.55 0 0029.91-24.27l20.72-98.62a13.91 13.91 0 0113.57-11l76.83-.22a13.91 13.91 0 0113.66 16.72l-18.4 89.1a22.8 22.8 0 0022.22 27.89h50.73a30.57 30.57 0 0029.91-24.32l63.51-309.73a22.79 22.79 0 00-22.22-27.97z"/></g></svg>