<svg height="377.55" viewBox="0 0 492.75 377.55" width="492.75" xmlns="http://www.w3.org/2000/svg"><g style="fill:#2bb673;stroke:#3d3d3d;stroke-linecap:round;stroke-linejoin:round;stroke-width:15;fill-rule:evenodd" transform="translate(-100.62 -161.23)"><path d="m247.21 353.68 4.7-20.53c2-8.54 3.79-25.32 4.85-33.12-11.36-4.63-26.7-2-46.61-4.25a80.64 80.64 0 0 1 -41.3-17.59v2.84a81.36 81.36 0 0 0 71.7 71.97z" fill-opacity=".2"/><path d="m179.85 240.67a81 81 0 0 1 -41.52-17.21v.07a81.38 81.38 0 0 0 71.67 71.94l48.79 3.66c2.38-29.75-11.42-50.87-78.94-58.46z" fill-opacity=".6"/><path d="m563.07 168.85h-50.72a30.56 30.56 0 0 0 -29.92 24.31l-19.69 96.09a13.92 13.92 0 0 1 -13.59 11.11l-76.35.22a13.9 13.9 0 0 1 -13.66-16.74c12.39-59.36-31.35-115.11-115.81-115.11h-135.21a81.4 81.4 0 0 0 71.73 71.94c89.19 10 82.24 46.07 72.06 90.48l-39.45 172.24a22.79 22.79 0 0 0 22.22 27.88h47.95a30.55 30.55 0 0 0 29.91-24.27l20.72-98.62a13.91 13.91 0 0 1 13.57-11l76.83-.22a13.91 13.91 0 0 1 13.66 16.72l-18.4 89.1a22.8 22.8 0 0 0 22.22 27.89h50.73a30.57 30.57 0 0 0 29.91-24.32l63.51-309.73a22.79 22.79 0 0 0 -22.22-27.97z"/></g></svg>