<svg id="Layer_1" data-name="Layer 1" xmlns="http://www.w3.org/2000/svg" viewBox="0 0 293.81 556.93"><defs><style>.cls-2{fill:#d6eef5}.cls-5{fill:#97aad8}.cls-6{fill:#d5e2f5}.cls-8{fill:#5971b5}</style></defs><g id="device"><path d="M259.36 10.09L97.52.07c-20.28-1.26-37.83 15.5-39.08 35.78L34.21 427a36.8 36.8 0 0034.45 39l161.84 10a36.8 36.8 0 0039-34.45l24.23-391.12c1.27-20.29-14.08-39.08-34.37-40.34z" fill="#99d5e7"/><path class="cls-2" d="M55.48 192.66l2.29-36.94 223.97-57.26-2.47 39.93-223.79 54.27zM42.26 406.25l10.87-175.67 225.02-74.23-11.8 190.64-224.09 59.26z"/><path d="M259.36 10.09L97.52.07c-20.28-1.26-37.83 15.5-39.08 35.78L34.21 427a36.8 36.8 0 0034.45 39l161.84 10a36.8 36.8 0 0039-34.45l24.23-391.12c1.27-20.29-14.08-39.08-34.37-40.34zm-8.69 430.24A19.5 19.5 0 01230 458.59l-158-9.78a20.5 20.5 0 01-19.19-21.72L77.08 35.16a19.59 19.59 0 0120.77-18.34l20.08 1.24a3.63 3.63 0 013.4 3.84v.38A12.5 12.5 0 00133 35.54l85.43 5.29a12.15 12.15 0 0012.88-11.38v.56a4.93 4.93 0 015.21-4.61l19.29 1.2A20.46 20.46 0 01275 48.29z" fill="#134484"/><rect x="162.1" y="23.87" width="28.05" height="4.95" rx="2.47" transform="rotate(3.54 176.377 26.455)" fill="#0069ac"/></g><g id="device-2" data-name="device"><path class="cls-5" d="M186.24 79.22L21.62 91.3a23.33 23.33 0 00-21.56 25l30.76 419.02a23.33 23.33 0 0025 21.55l164.62-12.08a23.33 23.33 0 0021.55-25L211.2 100.77a23.31 23.31 0 00-24.96-21.55z"/><path class="cls-5" d="M186.24 79.22L21.62 91.3a23.33 23.33 0 00-21.56 25l30.76 419.02a23.33 23.33 0 0025 21.55l164.62-12.08a23.33 23.33 0 0021.55-25L211.2 100.77a23.31 23.31 0 00-24.96-21.55z"/><path class="cls-6" d="M218.32 252.15l-193.1 88.29 9.56 130.25 193.5-82.9-9.96-135.64zM216.49 227.22l-192.41 97.6-3.05-41.51 193.78-79.03 1.68 22.94z"/><path d="M186.24 79.22L21.62 91.3a23.33 23.33 0 00-21.56 25l30.76 419.02a23.33 23.33 0 0025 21.55l164.62-12.08a23.33 23.33 0 0021.55-25L211.2 100.77a23.31 23.31 0 00-24.96-21.55zm45.47 419.6A12.29 12.29 0 01220.36 512L52 524.34a13.26 13.26 0 01-14.19-12.26l-29.06-396a15.8 15.8 0 0114.6-16.92l40.05-2.94A6.13 6.13 0 0170 102l.35 4.69a13.18 13.18 0 0014.12 12.19l42.64-3.13A12.84 12.84 0 00139 102l-.37-5.08a6.09 6.09 0 015.64-6.53l41.51-3a15.71 15.71 0 0116.82 14.53z" fill="#374d9c"/><rect class="cls-8" x="105.2" y="532.89" width="62.11" height="4.01" rx="2" transform="rotate(-4.2 136.189 534.635)"/><rect class="cls-8" x="93.24" y="105.97" width="22.71" height="4.01" rx="2" transform="rotate(-4.2 104.594 107.88)"/></g></svg>